<svg width="141" height="138" viewBox="0 0 141 138" fill="none" xmlns="http://www.w3.org/2000/svg">
<path d="M84.9829 97.8964H72.5818V85.7592C72.5818 84.6347 71.6491 83.7219 70.5002 83.7219C69.3513 83.7219 68.4187 84.6347 68.4187 85.7592V97.8964H56.0164C54.8675 97.8964 53.9349 98.8093 53.9349 99.9337C53.9349 101.058 54.8675 101.971 56.0164 101.971L68.4198 101.97V114.107C68.4198 115.232 69.3524 116.144 70.5013 116.144C71.6502 116.144 72.5829 115.232 72.5829 114.107L72.5818 101.97H84.9829C86.1318 101.97 87.0645 101.057 87.0645 99.9327C87.0645 98.8082 86.1318 97.8964 84.9829 97.8964ZM132.705 9.63304H8.29763C7.14873 9.63304 6.21606 10.5459 6.21606 11.6703V107.141C6.21606 108.265 7.14873 109.178 8.29763 109.178H43.0602C46.993 120.324 57.7947 128.365 70.5034 128.365C83.2102 128.365 94.0094 120.324 97.9414 109.178H132.704C133.853 109.178 134.786 108.265 134.786 107.141V11.6703C134.786 10.5459 133.853 9.63304 132.704 9.63304H132.705ZM70.5029 124.292C56.7785 124.292 45.6133 113.364 45.6133 99.9328C45.6133 86.5015 56.7796 75.5739 70.5029 75.5739C84.225 75.5739 95.388 86.5015 95.388 99.9328C95.388 113.364 84.225 124.292 70.5029 124.292ZM130.623 105.105H99.0444C99.3617 103.426 99.5489 101.701 99.5489 99.9328C99.5489 84.2557 86.5185 71.4999 70.5007 71.4999C54.4817 71.4999 41.4497 84.2552 41.4497 99.9328C41.4497 101.701 41.638 103.424 41.9542 105.105H10.3752V69.2657L50.3481 33.5852L92.1855 72.7804C92.5878 73.1563 93.1052 73.3458 93.6238 73.3458C94.1412 73.3458 94.6586 73.1574 95.0599 72.7826L113.746 55.3377L130.623 71.0516L130.623 105.105ZM130.623 65.4276L115.178 51.0487C114.373 50.2991 113.109 50.3022 112.308 51.0518L93.6285 68.4913L51.8215 29.3257C51.0297 28.5845 49.7862 28.5698 48.9805 29.2931L10.3763 63.7527V13.7061H130.623L130.623 65.4276Z" fill="#828282"/>
</svg>
