<svg width="24" height="38" viewBox="0 0 24 38" fill="none" xmlns="http://www.w3.org/2000/svg">
<path d="M3.55191 30.0189C3.55191 30.4734 3.83779 30.6081 4.18997 30.3204L11.2183 24.5697C11.5705 24.2814 12.1422 24.2814 12.4938 24.5697L19.5228 30.3204C19.8749 30.6087 20.1602 30.4741 20.1602 30.0189V4.16426C20.1602 3.70973 19.7822 3.34118 19.3367 3.34118H4.37546C3.92091 3.34118 3.55198 3.7091 3.55198 4.16426L3.55191 30.0189ZM1.50774 36.7603C0.802094 37.3374 0.230347 37.0688 0.230347 36.1724V1.71299C0.230347 0.81152 0.977865 0.0800781 1.88371 0.0800781H21.8276C22.7406 0.0800781 23.481 0.816553 23.481 1.71299V36.1724C23.481 37.0738 22.9047 37.3336 22.2036 36.7603L12.4968 28.8178C12.1427 28.5282 11.5678 28.5282 11.2136 28.8178L1.50774 36.7603Z" fill="black"/>
</svg>
