<svg width="132" height="126" viewBox="0 0 132 126" fill="none" xmlns="http://www.w3.org/2000/svg">
<path d="M66 0.00378418C76.6851 0.00378418 85.4129 7.0291 85.9028 15.8411C104.52 22.415 117.057 37.7511 117.057 55.1116V79.0685C125.402 79.6025 132 85.4359 132 92.546C132 100.007 124.735 106.063 115.787 106.063H16.2133C7.26007 106.063 0 100.015 0 92.546C0 85.438 6.58705 79.602 14.9434 79.0684V55.1116C14.9434 37.7475 27.4798 22.4137 46.0972 15.8407C46.5877 7.02692 55.3234 0.00378418 66 0.00378418ZM54.2017 24.4103C38.3572 28.6492 27.3962 40.9932 27.3962 55.1116V80.0648C27.3962 85.2317 22.3755 89.4266 16.1939 89.4266C14.132 89.4266 12.4528 90.829 12.4528 92.546C12.4528 94.2671 14.1313 95.6654 16.2133 95.6654H115.787C117.862 95.6654 119.547 94.2607 119.547 92.546C119.547 90.8315 117.861 89.4266 115.806 89.4266C109.614 89.4266 104.604 85.2452 104.604 80.0648V55.1116C104.604 40.9968 93.6419 28.6499 77.798 24.4104L73.4717 23.2528V16.623C73.4717 13.1935 70.1247 10.4018 66 10.4018C61.8803 10.4018 58.5283 13.1942 58.5283 16.623V23.2527L54.2017 24.4103ZM42.3396 106.063H54.7925C54.7925 111.232 59.8102 115.422 66 115.422C72.1898 115.422 77.2076 111.232 77.2076 106.063H89.6604C89.6604 116.974 79.0673 125.82 66 125.82C52.9327 125.82 42.3396 116.974 42.3396 106.063Z" fill="black"/>
</svg>
