<svg width="33" height="32" viewBox="0 0 33 32" fill="none" xmlns="http://www.w3.org/2000/svg">
<path d="M16.211 0C18.7947 0 20.9051 1.78682 21.0236 4.02807C25.5252 5.70007 28.5567 9.60066 28.5567 14.0161V20.1093C30.5746 20.2451 32.17 21.7288 32.17 23.5372C32.17 25.4349 30.4133 26.9752 28.2496 26.9752H4.17239C2.00747 26.9752 0.251953 25.4368 0.251953 23.5372C0.251953 21.7293 1.84473 20.245 3.86532 20.1093V14.0161C3.86532 9.59974 6.89668 5.69973 11.3984 4.02795C11.517 1.78626 13.6293 0 16.211 0ZM13.3581 6.20754C9.52686 7.28569 6.87646 10.4253 6.87646 14.0161V20.3627C6.87646 21.6769 5.66243 22.7438 4.16769 22.7438C3.66912 22.7438 3.26309 23.1005 3.26309 23.5372C3.26309 23.9749 3.66895 24.3306 4.17239 24.3306H28.2496C28.7514 24.3306 29.1589 23.9733 29.1589 23.5372C29.1589 23.1011 28.7513 22.7438 28.2543 22.7438C26.757 22.7438 25.5455 21.6803 25.5455 20.3627V14.0161C25.5455 10.4262 22.8949 7.28585 19.0638 6.20759L18.0177 5.91316V4.22693C18.0177 3.35467 17.2084 2.64463 16.211 2.64463C15.2149 2.64463 14.4043 3.35486 14.4043 4.22693V5.91314L13.3581 6.20754ZM10.4898 26.9752H13.501C13.501 28.2897 14.7143 29.3554 16.211 29.3554C17.7077 29.3554 18.921 28.2897 18.921 26.9752H21.9322C21.9322 29.7503 19.3707 32 16.211 32C13.0513 32 10.4898 29.7503 10.4898 26.9752Z" fill="black"/>
</svg>
