<svg width="24" height="38" viewBox="0 0 24 38" fill="none" xmlns="http://www.w3.org/2000/svg">
<path d="M3.73441 30.0189C3.73441 30.4734 4.01896 30.6081 4.36951 30.3204L11.3653 24.5697C11.7159 24.2814 12.285 24.2814 12.6349 24.5697L19.6313 30.3204C19.9819 30.6087 20.2658 30.4741 20.2658 30.0189V4.16426C20.2658 3.70973 19.8896 3.34118 19.4461 3.34118H4.55415C4.1017 3.34118 3.73448 3.7091 3.73448 4.16426L3.73441 30.0189ZM1.69971 36.7603C0.997323 37.3374 0.428223 37.0688 0.428223 36.1724V1.71299C0.428223 0.81152 1.17228 0.0800781 2.07393 0.0800781H21.9255C22.8343 0.0800781 23.5712 0.816553 23.5712 1.71299V36.1724C23.5712 37.0738 22.9976 37.3336 22.2997 36.7603L12.6379 28.8178C12.2854 28.5282 11.7131 28.5282 11.3607 28.8178L1.69971 36.7603Z" fill="black"/>
</svg>
