<svg width="437" height="83" viewBox="0 0 437 83" fill="none" xmlns="http://www.w3.org/2000/svg">
<path d="M33.0947 38.8288C33.0947 39.254 32.7069 39.5988 32.2281 39.5988H11.0165C10.5377 39.5988 10.1499 39.254 10.1499 38.8288C10.1499 38.4032 10.5377 38.0584 11.0165 38.0584H32.2281C32.7069 38.0584 33.0947 38.4032 33.0947 38.8288ZM32.2281 46.3773H11.0165C10.5377 46.3773 10.1499 46.7221 10.1499 47.1477C10.1499 47.5729 10.5377 47.9177 11.0165 47.9177H32.2281C32.7069 47.9177 33.0947 47.5729 33.0947 47.1477C33.0947 46.7221 32.7069 46.3773 32.2281 46.3773ZM42.7649 42.9883C42.7707 45.6726 42.1307 48.3266 40.8873 50.7728L43.1979 59.8876C43.2588 60.1312 43.1836 60.3857 42.9955 60.5708C42.8096 60.7563 42.5342 60.8503 42.2565 60.8224L31.3851 59.7952C27.257 61.7366 22.5261 62.4221 17.9182 61.7473C13.31 61.0728 9.07712 59.0745 5.86661 56.0586C2.65667 53.0431 0.646612 49.1755 0.143153 45.0476C-0.36026 40.9197 0.671207 36.7591 3.07987 33.2019C5.48812 29.6445 9.14099 26.8865 13.4801 25.3497C17.8187 23.8128 22.6043 23.5815 27.1048 24.6915C31.6055 25.8012 35.5732 28.1908 38.4011 31.495C41.2295 34.7993 42.7618 38.8361 42.7649 42.9883ZM39.1889 50.3619C40.4072 48.0551 41.0364 45.5368 41.0315 42.9883C41.0324 39.1629 39.6198 35.4437 37.0114 32.4013C34.4025 29.359 30.7424 27.1628 26.5933 26.1496C22.4441 25.1367 18.0351 25.3628 14.0452 26.7938C10.0546 28.2247 6.70312 30.7808 4.50538 34.0695C2.30809 37.3582 1.38636 41.1976 1.88214 44.9969C2.37794 48.7964 4.26357 52.3463 7.24947 55.1007C10.235 57.855 14.1557 59.6614 18.4088 60.2423C22.6619 60.8232 27.0117 60.1464 30.7895 58.3161C30.9449 58.2417 31.1223 58.2114 31.2978 58.2285L41.2336 59.1785L39.1307 50.8597C39.0873 50.6925 39.1083 50.518 39.1889 50.3619Z" fill="black"/>
<path fill-rule="evenodd" clip-rule="evenodd" d="M114.07 27.2817C111.933 25.2803 108.852 24 105.614 24C103.706 24 101.913 24.4111 100.189 25.2368C98.4663 26.0634 97.0663 27.1922 95.9627 28.6274C94.8589 27.1921 93.4589 26.0633 91.734 25.2368C90.0099 24.4111 88.2193 24 86.3116 24C83.0704 24 79.9933 25.2802 77.8551 27.2817C75.7178 29.2796 74.3628 32.1902 74.3628 35.2546C74.3628 37.3615 74.8369 39.4073 75.4207 40.9471C75.7102 41.7091 76.1459 42.5383 76.7297 43.3801C77.319 44.2324 77.855 44.9439 78.3142 45.51C78.7742 46.0726 79.4301 46.7814 80.3137 47.5939C81.1992 48.4107 81.9216 49.0513 82.451 49.5067C82.9795 49.9638 83.7844 50.6381 84.8395 51.5046C86.0585 52.5057 86.9271 53.25 87.4819 53.7231C88.0282 54.1847 88.8153 54.8952 89.8497 55.8299C91.9421 57.7197 93.4759 59.4607 94.9283 61.4569C95.1991 61.8299 95.5486 62 95.9628 62C96.3985 62 96.777 61.8317 97.0422 61.4569C97.9708 60.1377 99.0455 58.7882 100.305 57.4603C101.574 56.1171 102.632 55.0742 103.477 54.3291C104.331 53.576 105.562 52.5235 107.154 51.1794C108.137 50.3483 108.922 49.7237 109.451 49.2692C109.98 48.8121 110.669 48.1821 111.519 47.3767C112.369 46.5732 113.042 45.883 113.518 45.3124C114.006 44.7312 114.523 44.0268 115.104 43.1852C116.292 41.4628 116.811 40.1001 117.24 38.1883C117.455 37.2323 117.563 36.2524 117.563 35.2547C117.563 32.19 116.206 29.2795 114.07 27.2817ZM114.805 37.4706C114.363 39.8813 113.029 42.2461 110.806 44.5743C109.836 45.5905 108.055 47.2092 105.454 49.3977C104.103 50.5335 103.017 51.462 102.167 52.2017C101.338 52.9194 100.322 53.8904 99.1111 55.1122C97.909 56.3233 96.8586 57.5257 95.9628 58.6978C95.0202 57.5452 93.9351 56.3776 92.7 55.1777C91.4538 53.9675 90.4934 53.0478 89.7822 52.4401C89.0691 51.8305 87.985 50.9251 86.4962 49.6812L84.9089 48.3548L83.464 47.1163C82.8363 46.5802 82.3528 46.1452 82.0389 45.813C81.7325 45.4931 81.3258 45.075 80.8208 44.5522C80.3157 44.0321 79.9259 43.575 79.672 43.2055C79.1454 42.4453 78.2505 41.3095 77.9245 40.3606L77.3979 38.8172C77.0127 37.6921 76.8909 36.5357 76.8909 35.2547C76.8909 32.8217 77.8101 30.7353 79.6476 29.0192C81.5103 27.2818 83.717 26.4127 86.3115 26.4127C88.1283 26.4127 89.8038 26.8672 91.346 27.8019C92.8845 28.7366 94.0716 29.9673 94.8373 31.516C95.0603 31.966 95.4361 32.1902 95.9627 32.1902C96.4911 32.1902 96.9006 31.982 97.1358 31.516C97.9116 29.9814 99.0192 28.7366 100.559 27.8019C102.098 26.8672 103.8 26.4127 105.614 26.4127C108.21 26.4127 110.418 27.2818 112.256 28.9972C114.095 30.7125 115.014 32.799 115.014 35.2549C115.011 36.0151 114.937 36.7531 114.805 37.4708L114.805 37.4706Z" fill="black"/>
<path d="M162.78 46.087L170.203 61.3227C170.403 61.7345 170.864 62 171.371 62H171.4C171.919 61.9893 172.379 61.7023 172.561 61.2749L187.807 25.5104C187.982 25.1 187.868 24.6373 187.516 24.3274C187.164 24.0172 186.638 23.9174 186.171 24.0713L145.513 37.4826C145.027 37.6427 144.701 38.0469 144.689 38.5034C144.677 38.9599 144.981 39.3765 145.459 39.5561L162.78 46.087ZM184.447 27.0277L171.294 57.8834L165.255 45.4907L176.082 35.9668C176.579 35.5304 176.579 34.8229 176.082 34.3865C175.586 33.9498 174.782 33.9498 174.286 34.3865L163.458 43.9104L149.369 38.5989L184.447 27.0277Z" fill="black"/>
<path d="M386.735 53.522C386.735 53.9773 387.019 54.1122 387.37 53.8241L394.365 48.0635C394.716 47.7748 395.285 47.7748 395.635 48.0635L402.631 53.8241C402.982 54.1128 403.266 53.9779 403.266 53.522V27.6234C403.266 27.1681 402.89 26.7989 402.446 26.7989H387.554C387.102 26.7989 386.735 27.1675 386.735 27.6234L386.735 53.522ZM384.7 60.2748C383.997 60.853 383.428 60.5839 383.428 59.6859V25.168C383.428 24.265 384.172 23.5323 385.074 23.5323H404.926C405.834 23.5323 406.571 24.27 406.571 25.168V59.6859C406.571 60.5889 405.998 60.8492 405.3 60.2748L395.638 52.3188C395.286 52.0288 394.713 52.0288 394.361 52.3188L384.7 60.2748Z" fill="black"/>
</svg>
