<svg width="132" height="122" viewBox="0 0 132 122" fill="none" xmlns="http://www.w3.org/2000/svg">
<path d="M66 0C76.6851 0 85.4129 6.78217 85.9028 15.2892C104.52 21.6356 117.057 36.4409 117.057 53.2006V76.3283C125.402 76.8438 132 82.4754 132 89.3394C132 96.5425 124.735 102.389 115.787 102.389H16.2133C7.26007 102.389 0 96.5499 0 89.3394C0 82.4774 6.58705 76.8433 14.9434 76.3282V53.2006C14.9434 36.4374 27.4798 21.6343 46.0972 15.2888C46.5877 6.78007 55.3234 0 66 0ZM54.2017 23.5618C38.3572 27.6541 27.3962 39.5708 27.3962 53.2006V77.2901C27.3962 82.2783 22.3755 86.3279 16.1939 86.3279C14.132 86.3279 12.4528 87.6818 12.4528 89.3394C12.4528 91.0009 14.1313 92.3508 16.2133 92.3508H115.787C117.862 92.3508 119.547 90.9948 119.547 89.3394C119.547 87.6842 117.861 86.3279 115.806 86.3279C109.614 86.3279 104.604 82.2913 104.604 77.2901V53.2006C104.604 39.5743 93.6419 27.6547 77.798 23.562L73.4717 22.4444V16.044C73.4717 12.7332 70.1247 10.0381 66 10.0381C61.8803 10.0381 58.5283 12.7339 58.5283 16.044V22.4443L54.2017 23.5618ZM42.3396 102.389H54.7925C54.7925 107.378 59.8102 111.423 66 111.423C72.1898 111.423 77.2076 107.378 77.2076 102.389H89.6604C89.6604 112.922 79.0673 121.461 66 121.461C52.9327 121.461 42.3396 112.922 42.3396 102.389Z" fill="black"/>
</svg>
