<svg width="436" height="83" viewBox="0 0 436 83" fill="none" xmlns="http://www.w3.org/2000/svg">
<path d="M32.923 38.8288C32.923 39.254 32.5369 39.5988 32.0604 39.5988H10.947C10.4704 39.5988 10.0844 39.254 10.0844 38.8288C10.0844 38.4032 10.4704 38.0584 10.947 38.0584H32.0604C32.5369 38.0584 32.923 38.4032 32.923 38.8288ZM32.0604 46.3773H10.947C10.4704 46.3773 10.0844 46.7221 10.0844 47.1477C10.0844 47.5729 10.4704 47.9177 10.947 47.9177H32.0604C32.5369 47.9177 32.923 47.5729 32.923 47.1477C32.923 46.7221 32.5369 46.3773 32.0604 46.3773ZM42.5483 42.9883C42.5541 45.6726 41.9171 48.3266 40.6795 50.7728L42.9794 59.8876C43.04 60.1312 42.9651 60.3857 42.7779 60.5708C42.5929 60.7563 42.3187 60.8503 42.0423 60.8224L31.2213 59.7952C27.1123 61.7366 22.4032 62.4221 17.8167 61.7473C13.2299 61.0728 9.01657 59.0745 5.82092 56.0586C2.62584 53.0431 0.625089 49.1755 0.123961 45.0476C-0.377122 40.9197 0.64957 36.7591 3.04708 33.2019C5.44419 29.6445 9.08014 26.8865 13.3991 25.3497C17.7177 23.8128 22.4811 23.5815 26.9608 24.6915C31.4407 25.8012 35.39 28.1908 38.2048 31.495C41.0201 34.7993 42.5453 38.8361 42.5483 42.9883ZM38.989 50.3619C40.2016 48.0551 40.8279 45.5368 40.823 42.9883C40.8239 39.1629 39.4179 35.4437 36.8215 32.4013C34.2247 29.359 30.5815 27.1628 26.4516 26.1496C22.3216 25.1367 17.9331 25.3628 13.9616 26.7938C9.98947 28.2247 6.65356 30.7808 4.46599 34.0695C2.27887 37.3582 1.36141 41.1976 1.85489 44.9969C2.3484 48.7964 4.2253 52.3463 7.19737 55.1007C10.1691 57.855 14.0717 59.6614 18.3051 60.2423C22.5385 60.8232 26.8681 60.1464 30.6284 58.3161C30.7831 58.2417 30.9596 58.2114 31.1344 58.2285L41.0241 59.1785L38.9311 50.8597C38.8878 50.6925 38.9087 50.518 38.989 50.3619Z" fill="black"/>
<path fill-rule="evenodd" clip-rule="evenodd" d="M113.524 27.2817C111.396 25.2803 108.33 24 105.106 24C103.207 24 101.423 24.4111 99.7071 25.2368C97.992 26.0634 96.5984 27.1922 95.4999 28.6274C94.4012 27.1921 93.0077 26.0633 91.2907 25.2368C89.5746 24.4111 87.7924 24 85.8935 24C82.6673 24 79.6045 25.2802 77.4761 27.2817C75.3487 29.2796 74 32.1902 74 35.2546C74 37.3615 74.4719 39.4073 75.053 40.9471C75.3412 41.7091 75.7749 42.5383 76.3559 43.3801C76.9426 44.2324 77.4761 44.9439 77.9331 45.51C78.391 46.0726 79.0439 46.7814 79.9234 47.5939C80.8047 48.4107 81.5238 49.0513 82.0508 49.5067C82.5768 49.9638 83.378 50.6381 84.4282 51.5046C85.6416 52.5057 86.5061 53.25 87.0584 53.7231C87.6021 54.1847 88.3856 54.8952 89.4152 55.8299C91.4979 57.7197 93.0246 59.4607 94.4703 61.4569C94.7399 61.8299 95.0877 62 95.5 62C95.9337 62 96.3105 61.8317 96.5744 61.4569C97.4987 60.1377 98.5685 58.7882 99.8221 57.4603C101.085 56.1171 102.138 55.0742 102.979 54.3291C103.83 53.576 105.054 52.5235 106.639 51.1794C107.617 50.3483 108.399 49.7237 108.926 49.2692C109.452 48.8121 110.138 48.1821 110.984 47.3767C111.83 46.5732 112.5 45.883 112.974 45.3124C113.46 44.7312 113.974 44.0268 114.553 43.1852C115.735 41.4628 116.252 40.1001 116.679 38.1883C116.893 37.2323 117 36.2524 117 35.2547C117 32.19 115.649 29.2795 113.524 27.2817ZM114.255 37.4706C113.815 39.8813 112.487 42.2461 110.274 44.5743C109.309 45.5905 107.536 47.2092 104.947 49.3977C103.603 50.5335 102.522 51.462 101.675 52.2017C100.851 52.9194 99.8387 53.8904 98.6338 55.1122C97.4372 56.3233 96.3916 57.5257 95.5 58.6978C94.5617 57.5452 93.4817 56.3776 92.2524 55.1777C91.0119 53.9675 90.0559 53.0478 89.348 52.4401C88.6383 51.8305 87.5592 50.9251 86.0772 49.6812L84.4973 48.3548L83.0591 47.1163C82.4342 46.5802 81.953 46.1452 81.6405 45.813C81.3356 45.4931 80.9308 45.075 80.4281 44.5522C79.9254 44.0321 79.5374 43.575 79.2846 43.2055C78.7605 42.4453 77.8697 41.3095 77.5452 40.3606L77.021 38.8172C76.6377 37.6921 76.5164 36.5357 76.5164 35.2547C76.5164 32.8217 77.4314 30.7353 79.2603 29.0192C81.1144 27.2818 83.3109 26.4127 85.8934 26.4127C87.7018 26.4127 89.3695 26.8672 90.9045 27.8019C92.436 28.7366 93.6176 29.9673 94.3797 31.516C94.6017 31.966 94.9757 32.1902 95.4999 32.1902C96.0259 32.1902 96.4335 31.982 96.6676 31.516C97.4398 29.9814 98.5422 28.7366 100.075 27.8019C101.607 26.8672 103.301 26.4127 105.106 26.4127C107.691 26.4127 109.888 27.2818 111.718 28.9972C113.548 30.7125 114.463 32.799 114.463 35.2549C114.46 36.0151 114.386 36.7531 114.255 37.4708L114.255 37.4706Z" fill="black"/>
<path d="M162.008 46.087L169.396 61.3227C169.596 61.7345 170.054 62 170.559 62H170.588C171.105 61.9893 171.562 61.7023 171.743 61.2749L186.919 25.5104C187.094 25.1 186.98 24.6373 186.63 24.3274C186.279 24.0172 185.755 23.9174 185.291 24.0713L144.82 37.4826C144.337 37.6427 144.012 38.0469 144 38.5034C143.989 38.9599 144.292 39.3765 144.767 39.5561L162.008 46.087ZM183.575 27.0277L170.482 57.8834L164.472 45.4907L175.249 35.9668C175.743 35.5304 175.743 34.8229 175.249 34.3865C174.755 33.9498 173.954 33.9498 173.461 34.3865L162.682 43.9104L148.659 38.5989L183.575 27.0277Z" fill="black"/>
<path d="M385.734 53.522C385.734 53.9773 386.019 54.1122 386.37 53.8241L393.365 48.0635C393.716 47.7748 394.285 47.7748 394.635 48.0635L401.631 53.8241C401.982 54.1128 402.266 53.9779 402.266 53.522V27.6234C402.266 27.1681 401.89 26.7989 401.446 26.7989H386.554C386.102 26.7989 385.734 27.1675 385.734 27.6234L385.734 53.522ZM383.7 60.2748C382.997 60.853 382.428 60.5839 382.428 59.6859V25.168C382.428 24.265 383.172 23.5323 384.074 23.5323H403.925C404.834 23.5323 405.571 24.27 405.571 25.168V59.6859C405.571 60.5889 404.998 60.8492 404.3 60.2748L394.638 52.3188C394.285 52.0288 393.713 52.0288 393.361 52.3188L383.7 60.2748Z" fill="black"/>
</svg>
