<svg width="85" height="82" viewBox="0 0 85 82" fill="none" xmlns="http://www.w3.org/2000/svg">
<path d="M55.137 19.017H30.0454C29.5227 19.017 29 18.5127 29 18.0085C29 17.5043 29.5227 17 30.0454 17H55.137C55.6597 17 56.1824 17.5042 56.1824 18.0085C56.1824 18.6385 55.7907 19.017 55.137 19.017Z" fill="black"/>
<path d="M55.137 29.034H30.0454C29.5227 29.034 29 28.5297 29 28.0255C29 27.5212 29.5227 27.017 30.0454 27.017H55.137C55.6597 27.017 56.1824 27.5212 56.1824 28.0255C56.1824 28.5297 55.7907 29.034 55.137 29.034Z" fill="black"/>
<path d="M55.137 39.0509H30.0454C29.5227 39.0509 29 38.5467 29 38.0424C29 37.5382 29.5227 37.034 30.0454 37.034H55.137C55.6597 37.034 56.1824 37.5382 56.1824 38.0424C56.1824 38.5467 55.7907 39.0509 55.137 39.0509Z" fill="black"/>
</svg>
