<svg width="86" height="83" viewBox="0 0 86 83" fill="none" xmlns="http://www.w3.org/2000/svg">
<path d="M55.6081 32.0502H30.5165C29.9938 32.0502 29.4711 31.546 29.4711 31.0417C29.4711 30.5375 29.9938 30.0332 30.5165 30.0332H55.6081C56.1307 30.0332 56.6534 30.5375 56.6534 31.0417C56.6534 31.6717 56.2617 32.0502 55.6081 32.0502Z" fill="black"/>
<path d="M55.6081 42.8928H30.5165C29.9938 42.8928 29.4711 42.3885 29.4711 41.8843C29.4711 41.38 29.9938 40.8758 30.5165 40.8758H55.6081C56.1307 40.8758 56.6534 41.38 56.6534 41.8843C56.6534 42.3885 56.2617 42.8928 55.6081 42.8928Z" fill="black"/>
<path d="M55.6081 53.7353H30.5165C29.9938 53.7353 29.4711 53.2311 29.4711 52.7269C29.4711 52.2226 29.9938 51.7184 30.5165 51.7184H55.6081C56.1307 51.7184 56.6534 52.2226 56.6534 52.7269C56.6534 53.2311 56.2617 53.7353 55.6081 53.7353Z" fill="black"/>
</svg>
