<svg width="89" height="82" viewBox="0 0 89 82" fill="none" xmlns="http://www.w3.org/2000/svg">
<path d="M57.4869 19.017H31.345C30.8004 19.017 30.2558 18.5127 30.2558 18.0085C30.2558 17.5043 30.8004 17 31.345 17H57.4869C58.0315 17 58.5761 17.5042 58.5761 18.0085C58.5761 18.6385 58.168 19.017 57.4869 19.017Z" fill="black"/>
<path d="M57.4869 29.8596H31.345C30.8004 29.8596 30.2558 29.3553 30.2558 28.8511C30.2558 28.3468 30.8004 27.8426 31.345 27.8426H57.4869C58.0315 27.8426 58.5761 28.3468 58.5761 28.8511C58.5761 29.3553 58.168 29.8596 57.4869 29.8596Z" fill="black"/>
<path d="M57.4869 40.7021H31.345C30.8004 40.7021 30.2558 40.1979 30.2558 39.6936C30.2558 39.1894 30.8004 38.6852 31.345 38.6852H57.4869C58.0315 38.6852 58.5761 39.1894 58.5761 39.6936C58.5761 40.1979 58.168 40.7021 57.4869 40.7021Z" fill="black"/>
</svg>
