<svg width="33" height="12" viewBox="0 0 33 12" fill="none" xmlns="http://www.w3.org/2000/svg">
<path fill-rule="evenodd" clip-rule="evenodd" d="M31.6666 0.666626H30.6666C30.1143 0.666626 29.6666 1.11434 29.6666 1.66663V10.3333C29.6666 10.8856 30.1143 11.3333 30.6666 11.3333H31.6666C32.2189 11.3333 32.6666 10.8856 32.6666 10.3333V1.66663C32.6666 1.11434 32.2189 0.666626 31.6666 0.666626ZM26 2.99996H27C27.5522 2.99996 28 3.44767 28 3.99996V10.3333C28 10.8856 27.5522 11.3333 27 11.3333H26C25.4477 11.3333 25 10.8856 25 10.3333V3.99996C25 3.44767 25.4477 2.99996 26 2.99996ZM22.3333 5.33329H21.3333C20.781 5.33329 20.3333 5.78101 20.3333 6.33329V10.3333C20.3333 10.8856 20.781 11.3333 21.3333 11.3333H22.3333C22.8856 11.3333 23.3333 10.8856 23.3333 10.3333V6.33329C23.3333 5.78101 22.8856 5.33329 22.3333 5.33329ZM2.66663 7.33329H1.66663C1.11434 7.33329 0.666626 7.78101 0.666626 8.33329V10.3333C0.666626 10.8856 1.11434 11.3333 1.66663 11.3333H2.66663C3.21891 11.3333 3.66663 10.8856 3.66663 10.3333V8.33329C3.66663 7.78101 3.21891 7.33329 2.66663 7.33329Z" fill="black"/>
</svg>
