<svg width="41" height="57" viewBox="0 0 41 57" fill="none" xmlns="http://www.w3.org/2000/svg">
<path d="M20.5 38.7601C12.587 38.7601 6.15002 31.6009 6.15002 22.8001C6.15002 13.9993 12.587 6.84009 20.5 6.84009C28.413 6.84009 34.85 13.9993 34.85 22.8001C34.85 31.6009 28.413 38.7601 20.5 38.7601ZM20.5 9.57609C13.899 9.57609 8.56902 15.5041 8.56902 22.8001C8.56902 30.0961 13.899 36.0697 20.5 36.0697C27.101 36.0697 32.431 30.1417 32.431 22.8001C32.39 15.5041 27.06 9.57609 20.5 9.57609Z" fill="black"/>
<path d="M20.131 27.2234C19.475 27.2234 18.901 26.6306 18.901 25.8554C18.901 23.7578 20.131 21.9338 21.894 21.341C22.673 21.0674 23.206 20.2922 23.165 19.3802C23.165 17.7386 21.935 16.3706 20.459 16.3706C18.983 16.3706 17.753 17.7386 17.753 19.3802C17.753 20.1098 17.22 20.7482 16.523 20.7482C15.867 20.7482 15.293 20.1554 15.293 19.3802C15.375 16.2338 17.671 13.6802 20.5 13.6802C23.329 13.6802 25.625 16.2338 25.625 19.3802C25.625 21.4778 24.395 23.3018 22.632 23.8946C21.853 24.1682 21.32 24.9434 21.361 25.8554C21.361 26.585 20.787 27.2234 20.131 27.2234Z" fill="black"/>
<path d="M20.131 31.6921C20.9462 31.6921 21.607 30.9572 21.607 30.0505C21.607 29.1439 20.9462 28.4089 20.131 28.4089C19.3159 28.4089 18.655 29.1439 18.655 30.0505C18.655 30.9572 19.3159 31.6921 20.131 31.6921Z" fill="black"/>
</svg>
