<svg width="84" height="83" viewBox="0 0 84 83" fill="none" xmlns="http://www.w3.org/2000/svg">
<path d="M33.7345 53.5221C33.7345 53.9774 34.0191 54.1122 34.3696 53.8241L41.3654 48.0636C41.716 47.7748 42.2851 47.7748 42.635 48.0636L49.6314 53.8241C49.982 54.1129 50.2659 53.978 50.2659 53.5221V27.6235C50.2659 27.1682 49.8897 26.799 49.4462 26.799H34.5543C34.1018 26.799 33.7346 27.1675 33.7346 27.6235L33.7345 53.5221ZM31.6998 60.2749C30.9974 60.853 30.4283 60.5839 30.4283 59.686V25.168C30.4283 24.265 31.1724 23.5323 32.0741 23.5323H51.9256C52.8344 23.5323 53.5713 24.2701 53.5713 25.168V59.686C53.5713 60.589 52.9978 60.8492 52.2998 60.2749L42.638 52.3189C42.2856 52.0289 41.7133 52.0289 41.3608 52.3189L31.6998 60.2749Z" fill="black"/>
</svg>
