<svg width="84" height="83" viewBox="0 0 84 83" fill="none" xmlns="http://www.w3.org/2000/svg">
<path d="M33.7345 53.5219C33.7345 53.9772 34.0191 54.1121 34.3696 53.824L41.3654 48.0634C41.716 47.7747 42.2851 47.7747 42.635 48.0634L49.6314 53.824C49.982 54.1127 50.2659 53.9779 50.2659 53.5219V27.6233C50.2659 27.168 49.8897 26.7989 49.4462 26.7989H34.5543C34.1018 26.7989 33.7346 27.1674 33.7346 27.6233L33.7345 53.5219ZM31.6998 60.2748C30.9974 60.8529 30.4283 60.5838 30.4283 59.6859V25.1679C30.4283 24.2649 31.1724 23.5322 32.0741 23.5322H51.9256C52.8344 23.5322 53.5713 24.27 53.5713 25.1679V59.6859C53.5713 60.5889 52.9978 60.8491 52.2998 60.2748L42.638 52.3188C42.2856 52.0287 41.7133 52.0287 41.3608 52.3188L31.6998 60.2748Z" fill="black"/>
</svg>
