<svg width="25" height="29" viewBox="0 0 25 29" fill="none" xmlns="http://www.w3.org/2000/svg">
<path d="M12.3547 0.444336C11.1917 0.444336 10.225 1.52011 10.225 2.85225L10.225 12.0052L2.12968 12.0052C0.951468 12.0052 -1.73871e-09 13.0982 -1.9217e-09 14.43C-2.10238e-09 15.7449 0.951468 16.8379 2.12968 16.8379L10.225 16.8379L10.225 25.9909C10.225 27.323 11.1917 28.3988 12.3547 28.3988C13.5329 28.3988 14.4993 27.323 14.4993 25.9909L14.4993 16.8379L22.5947 16.8379C23.7729 16.8379 24.7243 15.7449 24.7243 14.43C24.7243 13.0978 23.7729 12.0052 22.5947 12.0052L14.4993 12.0052L14.4993 2.85225C14.4993 1.52011 13.5326 0.444336 12.3547 0.444336Z" fill="black"/>
</svg>
