<svg width="31" height="36" viewBox="0 0 31 36" fill="none" xmlns="http://www.w3.org/2000/svg">
<path fill-rule="evenodd" clip-rule="evenodd" d="M28.4069 3.84781C26.8778 2.00739 24.6737 0.830078 22.3571 0.830078C20.9922 0.830078 19.7099 1.2081 18.4765 1.96741C17.2438 2.72752 16.2422 3.76547 15.4526 5.08525C14.663 3.76543 13.6614 2.72742 12.4274 1.96741C11.194 1.2081 9.91301 0.830078 8.54823 0.830078C6.22948 0.830078 4.02811 2.00732 2.49842 3.84781C0.969368 5.68498 -1.03484e-09 8.36138 -1.42204e-09 11.1793C-1.68825e-09 13.1167 0.339195 14.9979 0.756816 16.4139C0.963945 17.1145 1.27565 17.8771 1.69327 18.6512C2.11491 19.4349 2.49835 20.0891 2.82682 20.6097C3.15596 21.1271 3.62518 21.7788 4.25731 22.5259C4.89078 23.2771 5.40761 23.8661 5.78636 24.2849C6.16443 24.7053 6.74025 25.3253 7.49505 26.122C8.36715 27.0427 8.98855 27.727 9.38546 28.1621C9.77626 28.5865 10.3394 29.2399 11.0794 30.0994C12.5763 31.8372 13.6736 33.4382 14.7127 35.2737C14.9064 35.6167 15.1564 35.7732 15.4527 35.7732C15.7644 35.7732 16.0352 35.6184 16.2249 35.2737C16.8892 34.0606 17.6581 32.8198 18.5591 31.5986C19.4668 30.3635 20.2236 29.4045 20.8283 28.7194C21.4396 28.0269 22.3198 27.059 23.4587 25.823C24.1619 25.0588 24.7236 24.4844 25.1023 24.0665C25.4804 23.6461 25.9738 23.0668 26.5818 22.3263C27.1898 21.5873 27.6711 20.9527 28.0116 20.428C28.3608 19.8935 28.7309 19.2458 29.1465 18.4719C29.9965 16.8881 30.3678 15.635 30.6748 13.877C30.8283 12.9979 30.9054 12.0968 30.9054 11.1794C30.9054 8.36125 29.9346 5.68485 28.4069 3.84781ZM28.9324 13.217C28.616 15.4338 27.6621 17.6083 26.0714 19.7493C25.3776 20.6837 24.1032 22.1722 22.2425 24.1846C21.2765 25.2291 20.4997 26.0829 19.891 26.7631C19.2984 27.423 18.5711 28.3159 17.7051 29.4394C16.845 30.5531 16.0936 31.6588 15.4527 32.7366C14.7784 31.6767 14.0021 30.603 13.1185 29.4997C12.227 28.3868 11.5399 27.5411 11.0311 26.9823C10.521 26.4218 9.7454 25.5892 8.68028 24.4453L7.54473 23.2257L6.51107 22.0867C6.06194 21.5938 5.71605 21.1938 5.49149 20.8883C5.27229 20.5942 4.98135 20.2096 4.62005 19.729C4.25874 19.2507 3.97988 18.8303 3.79822 18.4906C3.42149 17.7916 2.78131 16.7471 2.54803 15.8746L2.1713 14.4553C1.89579 13.4207 1.80864 12.3574 1.80864 11.1794C1.80864 8.94213 2.46624 7.02354 3.78074 5.44553C5.11337 3.84788 6.69205 3.0487 8.54814 3.0487C9.84792 3.0487 11.0466 3.46664 12.1498 4.32616C13.2505 5.18568 14.0998 6.31731 14.6475 7.74142C14.8071 8.1553 15.0759 8.36142 15.4526 8.36142C15.8307 8.36142 16.1236 8.16996 16.2919 7.74142C16.8469 6.33035 17.6393 5.18566 18.7407 4.32616C19.8421 3.46664 21.0594 3.0487 22.3571 3.0487C24.2146 3.0487 25.7939 3.84792 27.1091 5.4253C28.4243 7.00257 29.0819 8.92127 29.0819 11.1796C29.0799 11.8786 29.0269 12.5573 28.9324 13.2172L28.9324 13.217Z" fill="black"/>
</svg>
