<svg width="56" height="50" viewBox="0 0 56 50" fill="none" xmlns="http://www.w3.org/2000/svg">
<path d="M42.921 19.9725C42.921 20.5189 42.4231 20.962 41.8085 20.962H14.5777C13.9631 20.962 13.4652 20.5189 13.4652 19.9725C13.4652 19.4255 13.9631 18.9824 14.5777 18.9824H41.8085C42.4231 18.9824 42.921 19.4255 42.921 19.9725ZM41.8085 29.673H14.5777C13.9631 29.673 13.4652 30.1161 13.4652 30.663C13.4652 31.2095 13.9631 31.6526 14.5777 31.6526H41.8085C42.4231 31.6526 42.921 31.2095 42.921 30.663C42.921 30.1161 42.4231 29.673 41.8085 29.673ZM55.3352 25.3178C55.3427 28.7674 54.5211 32.178 52.9249 35.3217L55.8912 47.035C55.9694 47.3481 55.8728 47.6751 55.6313 47.913C55.3927 48.1514 55.0391 48.2722 54.6826 48.2364L40.7263 46.9163H40.7257C35.4262 49.4112 29.3533 50.2922 23.4379 49.4249C17.5221 48.5582 12.088 45.9901 7.96644 42.1145C3.84563 38.2392 1.26519 33.269 0.618861 27.9643C-0.0274045 22.6594 1.29676 17.3127 4.38892 12.7414C7.48056 8.16977 12.17 4.62548 17.7404 2.65051C23.3101 0.67554 29.4537 0.378207 35.2313 1.80475C41.0092 3.23077 46.1028 6.30168 49.7332 10.5479C53.3642 14.7941 55.3317 19.9817 55.3357 25.3176L55.3352 25.3178ZM50.7446 34.7937C52.3085 31.8291 53.1163 28.5929 53.1099 25.3178C53.1111 20.4018 51.2977 15.6224 47.9491 11.7125C44.5998 7.8029 39.9011 4.98059 34.5747 3.67848C29.248 2.37683 23.588 2.66745 18.4658 4.50634C13.3428 6.34522 9.04034 9.63003 6.21894 13.8563C3.39813 18.0827 2.21485 23.0166 2.85131 27.8991C3.4878 32.7818 5.90851 37.3437 9.74171 40.8834C13.5745 44.423 18.6077 46.7444 24.0677 47.4909C29.5277 48.2374 35.1118 47.3676 39.9616 45.0155C40.1611 44.9199 40.3888 44.881 40.6142 44.903L53.3694 46.1238L50.6699 35.4333V35.4338C50.6141 35.2189 50.6405 34.9938 50.744 34.7932L50.7446 34.7937Z" fill="black"/>
</svg>
