<svg width="40" height="40" viewBox="0 0 40 40" fill="none" xmlns="http://www.w3.org/2000/svg">
<path fill-rule="evenodd" clip-rule="evenodd" d="M36.442 3.53378C34.5277 1.44835 31.7683 0.114319 28.8679 0.114319C27.1592 0.114319 25.5537 0.542666 24.0097 1.40305C22.4663 2.26436 21.2124 3.44048 20.2239 4.93595C19.2353 3.44043 17.9814 2.26424 16.4364 1.40305C14.8923 0.542666 13.2886 0.114319 11.5799 0.114319C8.67695 0.114319 5.92094 1.44828 4.00583 3.53378C2.09153 5.61552 0.87793 8.6482 0.87793 11.8413C0.87793 14.0366 1.30259 16.1682 1.82543 17.7727C2.08474 18.5666 2.47499 19.4307 2.99783 20.3078C3.5257 21.1959 4.00574 21.9372 4.41697 22.5271C4.82904 23.1133 5.41649 23.8518 6.20789 24.6984C7.00096 25.5495 7.648 26.217 8.12218 26.6915C8.59551 27.1678 9.31641 27.8704 10.2614 28.7732C11.3532 29.8164 12.1312 30.5918 12.6281 31.0848C13.1174 31.5658 13.8223 32.3062 14.7488 33.2801C16.6228 35.2492 17.9966 37.0633 19.2975 39.1432C19.54 39.5319 19.853 39.7091 20.224 39.7091C20.6142 39.7091 20.9533 39.5337 21.1908 39.1432C22.0225 37.7686 22.9851 36.3626 24.1131 34.9788C25.2494 33.5793 26.1969 32.4926 26.954 31.7163C27.7193 30.9316 28.8212 29.8349 30.2471 28.4344C31.1274 27.5685 31.8307 26.9176 32.3049 26.444C32.7782 25.9677 33.3959 25.3113 34.157 24.4721C34.9182 23.6348 35.5208 22.9157 35.9471 22.3212C36.3844 21.7156 36.8476 20.9816 37.3679 20.1046C38.4321 18.31 38.897 16.8901 39.2814 14.898C39.4736 13.902 39.5701 12.8809 39.5701 11.8414C39.5701 8.64806 38.3547 5.61538 36.442 3.53378ZM37.0999 14.1502C36.7038 16.6622 35.5096 19.1261 33.5181 21.5521C32.6495 22.6109 31.054 24.2975 28.7245 26.5779C27.5152 27.7614 26.5426 28.7289 25.7805 29.4996C25.0386 30.2474 24.1281 31.2592 23.0438 32.5322C21.9671 33.7942 21.0263 35.047 20.224 36.2684C19.3797 35.0673 18.4079 33.8507 17.3017 32.6005C16.1855 31.3395 15.3253 30.3812 14.6884 29.748C14.0497 29.1129 13.0787 28.1694 11.7452 26.8733L10.3236 25.4913L9.02949 24.2007C8.4672 23.6422 8.03416 23.1889 7.75302 22.8427C7.4786 22.5095 7.11435 22.0737 6.66202 21.5291C6.20967 20.9872 5.86055 20.5108 5.63312 20.1259C5.16147 19.3338 4.36 18.1503 4.06794 17.1616L3.5963 15.5534C3.25137 14.381 3.14227 13.1762 3.14227 11.8414C3.14227 9.30626 3.96555 7.13227 5.61125 5.34419C7.27963 3.53386 9.25606 2.62828 11.5798 2.62828C13.2071 2.62828 14.7077 3.10187 16.0889 4.07581C17.467 5.04975 18.5302 6.33203 19.216 7.94571C19.4157 8.41469 19.7522 8.64825 20.2239 8.64825C20.6972 8.64825 21.064 8.43131 21.2746 7.94571C21.9695 6.3468 22.9615 5.04972 24.3404 4.07581C25.7193 3.10187 27.2434 2.62828 28.868 2.62828C31.1935 2.62828 33.1707 3.5339 34.8172 5.32127C36.4638 7.10851 37.2871 9.28263 37.2871 11.8416C37.2846 12.6337 37.2183 13.4025 37.0999 14.1502Z" fill="black"/>
</svg>
