<svg width="32" height="32" viewBox="0 0 32 32" fill="none" xmlns="http://www.w3.org/2000/svg">
<path d="M15.8015 0.0318604C14.3455 0.0318604 13.1353 1.25085 13.1353 2.76032V13.1318H3.00024C1.52518 13.1318 0.333984 14.3703 0.333984 15.8793C0.333984 17.3693 1.52518 18.6078 3.00024 18.6078H13.1353V28.9792C13.1353 30.4887 14.3455 31.7077 15.8015 31.7077C17.2766 31.7077 18.4864 30.4887 18.4864 28.9792V18.6078H28.6214C30.0965 18.6078 31.2877 17.3693 31.2877 15.8793C31.2877 14.3698 30.0965 13.1318 28.6214 13.1318H18.4864V2.76032C18.4864 1.25085 17.2762 0.0318604 15.8015 0.0318604Z" fill="black"/>
</svg>
