<svg width="47" height="38" viewBox="0 0 47 38" fill="none" xmlns="http://www.w3.org/2000/svg">
<path d="M35.4942 14.4803C35.4942 14.8956 35.0779 15.2323 34.5642 15.2323L11.8019 15.2323C11.2881 15.2323 10.8719 14.8956 10.8719 14.4803C10.8719 14.0647 11.2881 13.728 11.8019 13.728L34.5642 13.728C35.0779 13.728 35.4942 14.0647 35.4942 14.4803ZM34.5642 21.8515L11.8019 21.8515C11.2881 21.8515 10.8719 22.1882 10.8719 22.6038C10.8719 23.019 11.2881 23.3557 11.8019 23.3557L34.5642 23.3557C35.0779 23.3557 35.4942 23.019 35.4942 22.6038C35.4942 22.1882 35.0779 21.8515 34.5642 21.8515ZM45.8712 18.5421C45.8775 21.1633 45.1907 23.755 43.8564 26.1437L46.3359 35.0443C46.4013 35.2822 46.3206 35.5307 46.1187 35.7115C45.9192 35.8927 45.6237 35.9844 45.3257 35.9572L33.6596 34.9541L33.6591 34.9541C29.2292 36.8499 24.1529 37.5193 19.2082 36.8603C14.2631 36.2017 9.72073 34.2503 6.27551 31.3053C2.83091 28.3606 0.673907 24.584 0.133642 20.5531C-0.406574 16.5221 0.700299 12.4593 3.28504 8.98566C5.86936 5.51185 9.78926 2.81866 14.4456 1.31794C19.1014 -0.182776 24.2368 -0.40871 29.0663 0.675275C33.8961 1.75886 38.1539 4.09235 41.1885 7.31893C44.2236 10.5455 45.8683 14.4874 45.8716 18.542L45.8712 18.5421ZM42.0339 25.7425C43.3412 23.4898 44.0164 21.0307 44.0111 18.5421C44.0121 14.8066 42.4963 11.1748 39.6971 8.20386C36.8975 5.23308 32.9698 3.0885 28.5174 2.09907C24.0649 1.10998 19.3336 1.33081 15.052 2.72813C10.7696 4.12543 7.17318 6.62146 4.81477 9.8329C2.45684 13.0444 1.46773 16.7935 1.99975 20.5036C2.5318 24.2137 4.55528 27.6802 7.75946 30.3699C10.9633 33.0595 15.1706 34.8235 19.7346 35.3907C24.2986 35.9579 28.9664 35.297 33.0204 33.5098C33.1872 33.4371 33.3775 33.4075 33.5659 33.4243L44.228 34.3519L41.9714 26.2285L41.9714 26.2289C41.9248 26.0656 41.9469 25.8946 42.0334 25.7422L42.0339 25.7425Z" fill="black"/>
</svg>
