<svg width="20" height="20" viewBox="0 0 20 20" fill="none" xmlns="http://www.w3.org/2000/svg">
<path fill-rule="evenodd" clip-rule="evenodd" d="M17.7577 1.8028C16.8383 0.801447 15.5129 0.160889 14.1198 0.160889C13.2991 0.160889 12.5279 0.366566 11.7863 0.779693C11.045 1.19326 10.4427 1.758 9.96794 2.47607C9.49309 1.75797 8.89082 1.19321 8.14876 0.779693C7.40707 0.366566 6.63679 0.160889 5.8161 0.160889C4.42176 0.160889 3.09801 0.801413 2.17816 1.8028C1.25869 2.80238 0.675781 4.25857 0.675781 5.79177C0.675781 6.84587 0.87975 7.86943 1.13088 8.63983C1.25543 9.02105 1.44287 9.43595 1.694 9.85711C1.94754 10.2835 2.17812 10.6395 2.37564 10.9227C2.57356 11.2042 2.85572 11.5588 3.23584 11.9653C3.61676 12.374 3.92755 12.6945 4.1553 12.9223C4.38265 13.1511 4.72891 13.4884 5.18279 13.9219C5.70721 14.4228 6.08088 14.7952 6.31955 15.0319C6.55455 15.2628 6.89316 15.6183 7.33817 16.086C8.23829 17.0315 8.89813 17.9025 9.52296 18.9012C9.63946 19.0879 9.78981 19.173 9.96798 19.173C10.1554 19.173 10.3183 19.0887 10.4323 18.9012C10.8318 18.2412 11.2942 17.5661 11.836 16.9016C12.3818 16.2296 12.8369 15.7079 13.2005 15.3351C13.5681 14.9583 14.0974 14.4317 14.7822 13.7592C15.2051 13.3434 15.5429 13.0309 15.7706 12.8035C15.9979 12.5748 16.2946 12.2596 16.6602 11.8567C17.0258 11.4546 17.3153 11.1093 17.52 10.8239C17.73 10.5331 17.9525 10.1807 18.2025 9.75956C18.7136 8.89783 18.9369 8.21604 19.1215 7.25953C19.2138 6.78125 19.2602 6.29098 19.2602 5.79181C19.2602 4.2585 18.6764 2.80231 17.7577 1.8028ZM18.0737 6.90044C17.8835 8.1066 17.3099 9.28972 16.3533 10.4546C15.9361 10.963 15.1698 11.7728 14.0509 12.8678C13.47 13.4361 13.0029 13.9006 12.6369 14.2707C12.2805 14.6298 11.8432 15.1156 11.3224 15.7269C10.8052 16.3328 10.3533 16.9344 9.96799 17.5208C9.56247 16.9441 9.09569 16.3599 8.56437 15.7597C8.02825 15.1541 7.61508 14.694 7.30914 14.39C7.00238 14.085 6.536 13.632 5.8955 13.0096L5.21266 12.346L4.59109 11.7264C4.32102 11.4582 4.11302 11.2405 3.97799 11.0743C3.84618 10.9143 3.67123 10.7051 3.45396 10.4435C3.23669 10.1833 3.06901 9.9546 2.95977 9.76975C2.73323 9.38942 2.34827 8.82115 2.20799 8.3464L1.98145 7.57422C1.81578 7.01127 1.76338 6.43275 1.76338 5.79182C1.76338 4.57455 2.15881 3.53067 2.94926 2.6721C3.75061 1.80283 4.69992 1.36801 5.81605 1.36801C6.59765 1.36801 7.31843 1.59541 7.98185 2.06306C8.64373 2.53071 9.15442 3.14642 9.48381 3.92126C9.57975 4.14644 9.74139 4.25859 9.96793 4.25859C10.1953 4.25859 10.3714 4.15442 10.4726 3.92126C10.8064 3.15351 11.2828 2.5307 11.9452 2.06306C12.6074 1.59541 13.3395 1.36801 14.1198 1.36801C15.2368 1.36801 16.1865 1.80285 16.9773 2.66109C17.7682 3.51926 18.1636 4.5632 18.1636 5.79194C18.1624 6.17227 18.1306 6.5414 18.0737 6.90044Z" fill="black"/>
</svg>
