<svg width="39" height="40" viewBox="0 0 39 40" fill="none" xmlns="http://www.w3.org/2000/svg">
<path fill-rule="evenodd" clip-rule="evenodd" d="M35.6129 3.68423C33.6986 1.59881 30.9392 0.264771 28.0388 0.264771C26.3301 0.264771 24.7246 0.693118 23.1806 1.5535C21.6372 2.41481 20.3833 3.59093 19.3948 5.0864C18.4062 3.59088 17.1523 2.41469 15.6073 1.5535C14.0632 0.693118 12.4595 0.264771 10.7508 0.264771C7.84785 0.264771 5.09184 1.59874 3.17673 3.68423C1.26243 5.76597 0.0488281 8.79866 0.0488281 11.9917C0.0488281 14.187 0.473484 16.3187 0.996326 17.9231C1.25564 18.7171 1.64588 19.5811 2.16873 20.4582C2.6966 21.3463 3.17664 22.0876 3.58787 22.6775C3.99994 23.2637 4.58739 24.0023 5.37878 24.8488C6.17186 25.7 6.8189 26.3674 7.29308 26.8419C7.7664 27.3183 8.48731 28.0208 9.43228 28.9237C10.5241 29.9668 11.3021 30.7423 11.799 31.2353C12.2882 31.7162 12.9932 32.4566 13.9197 33.4306C15.7937 35.3997 17.1675 37.2137 18.4684 39.2937C18.7109 39.6823 19.0239 39.8596 19.3949 39.8596C19.7851 39.8596 20.1242 39.6842 20.3617 39.2937C21.1934 37.9191 22.156 36.513 23.284 35.1293C24.4203 33.7298 25.3678 32.6431 26.1249 31.8668C26.8902 31.0821 27.9921 29.9854 29.418 28.5848C30.2983 27.7189 31.0016 27.0681 31.4758 26.5945C31.9491 26.1181 32.5668 25.4618 33.3279 24.6226C34.0891 23.7853 34.6917 23.0661 35.118 22.4716C35.5553 21.866 36.0185 21.1321 36.5388 20.2551C37.603 18.4604 38.0679 17.0405 38.4523 15.0485C38.6445 14.0524 38.741 13.0314 38.741 11.9918C38.741 8.79851 37.5256 5.76583 35.6129 3.68423ZM36.2708 14.3007C35.8747 16.8126 34.6805 19.2766 32.689 21.7025C31.8204 22.7614 30.2249 24.448 27.8954 26.7283C26.6861 27.9118 25.7134 28.8793 24.9514 29.6501C24.2095 30.3978 23.299 31.4096 22.2147 32.6827C21.138 33.9446 20.1972 35.1974 19.3949 36.4188C18.5506 35.2178 17.5788 34.0011 16.4726 32.751C15.3564 31.4899 14.4962 30.5317 13.8593 29.8985C13.2206 29.2633 12.2496 28.3198 10.9161 27.0237L9.49447 25.6417L8.20038 24.3512C7.6381 23.7927 7.20506 23.3394 6.92391 22.9932C6.64949 22.6599 6.28525 22.2242 5.83292 21.6795C5.38057 21.1376 5.03145 20.6613 4.80402 20.2763C4.33237 19.4842 3.53089 18.3007 3.23884 17.312L2.7672 15.7039C2.42226 14.5315 2.31316 13.3266 2.31316 11.9918C2.31316 9.45671 3.13644 7.28272 4.78214 5.49464C6.45053 3.68431 8.42696 2.77874 10.7507 2.77874C12.378 2.77874 13.8786 3.25232 15.2598 4.22626C16.6379 5.2002 17.7011 6.48248 18.3869 8.09617C18.5866 8.56514 18.9231 8.7987 19.3948 8.7987C19.8681 8.7987 20.2349 8.58176 20.4455 8.09617C21.1404 6.49725 22.1324 5.20018 23.5113 4.22626C24.8902 3.25232 26.4143 2.77874 28.0389 2.77874C30.3644 2.77874 32.3416 3.68435 33.9881 5.47172C35.6347 7.25896 36.458 9.43308 36.458 11.9921C36.4555 12.7842 36.3892 13.5531 36.2708 14.3009L36.2708 14.3007Z" fill="black"/>
</svg>
