<svg width="19" height="20" viewBox="0 0 19 20" fill="none" xmlns="http://www.w3.org/2000/svg">
<path fill-rule="evenodd" clip-rule="evenodd" d="M17.3085 1.93866C16.389 0.937311 15.0637 0.296753 13.6706 0.296753C12.8499 0.296753 12.0787 0.502431 11.3371 0.915558C10.5958 1.32913 9.99351 1.89386 9.51872 2.61194C9.04387 1.89384 8.4416 1.32907 7.69954 0.915558C6.95785 0.502431 6.18757 0.296753 5.36688 0.296753C3.97254 0.296753 2.64879 0.937277 1.72894 1.93866C0.809474 2.93824 0.226562 4.39443 0.226562 5.92763C0.226562 6.98174 0.430531 8.0053 0.68166 8.7757C0.806213 9.15691 0.993652 9.57181 1.24478 9.99297C1.49832 10.4194 1.7289 10.7753 1.92642 11.0586C2.12434 11.3401 2.4065 11.6947 2.78662 12.1012C3.16754 12.5099 3.47833 12.8304 3.70608 13.0582C3.93343 13.2869 4.27969 13.6243 4.73357 14.0578C5.25799 14.5587 5.63166 14.931 5.87034 15.1677C6.10534 15.3987 6.44394 15.7542 6.88896 16.2218C7.78907 17.1673 8.44891 18.0384 9.07374 19.0371C9.19024 19.2237 9.34059 19.3088 9.51876 19.3088C9.7062 19.3088 9.86905 19.2246 9.98313 19.0371C10.3826 18.3771 10.8449 17.7019 11.3867 17.0375C11.9325 16.3655 12.3876 15.8437 12.7513 15.471C13.1189 15.0942 13.6481 14.5676 14.333 13.8951C14.7558 13.4793 15.0936 13.1668 15.3214 12.9394C15.5487 12.7107 15.8454 12.3955 16.211 11.9926C16.5766 11.5905 16.866 11.2452 17.0708 10.9597C17.2808 10.6689 17.5033 10.3165 17.7532 9.89543C18.2644 9.0337 18.4877 8.3519 18.6723 7.3954C18.7646 6.91711 18.811 6.42684 18.811 5.92768C18.811 4.39437 18.2272 2.93817 17.3085 1.93866ZM17.6245 7.03631C17.4343 8.24246 16.8607 9.42558 15.9041 10.5904C15.4869 11.0989 14.7206 11.9087 13.6017 13.0036C13.0208 13.5719 12.5537 14.0365 12.1876 14.4066C11.8313 14.7656 11.3939 15.2515 10.8732 15.8627C10.356 16.4687 9.90413 17.0702 9.51877 17.6567C9.11325 17.08 8.64648 16.4958 8.11515 15.8955C7.57903 15.29 7.16586 14.8299 6.85992 14.5258C6.55316 14.2209 6.08678 13.7678 5.44629 13.1455L4.76344 12.4819L4.14187 11.8622C3.8718 11.594 3.6638 11.3764 3.52877 11.2102C3.39696 11.0501 3.22201 10.8409 3.00475 10.5794C2.78747 10.3192 2.61979 10.0905 2.51055 9.90562C2.28401 9.52528 1.89905 8.95701 1.75877 8.48227L1.53223 7.71008C1.36656 7.14713 1.31416 6.56861 1.31416 5.92769C1.31416 4.71041 1.70959 3.66653 2.50004 2.80796C3.30139 1.9387 4.2507 1.50387 5.36683 1.50387C6.14843 1.50387 6.86921 1.73127 7.53263 2.19892C8.19452 2.66658 8.7052 3.28229 9.03459 4.05712C9.13053 4.28231 9.29217 4.39446 9.51871 4.39446C9.74605 4.39446 9.92221 4.29029 10.0234 4.05712C10.3571 3.28938 10.8336 2.66657 11.4959 2.19892C12.1582 1.73127 12.8903 1.50387 13.6706 1.50387C14.7876 1.50387 15.7372 1.93872 16.5281 2.79695C17.319 3.65513 17.7144 4.69906 17.7144 5.9278C17.7132 6.30813 17.6814 6.67727 17.6245 7.03631Z" fill="black"/>
</svg>
