<svg width="44" height="38" viewBox="0 0 44 38" fill="none" xmlns="http://www.w3.org/2000/svg">
<path fill-rule="evenodd" clip-rule="evenodd" d="M40.047 3.28173C37.9097 1.2803 34.8288 0 31.5905 0C29.6828 0 27.8902 0.411094 26.1662 1.23682C24.4431 2.06344 23.0431 3.19219 21.9394 4.62743C20.8356 3.19214 19.4356 2.06332 17.7107 1.23682C15.9866 0.411094 14.1961 0 12.2884 0C9.04718 0 5.97009 1.28024 3.83185 3.28173C1.69453 5.27962 0.339539 8.19016 0.339539 11.2546C0.339539 13.3615 0.813669 15.4073 1.39743 16.9471C1.68695 17.7091 2.12266 18.5383 2.70642 19.3801C3.29578 20.2324 3.83176 20.9439 4.2909 21.51C4.75098 22.0726 5.40687 22.7814 6.29046 23.5939C7.17593 24.4107 7.89836 25.0513 8.42779 25.5067C8.95625 25.9638 9.76115 26.6381 10.8162 27.5046C12.0352 28.5057 12.9039 29.25 13.4587 29.7231C14.0049 30.1847 14.792 30.8952 15.8265 31.8299C17.9188 33.7197 19.4526 35.4607 20.9051 37.4569C21.1759 37.8299 21.5254 38 21.9395 38C22.3752 38 22.7538 37.8317 23.019 37.4569C23.9475 36.1377 25.0223 34.7882 26.2817 33.4603C27.5504 32.1171 28.6083 31.0742 29.4536 30.3291C30.3081 29.576 31.5384 28.5235 33.1303 27.1794C34.1133 26.3483 34.8985 25.7237 35.4279 25.2692C35.9563 24.8121 36.646 24.1821 37.4958 23.3767C38.3457 22.5732 39.0185 21.883 39.4945 21.3124C39.9827 20.7312 40.4999 20.0268 41.0808 19.1852C42.269 17.4628 42.7881 16.1001 43.2172 14.1883C43.4318 13.2323 43.5395 12.2524 43.5395 11.2547C43.5395 8.19002 42.1825 5.27949 40.047 3.28173ZM40.7816 13.4706C40.3393 15.8813 39.006 18.2461 36.7824 20.5743C35.8126 21.5905 34.0313 23.2092 31.4304 25.3977C30.0802 26.5335 28.9942 27.462 28.1434 28.2017C27.3151 28.9194 26.2984 29.8904 25.0879 31.1122C23.8857 32.3233 22.8353 33.5257 21.9395 34.6978C20.9969 33.5452 19.9119 32.3776 18.6768 31.1777C17.4306 29.9675 16.4701 29.0478 15.759 28.4401C15.0459 27.8305 13.9618 26.9251 12.4729 25.6812L10.8857 24.3548L9.44079 23.1163C8.813 22.5802 8.32951 22.1452 8.01561 21.813C7.70922 21.4931 7.30254 21.075 6.79751 20.5522C6.29245 20.0321 5.90266 19.575 5.64873 19.2055C5.12214 18.4453 4.22728 17.3095 3.9012 16.3606L3.37461 14.8172C2.98949 13.6921 2.86768 12.5357 2.86768 11.2547C2.86768 8.82171 3.78688 6.73528 5.62431 5.01923C7.48707 3.28181 9.69377 2.41271 12.2882 2.41271C14.1051 2.41271 15.7806 2.86722 17.3227 3.80193C18.8613 4.73664 20.0484 5.96727 20.8141 7.51596C21.0371 7.96605 21.4128 8.1902 21.9394 8.1902C22.4679 8.1902 22.8774 7.982 23.1125 7.51596C23.8884 5.98145 24.9959 4.73662 26.5355 3.80193C28.075 2.86722 29.7767 2.41271 31.5906 2.41271C34.187 2.41271 36.3946 3.28185 38.233 4.99722C40.0714 6.71248 40.9905 8.79903 40.9905 11.2549C40.9877 12.0151 40.9137 12.7529 40.7816 13.4706Z" fill="black"/>
</svg>
