<svg width="50" height="42" viewBox="0 0 50 42" fill="none" xmlns="http://www.w3.org/2000/svg">
<path d="M38.2904 16.2355C38.2904 16.7011 37.8527 17.0786 37.3123 17.0786L13.3731 17.0786C12.8327 17.0786 12.395 16.7011 12.395 16.2355C12.395 15.7695 12.8327 15.392 13.3731 15.392L37.3123 15.392C37.8527 15.392 38.2904 15.7695 38.2904 16.2355ZM37.3123 24.5001L13.3731 24.5001C12.8327 24.5001 12.395 24.8776 12.395 25.3436C12.395 25.8092 12.8327 26.1867 13.3731 26.1867L37.3123 26.1867C37.8527 26.1867 38.2904 25.8092 38.2904 25.3436C38.2904 24.8776 37.8527 24.5001 37.3123 24.5001ZM49.204 20.7896C49.2106 23.7286 48.4883 26.6344 47.0851 29.3126L49.6928 39.2921C49.7615 39.5589 49.6766 39.8374 49.4643 40.0401C49.2545 40.2433 48.9437 40.3462 48.6303 40.3156L36.361 39.191L36.3605 39.191C31.7015 41.3165 26.3627 42.0671 21.1623 41.3283C15.9615 40.5898 11.1843 38.4019 7.56094 35.0999C3.93822 31.7983 1.66969 27.5638 1.10149 23.0444C0.533341 18.5248 1.69745 13.9695 4.41584 10.0748C7.13379 6.17996 11.2564 3.16032 16.1534 1.47769C21.05 -0.204931 26.4509 -0.458251 31.5302 0.757126C36.6097 1.97206 41.0876 4.5884 44.2792 8.20607C47.4712 11.8237 49.2009 16.2435 49.2044 20.7895L49.204 20.7896ZM45.1683 28.8628C46.5432 26.3371 47.2533 23.5799 47.2477 20.7896C47.2488 16.6013 45.6546 12.5294 42.7107 9.19827C39.7663 5.86739 35.6355 3.46286 30.9529 2.3535C26.2701 1.24453 21.2943 1.49212 16.7912 3.05881C12.2874 4.62549 8.50502 7.42406 6.02466 11.0248C3.54482 14.6255 2.50456 18.829 3.06409 22.9888C3.62365 27.1487 5.75176 31.0354 9.12162 34.0511C12.4911 37.0667 16.916 39.0445 21.716 39.6805C26.516 40.3165 31.4251 39.5754 35.6887 37.5716C35.8641 37.4901 36.0643 37.4569 36.2624 37.4757L47.4758 38.5158L45.1026 29.4078L45.1026 29.4082C45.0536 29.2251 45.0768 29.0333 45.1678 28.8624L45.1683 28.8628Z" fill="black"/>
</svg>
