<svg width="20" height="20" viewBox="0 0 20 20" fill="none" xmlns="http://www.w3.org/2000/svg">
<path fill-rule="evenodd" clip-rule="evenodd" d="M18.0487 1.91956C17.1293 0.918207 15.8039 0.277649 14.4108 0.277649C13.5901 0.277649 12.8189 0.483327 12.0773 0.896454C11.336 1.31002 10.7337 1.87476 10.259 2.59283C9.7841 1.87473 9.18183 1.30997 8.43978 0.896454C7.69808 0.483327 6.9278 0.277649 6.10711 0.277649C4.71278 0.277649 3.38903 0.918173 2.46917 1.91956C1.54971 2.91914 0.966797 4.37533 0.966797 5.90853C0.966797 6.96263 1.17077 7.98619 1.42189 8.75659C1.54645 9.13781 1.73389 9.55271 1.98501 9.97387C2.23856 10.4003 2.46913 10.7562 2.66665 11.0395C2.86457 11.321 3.14673 11.6756 3.52685 12.0821C3.90778 12.4908 4.21856 12.8113 4.44632 13.0391C4.67366 13.2678 5.01992 13.6052 5.4738 14.0387C5.99823 14.5396 6.3719 14.9119 6.61057 15.1486C6.84557 15.3796 7.18417 15.7351 7.62919 16.2027C8.52931 17.1482 9.18915 18.0193 9.81398 19.018C9.93047 19.2046 10.0808 19.2897 10.259 19.2897C10.4464 19.2897 10.6093 19.2055 10.7234 19.018C11.1228 18.358 11.5852 17.6828 12.127 17.0184C12.6728 16.3464 13.1279 15.8246 13.4915 15.4518C13.8591 15.0751 14.3884 14.5485 15.0732 13.876C15.4961 13.4602 15.8339 13.1477 16.0616 12.9203C16.289 12.6916 16.5856 12.3764 16.9512 11.9734C17.3169 11.5714 17.6063 11.2261 17.811 10.9406C18.0211 10.6498 18.2436 10.2974 18.4935 9.87632C19.0046 9.01459 19.2279 8.3328 19.4125 7.37629C19.5048 6.89801 19.5512 6.40774 19.5512 5.90857C19.5512 4.37526 18.9674 2.91907 18.0487 1.91956ZM18.3648 7.0172C18.1745 8.22336 17.6009 9.40648 16.6443 10.5713C16.2271 11.0798 15.4608 11.8896 14.3419 12.9845C13.7611 13.5528 13.2939 14.0174 12.9279 14.3875C12.5715 14.7465 12.1342 15.2323 11.6134 15.8436C11.0962 16.4496 10.6444 17.0511 10.259 17.6376C9.85349 17.0609 9.38671 16.4767 8.85538 15.8764C8.31927 15.2709 7.9061 14.8108 7.60015 14.5067C7.29339 14.2018 6.82701 13.7487 6.18652 13.1264L5.50368 12.4628L4.88211 11.8431C4.61203 11.5749 4.40404 11.3573 4.269 11.1911C4.13719 11.031 3.96224 10.8218 3.74498 10.5603C3.52771 10.3001 3.36002 10.0714 3.25078 9.88651C3.02425 9.50618 2.63928 8.93791 2.499 8.46316L2.27247 7.69098C2.10679 7.12803 2.05439 6.54951 2.05439 5.90858C2.05439 4.69131 2.44982 3.64743 3.24028 2.78886C4.04163 1.91959 4.99094 1.48477 6.10706 1.48477C6.88866 1.48477 7.60944 1.71217 8.27286 2.17982C8.93475 2.64747 9.44544 3.26318 9.77483 4.03802C9.87076 4.2632 10.0324 4.37535 10.2589 4.37535C10.4863 4.37535 10.6624 4.27118 10.7636 4.03802C11.0974 3.27027 11.5738 2.64746 12.2362 2.17982C12.8985 1.71217 13.6305 1.48477 14.4108 1.48477C15.5278 1.48477 16.4775 1.91962 17.2683 2.77785C18.0592 3.63602 18.4546 4.67996 18.4546 5.9087C18.4534 6.28903 18.4216 6.65828 18.3648 7.01732L18.3648 7.0172Z" fill="black"/>
</svg>
