<svg width="25" height="29" viewBox="0 0 25 29" fill="none" xmlns="http://www.w3.org/2000/svg">
<path d="M12.3547 0.229248C11.1917 0.229248 10.225 1.30502 10.225 2.63716L10.225 11.7901L2.12968 11.7901C0.951469 11.7901 -1.73871e-09 12.8831 -1.9217e-09 14.2149C-2.10238e-09 15.5298 0.951469 16.6228 2.12968 16.6228L10.225 16.6228L10.225 25.7758C10.225 27.1079 11.1917 28.1837 12.3547 28.1837C13.5329 28.1837 14.4993 27.1079 14.4993 25.7758L14.4993 16.6228L22.5947 16.6228C23.7729 16.6228 24.7243 15.5298 24.7243 14.2149C24.7243 12.8828 23.7729 11.7901 22.5947 11.7901L14.4993 11.7901L14.4993 2.63716C14.4993 1.30502 13.5326 0.229248 12.3547 0.229248Z" fill="black"/>
</svg>
