<svg width="25" height="29" viewBox="0 0 25 29" fill="none" xmlns="http://www.w3.org/2000/svg">
<path d="M12.3547 0.286133C11.1917 0.286133 10.225 1.36191 10.225 2.69405L10.225 11.847L2.12968 11.847C0.951469 11.847 -1.73871e-09 12.94 -1.9217e-09 14.2718C-2.10238e-09 15.5867 0.951469 16.6797 2.12968 16.6797L10.225 16.6797L10.225 25.8327C10.225 27.1648 11.1917 28.2406 12.3547 28.2406C13.5329 28.2406 14.4993 27.1648 14.4993 25.8327L14.4993 16.6797L22.5947 16.6797C23.7729 16.6797 24.7243 15.5867 24.7243 14.2718C24.7243 12.9396 23.7729 11.847 22.5947 11.847L14.4993 11.847L14.4993 2.69405C14.4993 1.36191 13.5326 0.286133 12.3547 0.286133Z" fill="black"/>
</svg>
