<svg width="47" height="40" viewBox="0 0 47 40" fill="none" xmlns="http://www.w3.org/2000/svg">
<path d="M35.4942 15.6967C35.4942 16.1268 35.0779 16.4756 34.5642 16.4756L11.8019 16.4756C11.2881 16.4756 10.8719 16.1268 10.8719 15.6967C10.8719 15.2662 11.2881 14.9175 11.8019 14.9175L34.5642 14.9175C35.0779 14.9175 35.4942 15.2662 35.4942 15.6967ZM34.5642 23.3321L11.8019 23.3321C11.2881 23.3321 10.8719 23.6809 10.8719 24.1114C10.8719 24.5415 11.2881 24.8903 11.8019 24.8903L34.5642 24.8903C35.0779 24.8903 35.4942 24.5415 35.4942 24.1114C35.4942 23.6809 35.0779 23.3321 34.5642 23.3321ZM45.8712 19.9041C45.8775 22.6193 45.1907 25.3039 43.8564 27.7782L46.3359 36.9979C46.4013 37.2444 46.3206 37.5017 46.1187 37.689C45.9192 37.8767 45.6237 37.9717 45.3257 37.9435L33.6596 36.9045L33.6591 36.9045C29.2292 38.8682 24.1529 39.5617 19.2082 38.879C14.2631 38.1968 9.72073 36.1755 6.27551 33.1249C2.83091 30.0746 0.673907 26.1626 0.133642 21.9872C-0.406574 17.8117 0.700299 13.6032 3.28504 10.0051C5.86936 6.40672 9.78926 3.61698 14.4456 2.06246C19.1014 0.507937 24.2368 0.273903 29.0663 1.39675C33.8961 2.51918 38.1539 4.93633 41.1885 8.27858C44.2236 11.6208 45.8683 15.704 45.8716 19.904L45.8712 19.9041ZM42.0339 27.3626C43.3412 25.0292 44.0164 22.482 44.0111 19.9041C44.0121 16.0347 42.4963 12.2727 39.6971 9.19524C36.8975 6.11795 32.9698 3.89649 28.5174 2.87158C24.0649 1.84704 19.3336 2.07579 15.052 3.5232C10.7696 4.9706 7.17318 7.5561 4.81477 10.8827C2.45684 14.2093 1.46773 18.0928 1.99975 21.9359C2.5318 25.7791 4.55528 29.3698 7.75946 32.1559C10.9633 34.942 15.1706 36.7692 19.7346 37.3567C24.2986 37.9443 28.9664 37.2597 33.0204 35.4084C33.1872 35.3331 33.3775 35.3025 33.5659 35.3198L44.228 36.2807L41.9714 27.8661L41.9714 27.8665C41.9248 27.6974 41.9469 27.5201 42.0334 27.3623L42.0339 27.3626Z" fill="black"/>
</svg>
