<svg width="31" height="36" viewBox="0 0 31 36" fill="none" xmlns="http://www.w3.org/2000/svg">
<path fill-rule="evenodd" clip-rule="evenodd" d="M28.4069 3.91959C26.8778 2.07916 24.6737 0.901855 22.3571 0.901855C20.9922 0.901855 19.7099 1.27988 18.4765 2.03918C17.2438 2.7993 16.2422 3.83725 15.4526 5.15703C14.663 3.83721 13.6614 2.7992 12.4274 2.03918C11.194 1.27988 9.91301 0.901855 8.54823 0.901855C6.22948 0.901855 4.02811 2.0791 2.49842 3.91959C0.969368 5.75676 -1.03484e-09 8.43315 -1.42204e-09 11.2511C-1.68825e-09 13.1885 0.339195 15.0697 0.756816 16.4857C0.963945 17.1863 1.27565 17.9489 1.69327 18.7229C2.11491 19.5067 2.49835 20.1609 2.82682 20.6815C3.15596 21.1988 3.62518 21.8506 4.25731 22.5977C4.89078 23.3489 5.40761 23.9379 5.78636 24.3566C6.16443 24.777 6.74025 25.397 7.49505 26.1938C8.36715 27.1144 8.98855 27.7988 9.38546 28.2338C9.77626 28.6583 10.3394 29.3117 11.0794 30.1712C12.5763 31.909 13.6736 33.5099 14.7127 35.3455C14.9064 35.6885 15.1564 35.8449 15.4527 35.8449C15.7644 35.8449 16.0352 35.6901 16.2249 35.3455C16.8892 34.1324 17.6581 32.8915 18.5591 31.6704C19.4668 30.4353 20.2236 29.4763 20.8283 28.7911C21.4396 28.0986 22.3198 27.1308 23.4587 25.8948C24.1619 25.1306 24.7236 24.5562 25.1023 24.1383C25.4804 23.7179 25.9738 23.1386 26.5818 22.3981C27.1898 21.6591 27.6711 21.0245 28.0116 20.4998C28.3608 19.9653 28.7309 19.3176 29.1465 18.5437C29.9965 16.9599 30.3678 15.7067 30.6748 13.9487C30.8283 13.0697 30.9054 12.1686 30.9054 11.2512C30.9054 8.43303 29.9346 5.75663 28.4069 3.91959ZM28.9324 13.2888C28.616 15.5056 27.6621 17.6801 26.0714 19.821C25.3776 20.7555 24.1032 22.2439 22.2425 24.2564C21.2765 25.3008 20.4997 26.1547 19.891 26.8349C19.2984 27.4948 18.5711 28.3877 17.7051 29.5112C16.845 30.6249 16.0936 31.7305 15.4527 32.8084C14.7784 31.7485 14.0021 30.6748 13.1185 29.5715C12.227 28.4586 11.5399 27.6129 11.0311 27.0541C10.521 26.4936 9.7454 25.6609 8.68028 24.5171L7.54473 23.2975L6.51107 22.1585C6.06194 21.6656 5.71605 21.2656 5.49149 20.9601C5.27229 20.666 4.98135 20.2814 4.62005 19.8007C4.25874 19.3225 3.97988 18.9021 3.79822 18.5624C3.42149 17.8634 2.78131 16.8189 2.54803 15.9464L2.1713 14.5271C1.89579 13.4924 1.80864 12.4292 1.80864 11.2512C1.80864 9.0139 2.46624 7.09531 3.78074 5.51731C5.11337 3.91966 6.69205 3.12047 8.54814 3.12047C9.84792 3.12047 11.0466 3.53842 12.1498 4.39794C13.2505 5.25746 14.0998 6.38909 14.6475 7.8132C14.8071 8.22707 15.0759 8.4332 15.4526 8.4332C15.8307 8.4332 16.1236 8.24174 16.2919 7.8132C16.8469 6.40213 17.6393 5.25743 18.7407 4.39794C19.8421 3.53842 21.0594 3.12047 22.3571 3.12047C24.2146 3.12047 25.7939 3.91969 27.1091 5.49707C28.4243 7.07435 29.0819 8.99305 29.0819 11.2514C29.0799 11.9504 29.0269 12.6291 28.9324 13.289L28.9324 13.2888Z" fill="black"/>
</svg>
