<svg width="45" height="44" viewBox="0 0 45 44" fill="none" xmlns="http://www.w3.org/2000/svg">
<path d="M33.9166 17.5759C33.9166 18.0581 33.5189 18.4492 33.028 18.4492L11.2774 18.4492C10.7864 18.4492 10.3887 18.0581 10.3887 17.5759C10.3887 17.0932 10.7864 16.7021 11.2774 16.7021L33.028 16.7021C33.5189 16.7021 33.9166 17.0932 33.9166 17.5759ZM33.028 26.1368L11.2774 26.1368C10.7864 26.1368 10.3887 26.5278 10.3887 27.0105C10.3887 27.4927 10.7864 27.8838 11.2774 27.8838L33.028 27.8838C33.5189 27.8838 33.9166 27.4927 33.9166 27.0105C33.9166 26.5278 33.5189 26.1368 33.028 26.1368ZM43.8325 22.2932C43.8385 25.3375 43.1822 28.3475 41.9073 31.1218L44.2766 41.459C44.339 41.7354 44.2619 42.0239 44.069 42.2339C43.8784 42.4443 43.5959 42.5509 43.3112 42.5193L32.1636 41.3543L32.1631 41.3543C27.9301 43.556 23.0794 44.3335 18.3545 43.5682C13.6292 42.8033 9.2887 40.5369 5.9966 37.1166C2.70509 33.6966 0.643955 29.3103 0.127702 24.6288C-0.388504 19.9472 0.669175 15.2286 3.13904 11.1943C5.6085 7.15981 9.35419 4.03192 13.8035 2.28897C18.2524 0.546023 23.1596 0.283621 27.7745 1.54257C32.3896 2.80106 36.4581 5.51119 39.3579 9.25856C42.2581 13.0059 43.8297 17.5841 43.8329 22.2931L43.8325 22.2932ZM40.1657 30.6558C41.4149 28.0396 42.0601 25.1836 42.0551 22.2932C42.056 17.9548 40.6075 13.7368 37.9328 10.2863C35.2576 6.83604 31.5045 4.34531 27.25 3.19617C22.9953 2.04744 18.4744 2.30392 14.383 3.92677C10.291 5.54961 6.85437 8.44851 4.60078 12.1783C2.34765 15.9081 1.4025 20.2624 1.91088 24.5713C2.41927 28.8803 4.35282 32.9063 7.4146 36.0301C10.476 39.1539 14.4964 41.2026 18.8575 41.8613C23.2187 42.5201 27.679 41.7525 31.5528 39.6768C31.7122 39.5924 31.894 39.5581 32.0741 39.5775L42.2623 40.6549L40.106 31.2203L40.106 31.2208C40.0615 31.0311 40.0826 30.8324 40.1653 30.6554L40.1657 30.6558Z" fill="black"/>
</svg>
