<svg width="32" height="32" viewBox="0 0 32 32" fill="none" xmlns="http://www.w3.org/2000/svg">
<path d="M15.5525 0.311157C14.0965 0.311157 12.8862 1.53014 12.8862 3.03962V13.4111H2.75122C1.27615 13.4111 0.0849609 14.6496 0.0849609 16.1586C0.0849609 17.6486 1.27615 18.8871 2.75122 18.8871H12.8862V29.2585C12.8862 30.768 14.0965 31.987 15.5525 31.987C17.0276 31.987 18.2374 30.768 18.2374 29.2585V18.8871H28.3724C29.8475 18.8871 31.0387 17.6486 31.0387 16.1586C31.0387 14.6491 29.8475 13.4111 28.3724 13.4111H18.2374V3.03962C18.2374 1.53014 17.0271 0.311157 15.5525 0.311157Z" fill="black"/>
</svg>
