<svg width="31" height="36" viewBox="0 0 31 36" fill="none" xmlns="http://www.w3.org/2000/svg">
<path fill-rule="evenodd" clip-rule="evenodd" d="M28.4069 3.85855C26.8778 2.01813 24.6737 0.84082 22.3571 0.84082C20.9922 0.84082 19.7099 1.21884 18.4765 1.97815C17.2438 2.73826 16.2422 3.77621 15.4526 5.09599C14.663 3.77617 13.6614 2.73816 12.4274 1.97815C11.194 1.21884 9.91301 0.84082 8.54823 0.84082C6.22948 0.84082 4.02811 2.01807 2.49842 3.85855C0.969368 5.69572 -1.03484e-09 8.37212 -1.42204e-09 11.19C-1.68825e-09 13.1274 0.339195 15.0087 0.756816 16.4246C0.963945 17.1253 1.27565 17.8878 1.69327 18.6619C2.11491 19.4457 2.49835 20.0999 2.82682 20.6205C3.15596 21.1378 3.62518 21.7896 4.25731 22.5367C4.89078 23.2878 5.40761 23.8769 5.78636 24.2956C6.16443 24.716 6.74025 25.336 7.49505 26.1328C8.36715 27.0534 8.98855 27.7378 9.38546 28.1728C9.77626 28.5973 10.3394 29.2507 11.0794 30.1102C12.5763 31.848 13.6736 33.4489 14.7127 35.2845C14.9064 35.6275 15.1564 35.7839 15.4527 35.7839C15.7644 35.7839 16.0352 35.6291 16.2249 35.2845C16.8892 34.0714 17.6581 32.8305 18.5591 31.6094C19.4668 30.3743 20.2236 29.4152 20.8283 28.7301C21.4396 28.0376 22.3198 27.0697 23.4587 25.8338C24.1619 25.0696 24.7236 24.4952 25.1023 24.0772C25.4804 23.6569 25.9738 23.0776 26.5818 22.337C27.1898 21.5981 27.6711 20.9634 28.0116 20.4387C28.3608 19.9043 28.7309 19.2566 29.1465 18.4826C29.9965 16.8988 30.3678 15.6457 30.6748 13.8877C30.8283 13.0087 30.9054 12.1076 30.9054 11.1901C30.9054 8.37199 29.9346 5.6956 28.4069 3.85855ZM28.9324 13.2277C28.616 15.4446 27.6621 17.6191 26.0714 19.76C25.3776 20.6945 24.1032 22.1829 22.2425 24.1954C21.2765 25.2398 20.4997 26.0936 19.891 26.7738C19.2984 27.4338 18.5711 28.3267 17.7051 29.4502C16.845 30.5639 16.0936 31.6695 15.4527 32.7474C14.7784 31.6874 14.0021 30.6137 13.1185 29.5104C12.227 28.3976 11.5399 27.5519 11.0311 26.993C10.521 26.4325 9.7454 25.5999 8.68028 24.4561L7.54473 23.2364L6.51107 22.0975C6.06194 21.6046 5.71605 21.2046 5.49149 20.899C5.27229 20.6049 4.98135 20.2204 4.62005 19.7397C4.25874 19.2615 3.97988 18.8411 3.79822 18.5014C3.42149 17.8023 2.78131 16.7579 2.54803 15.8853L2.1713 14.4661C1.89579 13.4314 1.80864 12.3681 1.80864 11.1901C1.80864 8.95287 2.46624 7.03428 3.78074 5.45627C5.11337 3.85862 6.69205 3.05944 8.54814 3.05944C9.84792 3.05944 11.0466 3.47738 12.1498 4.3369C13.2505 5.19642 14.0998 6.32805 14.6475 7.75216C14.8071 8.16604 15.0759 8.37216 15.4526 8.37216C15.8307 8.37216 16.1236 8.18071 16.2919 7.75216C16.8469 6.34109 17.6393 5.1964 18.7407 4.3369C19.8421 3.47738 21.0594 3.05944 22.3571 3.05944C24.2146 3.05944 25.7939 3.85866 27.1091 5.43604C28.4243 7.01332 29.0819 8.93201 29.0819 11.1904C29.0799 11.8894 29.0269 12.568 28.9324 13.2279L28.9324 13.2277Z" fill="black"/>
</svg>
