<svg width="44" height="38" viewBox="0 0 44 38" fill="none" xmlns="http://www.w3.org/2000/svg">
<path fill-rule="evenodd" clip-rule="evenodd" d="M40.061 3.28173C37.9236 1.2803 34.8427 0 31.6045 0C29.6967 0 27.9042 0.411094 26.1802 1.23682C24.457 2.06344 23.057 3.19219 21.9534 4.62743C20.8496 3.19214 19.4496 2.06332 17.7246 1.23682C16.0006 0.411094 14.21 0 12.3023 0C9.06113 0 5.98403 1.28024 3.8458 3.28173C1.70848 5.27962 0.353485 8.19016 0.353485 11.2546C0.353485 13.3615 0.827616 15.4073 1.41137 16.9471C1.7009 17.7091 2.13661 18.5383 2.72036 19.3801C3.30973 20.2324 3.8457 20.9439 4.30485 21.51C4.76492 22.0726 5.42081 22.7814 6.30441 23.5939C7.18988 24.4107 7.91231 25.0513 8.44174 25.5067C8.9702 25.9638 9.7751 26.6381 10.8302 27.5046C12.0492 28.5057 12.9178 29.25 13.4726 29.7231C14.0189 30.1847 14.806 30.8952 15.8404 31.8299C17.9328 33.7197 19.4666 35.4607 20.919 37.4569C21.1898 37.8299 21.5393 38 21.9535 38C22.3892 38 22.7677 37.8317 23.0329 37.4569C23.9615 36.1377 25.0362 34.7882 26.2957 33.4603C27.5644 32.1171 28.6222 31.0742 29.4675 30.3291C30.3221 29.576 31.5523 28.5235 33.1443 27.1794C34.1272 26.3483 34.9124 25.7237 35.4418 25.2692C35.9703 24.8121 36.6599 24.1821 37.5098 23.3767C38.3597 22.5732 39.0324 21.883 39.5084 21.3124C39.9966 20.7312 40.5138 20.0268 41.0948 19.1852C42.2829 17.4628 42.802 16.1001 43.2311 14.1883C43.4457 13.2323 43.5535 12.2524 43.5535 11.2547C43.5535 8.19002 42.1965 5.27949 40.061 3.28173ZM40.7956 13.4706C40.3533 15.8813 39.0199 18.2461 36.7964 20.5743C35.8266 21.5905 34.0453 23.2092 31.4443 25.3977C30.0941 26.5335 29.0082 27.462 28.1573 28.2017C27.329 28.9194 26.3124 29.8904 25.1018 31.1122C23.8997 32.3233 22.8493 33.5257 21.9535 34.6978C21.0109 33.5452 19.9258 32.3776 18.6907 31.1777C17.4445 29.9675 16.4841 29.0478 15.7729 28.4401C15.0598 27.8305 13.9757 26.9251 12.4869 25.6812L10.8996 24.3548L9.45474 23.1163C8.82694 22.5802 8.34345 22.1452 8.02956 21.813C7.72316 21.4931 7.31648 21.075 6.81145 20.5522C6.3064 20.0321 5.91661 19.575 5.66268 19.2055C5.13608 18.4453 4.24123 17.3095 3.91515 16.3606L3.38856 14.8172C3.00344 13.6921 2.88163 12.5357 2.88163 11.2547C2.88163 8.82171 3.80083 6.73528 5.63826 5.01923C7.50102 3.28181 9.70771 2.41271 12.3022 2.41271C14.119 2.41271 15.7945 2.86722 17.3367 3.80193C18.8752 4.73664 20.0623 5.96727 20.828 7.51596C21.051 7.96605 21.4268 8.1902 21.9534 8.1902C22.4818 8.1902 22.8913 7.982 23.1265 7.51596C23.9023 5.98145 25.0099 4.73662 26.5495 3.80193C28.089 2.86722 29.7906 2.41271 31.6046 2.41271C34.201 2.41271 36.4085 3.28185 38.2469 4.99722C40.0853 6.71248 41.0045 8.79903 41.0045 11.2549C41.0017 12.0151 40.9277 12.7531 40.7955 13.4708L40.7956 13.4706Z" fill="black"/>
</svg>
