<svg width="32" height="33" viewBox="0 0 32 33" fill="none" xmlns="http://www.w3.org/2000/svg">
<path d="M15.8015 0.700439C14.3455 0.700439 13.1353 1.91942 13.1353 3.4289V13.8004H3.00024C1.52518 13.8004 0.333984 15.0388 0.333984 16.5479C0.333984 18.0379 1.52518 19.2764 3.00024 19.2764H13.1353V29.6478C13.1353 31.1573 14.3455 32.3763 15.8015 32.3763C17.2766 32.3763 18.4864 31.1573 18.4864 29.6478V19.2764H28.6214C30.0965 19.2764 31.2877 18.0379 31.2877 16.5479C31.2877 15.0384 30.0965 13.8004 28.6214 13.8004H18.4864V3.4289C18.4864 1.91942 17.2762 0.700439 15.8015 0.700439Z" fill="black"/>
</svg>
