<svg width="35" height="34" viewBox="0 0 35 34" fill="none" xmlns="http://www.w3.org/2000/svg">
<path fill-rule="evenodd" clip-rule="evenodd" d="M31.2702 2.91329C29.5873 1.13656 27.1614 3.51184e-09 24.6116 3.18211e-09C23.1095 2.98785e-09 21.698 0.364941 20.3406 1.09796C18.9838 1.83177 17.8814 2.8338 17.0124 4.1079C16.1433 2.83376 15.041 1.83167 13.6828 1.09796C12.3252 0.364941 10.9154 1.41093e-09 9.41327 1.21668e-09C6.8612 8.8665e-10 4.43832 1.1365 2.7547 2.91329C1.07179 4.68688 0.00488281 7.27065 0.00488281 9.99105C0.00488281 11.8614 0.378209 13.6775 0.837853 15.0445C1.06582 15.7209 1.40889 16.457 1.86854 17.2043C2.3326 17.9609 2.75462 18.5925 3.11615 19.0951C3.47841 19.5945 3.99485 20.2237 4.69058 20.945C5.38779 21.6701 5.95663 22.2388 6.37349 22.643C6.7896 23.0489 7.42337 23.6474 8.25411 24.4166C9.21397 25.3054 9.8979 25.9661 10.3347 26.386C10.7649 26.7958 11.3846 27.4266 12.1991 28.2564C13.8466 29.934 15.0544 31.4795 16.198 33.2516C16.4112 33.5827 16.6864 33.7337 17.0125 33.7337C17.3556 33.7337 17.6536 33.5843 17.8624 33.2516C18.5936 32.0805 19.4398 30.8825 20.4315 29.7037C21.4305 28.5113 22.2634 27.5855 22.929 26.9241C23.6019 26.2555 24.5706 25.3212 25.824 24.128C26.598 23.3902 27.2163 22.8357 27.6331 22.4322C28.0492 22.0264 28.5922 21.4672 29.2614 20.7522C29.9306 20.0389 30.4603 19.4262 30.8351 18.9196C31.2195 18.4037 31.6268 17.7784 32.0842 17.0312C33.0197 15.5022 33.4284 14.2925 33.7663 12.5953C33.9353 11.7467 34.0201 10.8768 34.0201 9.99113C34.0201 7.27052 32.9517 4.68676 31.2702 2.91329ZM31.8486 11.9582C31.5003 14.0983 30.4505 16.1976 28.6997 18.2644C27.9361 19.1665 26.5335 20.6034 24.4855 22.5462C23.4224 23.5546 22.5673 24.3788 21.8974 25.0355C21.2452 25.6726 20.4447 26.5346 19.4915 27.6192C18.5449 28.6943 17.7179 29.7617 17.0125 30.8023C16.2703 29.779 15.416 28.7425 14.4435 27.6774C13.4622 26.603 12.706 25.7866 12.146 25.2471C11.5845 24.706 10.7309 23.9022 9.5586 22.7979L8.30879 21.6205L7.17112 20.521C6.6768 20.0451 6.29611 19.659 6.04895 19.364C5.8077 19.0801 5.48748 18.7089 5.08983 18.2448C4.69215 17.7831 4.38523 17.3773 4.18529 17.0493C3.77065 16.3745 3.06606 15.3662 2.8093 14.5238L2.39467 13.1537C2.09143 12.1548 1.99552 11.1284 1.99552 9.99114C1.99552 7.83129 2.71929 5.97911 4.16606 4.45571C5.63278 2.91336 7.37031 2.14183 9.41317 2.14183C10.8437 2.14183 12.163 2.54531 13.3773 3.37508C14.5887 4.20486 15.5234 5.29732 16.1263 6.67214C16.3019 7.0717 16.5978 7.27068 17.0124 7.27068C17.4285 7.27068 17.7509 7.08586 17.9361 6.67214C18.547 5.30991 19.4191 4.20484 20.6313 3.37508C21.8435 2.54531 23.1834 2.14183 24.6117 2.14183C26.6561 2.14183 28.3943 2.91339 29.8418 4.43618C31.2893 5.95887 32.0131 7.81116 32.0131 9.99135C32.0109 10.6662 31.9526 11.3213 31.8486 11.9584L31.8486 11.9582Z" fill="black"/>
</svg>
