<svg width="48" height="31" viewBox="0 0 48 31" fill="none" xmlns="http://www.w3.org/2000/svg">
<path d="M14.2624 29.7249C14.679 30.1288 15.226 30.3319 15.773 30.3319C16.32 30.3319 16.867 30.1288 17.2836 29.7249C18.119 28.9149 18.119 27.6056 17.2836 26.7956L7.85664 17.6558H45.4321C46.6115 17.6558 47.5687 16.7277 47.5687 15.5842C47.5687 14.4407 46.6115 13.5126 45.4321 13.5126H7.85664L17.2836 4.37273C18.119 3.56273 18.119 2.25349 17.2836 1.44349C16.4482 0.6335 15.0978 0.6335 14.2624 1.44349L1.1881 14.1196C0.352664 14.9296 0.352664 16.2388 1.1881 17.0488L14.2624 29.7249Z" fill="black"/>
</svg>
