<svg width="56" height="50" viewBox="0 0 56 50" fill="none" xmlns="http://www.w3.org/2000/svg">
<path d="M42.8244 19.7626C42.8244 20.3091 42.3264 20.7522 41.7118 20.7522H14.4811C13.8664 20.7522 13.3685 20.3091 13.3685 19.7626C13.3685 19.2157 13.8664 18.7726 14.4811 18.7726H41.7118C42.3264 18.7726 42.8244 19.2157 42.8244 19.7626ZM41.7118 29.4631H14.4811C13.8664 29.4631 13.3685 29.9062 13.3685 30.4532C13.3685 30.9996 13.8664 31.4427 14.4811 31.4427H41.7118C42.3264 31.4427 42.8244 30.9996 42.8244 30.4532C42.8244 29.9062 42.3264 29.4631 41.7118 29.4631ZM55.2385 25.1079C55.246 28.5575 54.4244 31.9682 52.8282 35.1118L55.7945 46.8252C55.8727 47.1383 55.7761 47.4652 55.5346 47.7032C55.296 47.9416 54.9424 48.0623 54.5859 48.0265L40.6296 46.7065H40.6291C35.3295 49.2013 29.2566 50.0823 23.3412 49.2151C17.4254 48.3483 11.9913 45.7803 7.86977 41.9046C3.74895 38.0293 1.16851 33.0592 0.522182 27.7544C-0.124084 22.4496 1.20008 17.1029 4.29224 12.5315C7.38388 7.95993 12.0733 4.41564 17.6437 2.44067C23.2135 0.465701 29.357 0.168368 35.1346 1.59491C40.9125 3.02093 46.0062 6.09185 49.6365 10.3381C53.2675 14.5843 55.235 19.7719 55.239 25.1078L55.2385 25.1079ZM50.6479 34.5838C52.2118 31.6193 53.0196 28.3831 53.0133 25.1079C53.0144 20.192 51.201 15.4125 47.8524 11.5027C44.5032 7.59306 39.8045 4.77075 34.478 3.46865C29.1514 2.167 23.4913 2.45761 18.3692 4.2965C13.2461 6.13538 8.94366 9.42019 6.12226 13.6465C3.30145 17.8728 2.11817 22.8067 2.75463 27.6893C3.39112 32.5719 5.81183 37.1339 9.64503 40.6736C13.4778 44.2131 18.5111 46.5345 23.971 47.281C29.431 48.0275 35.0151 47.1577 39.8649 44.8057C40.0645 44.71 40.2921 44.6711 40.5175 44.6931L53.2727 45.9139L50.5732 35.2234V35.224C50.5174 35.0091 50.5439 34.7839 50.6474 34.5834L50.6479 34.5838Z" fill="black"/>
</svg>
