<svg width="32" height="33" viewBox="0 0 32 33" fill="none" xmlns="http://www.w3.org/2000/svg">
<path d="M16.0515 0.671509C14.5955 0.671509 13.3853 1.89049 13.3853 3.39997V13.7714H3.25024C1.77518 13.7714 0.583984 15.0099 0.583984 16.519C0.583984 18.0089 1.77518 19.2474 3.25024 19.2474H13.3853V29.6189C13.3853 31.1284 14.5955 32.3473 16.0515 32.3473C17.5266 32.3473 18.7364 31.1284 18.7364 29.6189V19.2474H28.8714C30.3465 19.2474 31.5377 18.0089 31.5377 16.519C31.5377 15.0095 30.3465 13.7714 28.8714 13.7714H18.7364V3.39997C18.7364 1.89049 17.5262 0.671509 16.0515 0.671509Z" fill="black"/>
</svg>
