<svg width="45" height="44" viewBox="0 0 45 44" fill="none" xmlns="http://www.w3.org/2000/svg">
<path d="M33.9166 17.5148C33.9166 17.9971 33.5189 18.3881 33.028 18.3881L11.2774 18.3881C10.7864 18.3881 10.3887 17.9971 10.3887 17.5148C10.3887 17.0321 10.7864 16.6411 11.2774 16.6411L33.028 16.6411C33.5189 16.6411 33.9166 17.0321 33.9166 17.5148ZM33.028 26.0757L11.2774 26.0757C10.7864 26.0757 10.3887 26.4668 10.3887 26.9495C10.3887 27.4317 10.7864 27.8228 11.2774 27.8228L33.028 27.8228C33.5189 27.8228 33.9166 27.4317 33.9166 26.9495C33.9166 26.4668 33.5189 26.0757 33.028 26.0757ZM43.8325 22.2322C43.8385 25.2765 43.1822 28.2865 41.9073 31.0608L44.2766 41.398C44.339 41.6743 44.2619 41.9629 44.069 42.1728C43.8784 42.3833 43.5959 42.4898 43.3112 42.4582L32.1636 41.2933L32.1631 41.2933C27.9301 43.495 23.0794 44.2725 18.3545 43.5071C13.6292 42.7422 9.2887 40.4759 5.9966 37.0555C2.70509 33.6355 0.643955 29.2493 0.127702 24.5678C-0.388504 19.8862 0.669175 15.1676 3.13904 11.1333C5.6085 7.09877 9.35419 3.97088 13.8035 2.22793C18.2524 0.484988 23.1596 0.222586 27.7745 1.48153C32.3896 2.74002 36.4581 5.45016 39.3579 9.19753C42.2581 12.9449 43.8297 17.523 43.8329 22.232L43.8325 22.2322ZM40.1657 30.5948C41.4149 27.9785 42.0601 25.1225 42.0551 22.2322C42.056 17.8938 40.6075 13.6758 37.9328 10.2253C35.2576 6.775 31.5045 4.28427 27.25 3.13514C22.9953 1.98641 18.4744 2.24288 14.383 3.86573C10.291 5.48858 6.85437 8.38748 4.60078 12.1173C2.34765 15.8471 1.4025 20.2013 1.91088 24.5103C2.41927 28.8193 4.35282 32.8453 7.4146 35.9691C10.476 39.0928 14.4964 41.1415 18.8575 41.8003C23.2187 42.4591 27.679 41.6915 31.5528 39.6158C31.7122 39.5313 31.894 39.497 32.0741 39.5164L42.2623 40.5938L40.106 31.1593L40.106 31.1597C40.0615 30.9701 40.0826 30.7714 40.1653 30.5944L40.1657 30.5948Z" fill="black"/>
</svg>
