<svg width="59" height="45" viewBox="0 0 59 45" fill="none" xmlns="http://www.w3.org/2000/svg">
<path d="M44.8618 17.7907C44.8618 18.2781 44.3408 18.6733 43.6975 18.6733H15.2002C14.557 18.6733 14.0359 18.2781 14.0359 17.7907C14.0359 17.3029 14.557 16.9077 15.2002 16.9077H43.6975C44.3408 16.9077 44.8618 17.3029 44.8618 17.7907ZM43.6975 26.4425H15.2002C14.557 26.4425 14.0359 26.8377 14.0359 27.3256C14.0359 27.8129 14.557 28.2081 15.2002 28.2081H43.6975C44.3408 28.2081 44.8618 27.8129 44.8618 27.3256C44.8618 26.8377 44.3408 26.4425 43.6975 26.4425ZM57.8534 22.5582C57.8612 25.6348 57.0014 28.6768 55.331 31.4805L58.4352 41.9276C58.5171 42.2069 58.416 42.4985 58.1633 42.7107C57.9135 42.9233 57.5435 43.031 57.1704 42.9991L42.565 41.8217H42.5644C37.0184 44.0469 30.6631 44.8326 24.4725 44.0591C18.2815 43.2861 12.5947 40.9957 8.28145 37.539C3.96897 34.0827 1.2685 29.6498 0.592118 24.9186C-0.0842071 20.1872 1.30155 15.4185 4.53753 11.3414C7.77297 7.264 12.6805 4.10288 18.51 2.34142C24.3388 0.579962 30.7681 0.314773 36.8145 1.5871C42.8611 2.85895 48.1916 5.59787 51.9909 9.38505C55.7907 13.1722 57.8498 17.799 57.8539 22.558L57.8534 22.5582ZM53.0492 31.0096C54.6859 28.3656 55.5313 25.4792 55.5247 22.5582C55.5259 18.1737 53.6281 13.9109 50.1237 10.4237C46.6187 6.9368 41.7015 4.4196 36.1273 3.25826C30.5529 2.09733 24.6296 2.35653 19.2692 3.99662C13.9079 5.6367 9.40529 8.5664 6.45267 12.3358C3.50066 16.1052 2.26234 20.5057 2.9284 24.8604C3.5945 29.2153 6.1278 33.284 10.1393 36.441C14.1503 39.5979 19.4177 41.6684 25.1316 42.3342C30.8456 43 36.6893 42.2242 41.7648 40.1264C41.9736 40.0411 42.2119 40.0064 42.4477 40.026L55.7962 41.1149L52.9711 31.5801V31.5806C52.9127 31.3889 52.9404 31.1881 53.0487 31.0092L53.0492 31.0096Z" fill="black"/>
</svg>
