<svg width="24" height="31" viewBox="0 0 24 31" fill="none" xmlns="http://www.w3.org/2000/svg">
<path d="M3.42862 25.0942C3.42862 25.4751 3.72371 25.588 4.08724 25.3469L11.3421 20.5267C11.7056 20.2851 12.2958 20.2851 12.6587 20.5267L19.9142 25.3469C20.2777 25.5885 20.5722 25.4757 20.5722 25.0942V3.42328C20.5722 3.0423 20.182 2.73339 19.7221 2.73339H4.27871C3.80951 2.73339 3.42869 3.04177 3.42869 3.42328L3.42862 25.0942ZM1.31857 30.7446C0.590174 31.2284 0 31.0032 0 30.2519V1.36867C0 0.613081 0.771611 0 1.70665 0H22.2933C23.2358 0 24 0.617299 24 1.36867V30.2519C24 31.0075 23.4052 31.2252 22.6814 30.7446L12.6618 24.0874C12.2963 23.8447 11.7028 23.8447 11.3373 24.0874L1.31857 30.7446Z" fill="black"/>
</svg>
