<svg width="53" height="52" viewBox="0 0 53 52" fill="none" xmlns="http://www.w3.org/2000/svg">
<path d="M51.7398 17.2766C51.1069 17.2766 50.594 17.7761 50.594 18.3925V47.6764C50.6002 48.0807 50.4376 48.4706 50.1442 48.7563C49.8507 49.0421 49.4504 49.2005 49.0353 49.1944H4.02264C3.60753 49.2005 3.20777 49.0421 2.91378 48.7563C2.62037 48.4706 2.4583 48.0807 2.46456 47.6764V3.83979C2.4583 3.43552 2.62037 3.0462 2.91378 2.7599C3.20777 2.47415 3.60753 2.31631 4.02264 2.32241H34.0922C34.7251 2.32241 35.238 1.82235 35.238 1.20597C35.238 0.589601 34.7251 0.0900879 34.0922 0.0900879H4.02264C3.00193 0.0900879 2.02218 0.485499 1.29999 1.18825C0.578383 1.89156 0.172363 2.84568 0.172363 3.83977V47.6764C0.172363 48.671 0.578383 49.6246 1.29999 50.3279C2.02216 51.0312 3.00188 51.4261 4.02264 51.4261H49.0353C50.0566 51.4261 51.0358 51.0312 51.758 50.3279C52.4801 49.6246 52.8856 48.6709 52.8856 47.6764V18.3924C52.8856 18.0967 52.765 17.8126 52.5501 17.6033C52.3351 17.394 52.0434 17.2766 51.7398 17.2766Z" fill="black"/>
</svg>
