<svg width="32" height="32" viewBox="0 0 32 32" fill="none" xmlns="http://www.w3.org/2000/svg">
<path d="M15.575 0.2229C14.119 0.2229 12.9087 1.44188 12.9087 2.95136V13.3228H2.77368C1.29862 13.3228 0.107422 14.5613 0.107422 16.0704C0.107422 17.5603 1.29862 18.7988 2.77368 18.7988H12.9087V29.1703C12.9087 30.6797 14.119 31.8987 15.575 31.8987C17.05 31.8987 18.2599 30.6797 18.2599 29.1703V18.7988H28.3949C29.8699 18.7988 31.0611 17.5603 31.0611 16.0704C31.0611 14.5609 29.8699 13.3228 28.3949 13.3228H18.2599V2.95136C18.2599 1.44188 17.0496 0.2229 15.575 0.2229Z" fill="black"/>
</svg>
