<svg width="59" height="44" viewBox="0 0 59 44" fill="none" xmlns="http://www.w3.org/2000/svg">
<path d="M45.3794 17.1511C45.3794 17.6385 44.8583 18.0336 44.2151 18.0336H15.7178C15.0746 18.0336 14.5535 17.6385 14.5535 17.1511C14.5535 16.6632 15.0746 16.2681 15.7178 16.2681H44.2151C44.8583 16.2681 45.3794 16.6632 45.3794 17.1511ZM44.2151 25.8029H15.7178C15.0746 25.8029 14.5535 26.1981 14.5535 26.6859C14.5535 27.1733 15.0746 27.5685 15.7178 27.5685H44.2151C44.8583 27.5685 45.3794 27.1733 45.3794 26.6859C45.3794 26.1981 44.8583 25.8029 44.2151 25.8029ZM58.371 21.9185C58.3788 24.9952 57.519 28.0371 55.8486 30.8409L58.9528 41.2879C59.0346 41.5672 58.9336 41.8588 58.6808 42.071C58.4311 42.2837 58.0611 42.3914 57.688 42.3594L43.0826 41.1821H43.082C37.536 43.4072 31.1806 44.193 24.9901 43.4195C18.7991 42.6464 13.1123 40.356 8.79903 36.8993C4.48654 33.443 1.78608 29.0101 1.1097 24.2789C0.433371 19.5476 1.81912 14.7789 5.05511 10.7017C8.29055 6.62436 13.1981 3.46324 19.0275 1.70177C24.8564 -0.0596867 31.2857 -0.324876 37.332 0.947447C43.3787 2.2193 48.7092 4.95823 52.5084 8.7454C56.3083 12.5326 58.3673 17.1594 58.3715 21.9184L58.371 21.9185ZM53.5668 30.37C55.2035 27.7259 56.0489 24.8396 56.0422 21.9185C56.0434 17.534 54.1457 13.2713 50.6413 9.78409C47.1363 6.29715 42.2191 3.77996 36.6448 2.61862C31.0705 1.45768 25.1472 1.71688 19.7868 3.35697C14.4254 4.99705 9.92287 7.92675 6.97024 11.6962C4.01824 15.4656 2.77991 19.8661 3.44598 24.2208C4.11208 28.5756 6.64538 32.6443 10.6569 35.8014C14.6679 38.9583 19.9353 41.0287 25.6492 41.6945C31.3631 42.3603 37.2069 41.5845 42.2824 39.4868C42.4912 39.4015 42.7294 39.3668 42.9653 39.3864L56.3137 40.4752L53.4887 30.9405V30.9409C53.4303 30.7493 53.458 30.5485 53.5663 30.3696L53.5668 30.37Z" fill="black"/>
</svg>
