<svg width="31" height="36" viewBox="0 0 31 36" fill="none" xmlns="http://www.w3.org/2000/svg">
<path fill-rule="evenodd" clip-rule="evenodd" d="M28.4069 4.00211C26.8778 2.16168 24.6737 0.984375 22.3571 0.984375C20.9922 0.984375 19.7099 1.3624 18.4765 2.1217C17.2438 2.88182 16.2422 3.91977 15.4526 5.23955C14.663 3.91973 13.6614 2.88171 12.4274 2.1217C11.194 1.3624 9.91301 0.984375 8.54823 0.984375C6.22948 0.984375 4.02811 2.16162 2.49842 4.00211C0.969368 5.83928 -1.03484e-09 8.51567 -1.42204e-09 11.3336C-1.68825e-09 13.271 0.339195 15.1522 0.756816 16.5682C0.963945 17.2688 1.27565 18.0314 1.69327 18.8055C2.11491 19.5892 2.49835 20.2434 2.82682 20.764C3.15596 21.2814 3.62518 21.9331 4.25731 22.6802C4.89078 23.4314 5.40761 24.0204 5.78636 24.4392C6.16443 24.8596 6.74025 25.4796 7.49505 26.2763C8.36715 27.197 8.98855 27.8813 9.38546 28.3164C9.77626 28.7408 10.3394 29.3942 11.0794 30.2537C12.5763 31.9915 13.6736 33.5925 14.7127 35.428C14.9064 35.771 15.1564 35.9275 15.4527 35.9275C15.7644 35.9275 16.0352 35.7727 16.2249 35.428C16.8892 34.2149 17.6581 32.9741 18.5591 31.7529C19.4668 30.5178 20.2236 29.5588 20.8283 28.8737C21.4396 28.1812 22.3198 27.2133 23.4587 25.9773C24.1619 25.2131 24.7236 24.6387 25.1023 24.2208C25.4804 23.8004 25.9738 23.2211 26.5818 22.4806C27.1898 21.7416 27.6711 21.107 28.0116 20.5823C28.3608 20.0478 28.7309 19.4001 29.1465 18.6262C29.9965 17.0424 30.3678 15.7893 30.6748 14.0313C30.8283 13.1522 30.9054 12.2511 30.9054 11.3337C30.9054 8.51555 29.9346 5.83915 28.4069 4.00211ZM28.9324 13.3713C28.616 15.5881 27.6621 17.7626 26.0714 19.9036C25.3776 20.838 24.1032 22.3265 22.2425 24.3389C21.2765 25.3834 20.4997 26.2372 19.891 26.9174C19.2984 27.5773 18.5711 28.4702 17.7051 29.5937C16.845 30.7074 16.0936 31.8131 15.4527 32.8909C14.7784 31.831 14.0021 30.7573 13.1185 29.654C12.227 28.5411 11.5399 27.6954 11.0311 27.1366C10.521 26.5761 9.7454 25.7435 8.68028 24.5996L7.54473 23.38L6.51107 22.241C6.06194 21.7481 5.71605 21.3481 5.49149 21.0426C5.27229 20.7485 4.98135 20.3639 4.62005 19.8833C4.25874 19.405 3.97988 18.9846 3.79822 18.6449C3.42149 17.9459 2.78131 16.9014 2.54803 16.0289L2.1713 14.6096C1.89579 13.575 1.80864 12.5117 1.80864 11.3337C1.80864 9.09642 2.46624 7.17783 3.78074 5.59983C5.11337 4.00217 6.69205 3.20299 8.54814 3.20299C9.84792 3.20299 11.0466 3.62094 12.1498 4.48046C13.2505 5.33998 14.0998 6.47161 14.6475 7.89572C14.8071 8.30959 15.0759 8.51572 15.4526 8.51572C15.8307 8.51572 16.1236 8.32426 16.2919 7.89572C16.8469 6.48464 17.6393 5.33995 18.7407 4.48046C19.8421 3.62094 21.0594 3.20299 22.3571 3.20299C24.2146 3.20299 25.7939 4.00221 27.1091 5.57959C28.4243 7.15687 29.0819 9.07557 29.0819 11.3339C29.0799 12.0329 29.0269 12.7116 28.9324 13.3715L28.9324 13.3713Z" fill="black"/>
</svg>
