<svg width="35" height="34" viewBox="0 0 35 34" fill="none" xmlns="http://www.w3.org/2000/svg">
<path fill-rule="evenodd" clip-rule="evenodd" d="M32.1881 2.91329C30.5052 1.13656 28.0794 3.51184e-09 25.5296 3.18211e-09C24.0274 2.98785e-09 22.616 0.364941 21.2585 1.09796C19.9018 1.83177 18.7994 2.8338 17.9304 4.1079C17.0613 2.83376 15.9589 1.83167 14.6007 1.09796C13.2432 0.364941 11.8334 1.41093e-09 10.3312 1.21668e-09C7.77917 8.8665e-10 5.35629 1.1365 3.67267 2.91329C1.98976 4.68688 0.922852 7.27065 0.922852 9.99105C0.922852 11.8614 1.29618 13.6775 1.75582 15.0445C1.98379 15.7209 2.32686 16.457 2.78651 17.2043C3.25057 17.9609 3.67259 18.5925 4.03412 19.0951C4.39638 19.5945 4.91282 20.2237 5.60855 20.945C6.30576 21.6701 6.8746 22.2388 7.29146 22.643C7.70757 23.0489 8.34134 23.6474 9.17208 24.4166C10.1319 25.3054 10.8159 25.9661 11.2527 26.386C11.6828 26.7958 12.3026 27.4266 13.1171 28.2564C14.7646 29.934 15.9723 31.4795 17.116 33.2516C17.3292 33.5827 17.6044 33.7337 17.9305 33.7337C18.2735 33.7337 18.5716 33.5843 18.7804 33.2516C19.5116 32.0805 20.3578 30.8825 21.3495 29.7037C22.3484 28.5113 23.1814 27.5855 23.847 26.9241C24.5198 26.2555 25.4885 25.3212 26.742 24.128C27.516 23.3902 28.1342 22.8357 28.5511 22.4322C28.9672 22.0264 29.5102 21.4672 30.1794 20.7522C30.8486 20.0389 31.3783 19.4262 31.7531 18.9196C32.1375 18.4037 32.5447 17.7784 33.0022 17.0312C33.9377 15.5022 34.3464 14.2925 34.6843 12.5953C34.8533 11.7467 34.9381 10.8768 34.9381 9.99113C34.9381 7.27052 33.8696 4.68676 32.1881 2.91329ZM32.7666 11.9582C32.4183 14.0983 31.3685 16.1976 29.6176 18.2644C28.854 19.1665 27.4514 20.6034 25.4035 22.5462C24.3403 23.5546 23.4853 24.3788 22.8153 25.0355C22.1631 25.6726 21.3626 26.5346 20.4095 27.6192C19.4629 28.6943 18.6358 29.7617 17.9305 30.8023C17.1883 29.779 16.3339 28.7425 15.3614 27.6774C14.3802 26.603 13.6239 25.7866 13.064 25.2471C12.5025 24.706 11.6489 23.9022 10.4766 22.7979L9.22676 21.6205L8.08909 20.521C7.59477 20.0451 7.21408 19.659 6.96691 19.364C6.72567 19.0801 6.40545 18.7089 6.00779 18.2448C5.61012 17.7831 5.3032 17.3773 5.10326 17.0493C4.68862 16.3745 3.98403 15.3662 3.72727 14.5238L3.31264 13.1537C3.0094 12.1548 2.91349 11.1284 2.91349 9.99114C2.91349 7.83129 3.63725 5.97911 5.08403 4.45571C6.55075 2.91336 8.28828 2.14183 10.3311 2.14183C11.7617 2.14183 13.081 2.54531 14.2952 3.37508C15.5067 4.20486 16.4414 5.29732 17.0443 6.67214C17.2199 7.0717 17.5157 7.27068 17.9304 7.27068C18.3465 7.27068 18.6689 7.08586 18.8541 6.67214C19.465 5.30991 20.337 4.20484 21.5493 3.37508C22.7615 2.54531 24.1014 2.14183 25.5297 2.14183C27.574 2.14183 29.3122 2.91339 30.7598 4.43618C32.2073 5.95887 32.9311 7.81116 32.9311 9.99135C32.9288 10.6662 32.8706 11.3213 32.7665 11.9584L32.7666 11.9582Z" fill="black"/>
</svg>
