<svg width="23" height="38" viewBox="0 0 23 38" fill="none" xmlns="http://www.w3.org/2000/svg">
<path d="M3.71696 29.9897C3.71696 30.445 3.99165 30.5799 4.33005 30.2918L11.0833 24.5312C11.4217 24.2425 11.9711 24.2425 12.3089 24.5312L19.0628 30.2918C19.4012 30.5805 19.6752 30.4457 19.6752 29.9897V4.09112C19.6752 3.63582 19.3121 3.26665 18.884 3.26665H4.50828C4.07152 3.26665 3.71703 3.63519 3.71703 4.09112L3.71696 29.9897ZM1.7528 36.7425C1.07476 37.3207 0.525391 37.0516 0.525391 36.1536V1.63568C0.525391 0.732685 1.24365 0 2.11405 0H21.2774C22.1547 0 22.8661 0.737727 22.8661 1.63568V36.1536C22.8661 37.0566 22.3124 37.3169 21.6387 36.7425L12.3118 28.7865C11.9716 28.4965 11.4191 28.4965 11.0788 28.7865L1.7528 36.7425Z" fill="black"/>
</svg>
