<svg width="49" height="42" viewBox="0 0 49 42" fill="none" xmlns="http://www.w3.org/2000/svg">
<path d="M37.3295 16.2355C37.3295 16.7011 36.8917 17.0786 36.3514 17.0786L12.4122 17.0786C11.8718 17.0786 11.4341 16.7011 11.4341 16.2355C11.4341 15.7695 11.8718 15.392 12.4122 15.392L36.3514 15.392C36.8917 15.392 37.3295 15.7695 37.3295 16.2355ZM36.3514 24.5001L12.4122 24.5001C11.8718 24.5001 11.4341 24.8776 11.4341 25.3436C11.4341 25.8092 11.8718 26.1867 12.4122 26.1867L36.3514 26.1867C36.8917 26.1867 37.3295 25.8092 37.3295 25.3436C37.3295 24.8776 36.8917 24.5001 36.3514 24.5001ZM48.2431 20.7896C48.2497 23.7286 47.5273 26.6344 46.1241 29.3126L48.7318 39.2921C48.8006 39.5589 48.7157 39.8374 48.5034 40.0401C48.2936 40.2433 47.9827 40.3462 47.6693 40.3156L35.4 39.191C30.7411 41.3165 25.4017 42.0671 20.2014 41.3283C15.0006 40.5898 10.2234 38.4019 6.6 35.0999C2.97728 31.7983 0.708753 27.5638 0.140552 23.0444C-0.427597 18.5248 0.73651 13.9695 3.45491 10.0748C6.17285 6.17996 10.2954 3.16032 15.1925 1.47769C20.089 -0.204931 25.49 -0.458251 30.5692 0.757126C35.6488 1.97206 40.1267 4.5884 43.3182 8.20607C46.5103 11.8237 48.2396 16.2436 48.2431 20.7896ZM44.2073 28.8628C45.5822 26.3371 46.2924 23.5799 46.2868 20.7896C46.2878 16.6013 44.6936 12.5294 41.7497 9.19827C38.8053 5.86739 34.6746 3.46286 29.992 2.3535C25.3092 1.24453 20.3333 1.49212 15.8303 3.05881C11.3265 4.62549 7.54409 7.42406 5.06372 11.0248C2.58388 14.6255 1.54362 18.829 2.10316 22.9888C2.66271 27.1487 4.79082 31.0354 8.16068 34.0511C11.5302 37.0667 15.955 39.0445 20.755 39.6805C25.555 40.3165 30.4641 39.5754 34.7278 37.5716C34.9032 37.4901 35.1033 37.4569 35.3015 37.4757L46.5149 38.5158L44.1417 29.4077C44.0926 29.2247 44.1163 29.0337 44.2073 28.8628Z" fill="black"/>
</svg>
