<svg width="19" height="20" viewBox="0 0 19 20" fill="none" xmlns="http://www.w3.org/2000/svg">
<path fill-rule="evenodd" clip-rule="evenodd" d="M17.498 2.16278C16.5785 1.16143 15.2531 0.520874 13.86 0.520874C13.0393 0.520874 12.2682 0.726552 11.5265 1.13968C10.7852 1.55325 10.183 2.11798 9.70817 2.83606C9.23332 2.11796 8.63105 1.55319 7.889 1.13968C7.1473 0.726552 6.37702 0.520874 5.55633 0.520874C4.162 0.520874 2.83825 1.1614 1.91839 2.16278C0.998927 3.16236 0.416016 4.61856 0.416016 6.15175C0.416016 7.20586 0.619984 8.22942 0.871113 8.99982C0.995666 9.38103 1.1831 9.79593 1.43423 10.2171C1.68778 10.6435 1.91835 10.9995 2.11587 11.2827C2.31379 11.5642 2.59595 11.9188 2.97607 12.3253C3.357 12.734 3.66778 13.0545 3.89554 13.2823C4.12288 13.511 4.46914 13.8484 4.92302 14.2819C5.44745 14.7828 5.82112 15.1551 6.05979 15.3918C6.29479 15.6228 6.63339 15.9783 7.07841 16.446C7.97852 17.3915 8.63837 18.2625 9.2632 19.2612C9.37969 19.4478 9.53004 19.5329 9.70821 19.5329C9.89565 19.5329 10.0585 19.4487 10.1726 19.2612C10.572 18.6012 11.0344 17.926 11.5762 17.2616C12.122 16.5896 12.5771 16.0678 12.9407 15.6951C13.3083 15.3183 13.8376 14.7917 14.5224 14.1192C14.9453 13.7034 15.2831 13.3909 15.5108 13.1635C15.7382 12.9348 16.0349 12.6196 16.4005 12.2167C16.7661 11.8146 17.0555 11.4693 17.2603 11.1838C17.4703 10.8931 17.6928 10.5407 17.9427 10.1195C18.4538 9.25782 18.6771 8.57602 18.8618 7.61952C18.9541 7.14123 19.0004 6.65096 19.0004 6.1518C19.0004 4.61849 18.4167 3.16229 17.498 2.16278ZM17.814 7.26043C17.6237 8.46658 17.0501 9.6497 16.0936 10.8146C15.6764 11.323 14.91 12.1328 13.7911 13.2278C13.2103 13.796 12.7431 14.2606 12.3771 14.6307C12.0208 14.9897 11.5834 15.4756 11.0626 16.0868C10.5455 16.6928 10.0936 17.2944 9.70822 17.8808C9.30271 17.3041 8.83593 16.7199 8.3046 16.1196C7.76849 15.5141 7.35532 15.054 7.04937 14.75C6.74261 14.445 6.27623 13.992 5.63574 13.3696L4.9529 12.706L4.33133 12.0863C4.06125 11.8182 3.85326 11.6005 3.71822 11.4343C3.58641 11.2743 3.41146 11.065 3.1942 10.8035C2.97693 10.5433 2.80924 10.3146 2.7 10.1297C2.47346 9.74941 2.0885 9.18113 1.94822 8.70639L1.72169 7.9342C1.55601 7.37125 1.50361 6.79273 1.50361 6.15181C1.50361 4.93453 1.89904 3.89065 2.6895 3.03208C3.49085 2.16282 4.44015 1.72799 5.55628 1.72799C6.33788 1.72799 7.05866 1.95539 7.72208 2.42305C8.38397 2.8907 8.89466 3.50641 9.22405 4.28124C9.31998 4.50643 9.48162 4.61858 9.70816 4.61858C9.93551 4.61858 10.1117 4.51441 10.2128 4.28124C10.5466 3.5135 11.0231 2.89069 11.6854 2.42305C12.3477 1.95539 13.0797 1.72799 13.8601 1.72799C14.977 1.72799 15.9267 2.16284 16.7176 3.02107C17.5084 3.87925 17.9039 4.92319 17.9039 6.15192C17.9027 6.53225 17.8708 6.9015 17.814 7.26054L17.814 7.26043Z" fill="black"/>
</svg>
