<svg width="40" height="41" viewBox="0 0 40 41" fill="none" xmlns="http://www.w3.org/2000/svg">
<path fill-rule="evenodd" clip-rule="evenodd" d="M36.4137 4.28341C34.4994 2.19799 31.74 0.863953 28.8396 0.863953C27.1309 0.863953 25.5254 1.2923 23.9813 2.15268C22.438 3.01399 21.1841 4.19011 20.1956 5.68559C19.207 4.19006 17.9531 3.01387 16.4081 2.15268C14.8639 1.2923 13.2602 0.863953 11.5516 0.863953C8.64863 0.863953 5.89262 2.19792 3.97751 4.28341C2.06321 6.36515 0.849609 9.39784 0.849609 12.5909C0.849609 14.7862 1.27427 16.9179 1.79711 18.5223C2.05642 19.3162 2.44666 20.1803 2.96951 21.0574C3.49738 21.9455 3.97742 22.6868 4.38865 23.2767C4.80072 23.8629 5.38817 24.6015 6.17956 25.448C6.97264 26.2992 7.61968 26.9666 8.09386 27.4411C8.56718 27.9175 9.28809 28.62 10.2331 29.5228C11.3249 30.566 12.1029 31.3415 12.5998 31.8344C13.089 32.3154 13.794 33.0558 14.7205 34.0297C16.5945 35.9988 17.9683 37.8129 19.2692 39.8929C19.5117 40.2815 19.8247 40.4587 20.1957 40.4587C20.5859 40.4587 20.925 40.2833 21.1625 39.8929C21.9941 38.5183 22.9567 37.1122 24.0848 35.7285C25.2211 34.329 26.1686 33.2423 26.9256 32.4659C27.691 31.6813 28.7929 30.5845 30.2188 29.184C31.0991 28.3181 31.8024 27.6673 32.2765 27.1937C32.7499 26.7173 33.3675 26.0609 34.1287 25.2218C34.8899 24.3845 35.4925 23.6653 35.9188 23.0708C36.356 22.4652 36.8193 21.7313 37.3396 20.8543C38.4038 19.0596 38.8687 17.6397 39.2531 15.6477C39.4452 14.6516 39.5418 13.6306 39.5418 12.591C39.5418 9.3977 38.3264 6.36501 36.4137 4.28341ZM37.0716 14.8998C36.6755 17.4118 35.4813 19.8758 33.4898 22.3017C32.6211 23.3606 31.0257 25.0472 28.6962 27.3275C27.4868 28.511 26.5142 29.4785 25.7522 30.2493C25.0103 30.997 24.0997 32.0088 23.0155 33.2818C21.9388 34.5438 20.998 35.7966 20.1957 37.018C19.3514 35.817 18.3796 34.6003 17.2734 33.3501C16.1572 32.0891 15.297 31.1309 14.66 30.4976C14.0214 29.8625 13.0504 28.919 11.7169 27.6229L10.2953 26.2409L9.00116 24.9504C8.43888 24.3918 8.00584 23.9386 7.72469 23.5924C7.45027 23.2591 7.08603 22.8234 6.6337 22.2787C6.18135 21.7368 5.83223 21.2605 5.6048 20.8755C5.13315 20.0834 4.33168 18.8999 4.03962 17.9112L3.56798 16.3031C3.22305 15.1306 3.11395 13.9258 3.11395 12.591C3.11395 10.0559 3.93723 7.8819 5.58292 6.09383C7.25131 4.28349 9.22774 3.37792 11.5515 3.37792C13.1787 3.37792 14.6794 3.8515 16.0606 4.82544C17.4386 5.79938 18.5019 7.08166 19.1877 8.69535C19.3874 9.16432 19.7239 9.39788 20.1956 9.39788C20.6689 9.39788 21.0356 9.18094 21.2463 8.69535C21.9412 7.09643 22.9331 5.79936 24.3121 4.82544C25.691 3.8515 27.215 3.37792 28.8397 3.37792C31.1652 3.37792 33.1424 4.28353 34.7889 6.0709C36.4355 7.85815 37.2588 10.0323 37.2588 12.5912C37.2562 13.3833 37.1899 14.1523 37.0716 14.9001L37.0716 14.8998Z" fill="black"/>
</svg>
