<svg width="53" height="51" viewBox="0 0 53 51" fill="none" xmlns="http://www.w3.org/2000/svg">
<path d="M51.7398 17.48C51.1069 17.48 50.594 17.9622 50.594 18.5572V46.8277C50.6002 47.218 50.4376 47.5944 50.1442 47.8702C49.8507 48.1461 49.4504 48.299 49.0353 48.2931H4.02264C3.60753 48.299 3.20777 48.1461 2.91378 47.8702C2.62037 47.5944 2.4583 47.218 2.46456 46.8277V4.50823C2.4583 4.11795 2.62037 3.74211 2.91378 3.46571C3.20777 3.18985 3.60753 3.03748 4.02264 3.04337H34.0922C34.7251 3.04337 35.238 2.56061 35.238 1.96557C35.238 1.37053 34.7251 0.888306 34.0922 0.888306H4.02264C3.00193 0.888306 2.02218 1.27003 1.29999 1.94846C0.578383 2.62743 0.172363 3.54853 0.172363 4.50822V46.8277C0.172363 47.7879 0.578383 48.7085 1.29999 49.3875C2.02216 50.0664 3.00188 50.4476 4.02264 50.4476H49.0353C50.0566 50.4476 51.0358 50.0664 51.758 49.3875C52.4801 48.7085 52.8856 47.7878 52.8856 46.8277V18.5572C52.8856 18.2717 52.765 17.9975 52.5501 17.7954C52.3351 17.5933 52.0434 17.48 51.7398 17.48Z" fill="black"/>
</svg>
