<svg width="25" height="38" viewBox="0 0 25 38" fill="none" xmlns="http://www.w3.org/2000/svg">
<path d="M4.1232 29.9897C4.1232 30.445 4.40913 30.5799 4.76139 30.2918L11.7911 24.5312C12.1434 24.2425 12.7153 24.2425 13.0669 24.5312L20.0973 30.2918C20.4495 30.5805 20.7348 30.4457 20.7348 29.9897V4.09112C20.7348 3.63582 20.3568 3.26665 19.9112 3.26665H4.94692C4.49227 3.26665 4.12327 3.63519 4.12327 4.09112L4.1232 29.9897ZM2.07862 36.7425C1.37283 37.3207 0.800964 37.0516 0.800964 36.1536V1.63568C0.800964 0.732685 1.54863 0 2.45467 0H22.4026C23.3158 0 24.0563 0.737727 24.0563 1.63568V36.1536C24.0563 37.0566 23.4799 37.3169 22.7786 36.7425L13.0699 28.7865C12.7158 28.4965 12.1407 28.4965 11.7865 28.7865L2.07862 36.7425Z" fill="black"/>
</svg>
