<svg width="57" height="50" viewBox="0 0 57 50" fill="none" xmlns="http://www.w3.org/2000/svg">
<path d="M43.0519 19.8437C43.0519 20.3901 42.554 20.8332 41.9393 20.8332H14.7086C14.094 20.8332 13.596 20.3901 13.596 19.8437C13.596 19.2967 14.094 18.8536 14.7086 18.8536H41.9393C42.554 18.8536 43.0519 19.2967 43.0519 19.8437ZM41.9393 29.5442H14.7086C14.094 29.5442 13.596 29.9873 13.596 30.5342C13.596 31.0807 14.094 31.5238 14.7086 31.5238H41.9393C42.554 31.5238 43.0519 31.0807 43.0519 30.5342C43.0519 29.9873 42.554 29.5442 41.9393 29.5442ZM55.4661 25.189C55.4735 28.6386 54.6519 32.0493 53.0558 35.1929L56.022 46.9062C56.1002 47.2193 56.0036 47.5463 55.7621 47.7842C55.5235 48.0226 55.1699 48.1434 54.8134 48.1076L40.8572 46.7875H40.8566C35.5571 49.2824 29.4842 50.1634 23.5688 49.2961C17.6529 48.4294 12.2189 45.8613 8.0973 41.9857C3.97649 38.1104 1.39605 33.1402 0.749721 27.8355C0.103455 22.5307 1.42762 17.1839 4.51978 12.6126C7.61142 8.04099 12.3008 4.4967 17.8712 2.52173C23.441 0.546756 29.5845 0.249423 35.3622 1.67597C41.1401 3.10199 46.2337 6.1729 49.8641 10.4191C53.495 14.6654 55.4626 19.853 55.4665 25.1888L55.4661 25.189ZM50.8754 34.6649C52.4393 31.7003 53.2471 28.4641 53.2408 25.189C53.242 20.273 51.4286 15.4936 48.0799 11.5837C44.7307 7.67411 40.032 4.85181 34.7055 3.5497C29.3789 2.24805 23.7189 2.53866 18.5967 4.37756C13.4737 6.21644 9.1712 9.50125 6.3498 13.7276C3.52899 17.9539 2.34571 22.8878 2.98217 27.7703C3.61866 32.653 6.03937 37.2149 9.87257 40.7546C13.7053 44.2942 18.7386 46.6156 24.1986 47.3621C29.6586 48.1086 35.2426 47.2388 40.0925 44.8868C40.292 44.7911 40.5197 44.7522 40.7451 44.7742L53.5002 45.995L50.8007 35.3045V35.305C50.7449 35.0901 50.7714 34.865 50.8749 34.6644L50.8754 34.6649Z" fill="black"/>
</svg>
