<svg width="47" height="40" viewBox="0 0 47 40" fill="none" xmlns="http://www.w3.org/2000/svg">
<path d="M35.4942 15.9838C35.4942 16.414 35.0779 16.7627 34.5642 16.7627L11.8019 16.7627C11.2881 16.7627 10.8719 16.414 10.8719 15.9838C10.8719 15.5533 11.2881 15.2046 11.8019 15.2046L34.5642 15.2046C35.0779 15.2046 35.4942 15.5533 35.4942 15.9838ZM34.5642 23.6192L11.8019 23.6192C11.2881 23.6192 10.8719 23.968 10.8719 24.3985C10.8719 24.8286 11.2881 25.1774 11.8019 25.1774L34.5642 25.1774C35.0779 25.1774 35.4942 24.8286 35.4942 24.3985C35.4942 23.968 35.0779 23.6192 34.5642 23.6192ZM45.8712 20.1912C45.8775 22.9064 45.1907 25.591 43.8564 28.0653L46.3359 37.285C46.4013 37.5315 46.3206 37.7888 46.1187 37.9761C45.9192 38.1638 45.6237 38.2588 45.3257 38.2306L33.6596 37.1916L33.6591 37.1916C29.2292 39.1553 24.1529 39.8488 19.2082 39.1662C14.2631 38.4839 9.72073 36.4626 6.27551 33.412C2.83091 30.3617 0.673907 26.4497 0.133642 22.2743C-0.406574 18.0988 0.700299 13.8903 3.28504 10.2922C5.86936 6.69383 9.78926 3.90409 14.4456 2.34957C19.1014 0.795046 24.2368 0.561012 29.0663 1.68386C33.8961 2.80629 38.1539 5.22344 41.1885 8.56569C44.2236 11.9079 45.8683 15.9911 45.8716 20.1911L45.8712 20.1912ZM42.0339 27.6497C43.3412 25.3163 44.0164 22.7691 44.0111 20.1912C44.0121 16.3218 42.4963 12.5598 39.6971 9.48234C36.8975 6.40506 32.9698 4.1836 28.5174 3.15869C24.0649 2.13415 19.3336 2.3629 15.052 3.81031C10.7696 5.25771 7.17318 7.84321 4.81477 11.1698C2.45684 14.4964 1.46773 18.3799 1.99975 22.223C2.5318 26.0662 4.55528 29.6569 7.75946 32.443C10.9633 35.2291 15.1706 37.0563 19.7346 37.6438C24.2986 38.2314 28.9664 37.5468 33.0204 35.6955C33.1872 35.6202 33.3775 35.5896 33.5659 35.6069L44.228 36.5678L41.9714 28.1532L41.9714 28.1536C41.9248 27.9845 41.9469 27.8073 42.0334 27.6494L42.0339 27.6497Z" fill="black"/>
</svg>
