<svg width="40" height="40" viewBox="0 0 40 40" fill="none" xmlns="http://www.w3.org/2000/svg">
<path fill-rule="evenodd" clip-rule="evenodd" d="M36.4195 3.57431C34.5052 1.48888 31.7458 0.154846 28.8454 0.154846C27.1368 0.154846 25.5313 0.583193 23.9872 1.44358C22.4439 2.30488 21.1899 3.48101 20.2014 4.97648C19.2128 3.48096 17.9589 2.30476 16.414 1.44358C14.8698 0.583193 13.2661 0.154846 11.5574 0.154846C8.65449 0.154846 5.89848 1.48881 3.98337 3.57431C2.06907 5.65605 0.855469 8.68873 0.855469 11.8818C0.855469 14.0771 1.28012 16.2088 1.80297 17.8132C2.06228 18.6071 2.45252 19.4712 2.97537 20.3483C3.50324 21.2364 3.98328 21.9777 4.39451 22.5676C4.80658 23.1538 5.39403 23.8924 6.18542 24.7389C6.9785 25.5901 7.62554 26.2575 8.09972 26.732C8.57304 27.2083 9.29395 27.9109 10.2389 28.8137C11.3307 29.8569 12.1087 30.6324 12.6056 31.1253C13.0949 31.6063 13.7999 32.3467 14.7264 33.3206C16.6004 35.2897 17.9741 37.1038 19.275 39.1837C19.5176 39.5724 19.8306 39.7496 20.2015 39.7496C20.5918 39.7496 20.9308 39.5742 21.1683 39.1837C22 37.8092 22.9626 36.4031 24.0906 35.0194C25.2269 33.6198 26.1744 32.5332 26.9315 31.7568C27.6969 30.9721 28.7988 29.8754 30.2246 28.4749C31.105 27.609 31.8082 26.9581 32.2824 26.4846C32.7557 26.0082 33.3734 25.3518 34.1346 24.5127C34.8958 23.6754 35.4983 22.9562 35.9247 22.3617C36.3619 21.7561 36.8251 21.0222 37.3455 20.1452C38.4096 18.3505 38.8746 16.9306 39.2589 14.9386C39.4511 13.9425 39.5476 12.9215 39.5476 11.8819C39.5476 8.68859 38.3322 5.6559 36.4195 3.57431ZM37.0775 14.1907C36.6814 16.7027 35.4872 19.1667 33.4956 21.5926C32.627 22.6515 31.0316 24.338 28.702 26.6184C27.4927 27.8019 26.5201 28.7694 25.758 29.5401C25.0162 30.2879 24.1056 31.2997 23.0214 32.5727C21.9446 33.8347 21.0039 35.0875 20.2016 36.3089C19.3573 35.1078 18.3855 33.8912 17.2793 32.641C16.1631 31.38 15.3029 30.4218 14.6659 29.7885C14.0272 29.1534 13.0563 28.2099 11.7228 26.9138L10.3011 25.5318L9.00702 24.2412C8.44474 23.6827 8.0117 23.2295 7.73055 22.8833C7.45613 22.55 7.09189 22.1143 6.63956 21.5696C6.18721 21.0277 5.83809 20.5514 5.61066 20.1664C5.13901 19.3743 4.33754 18.1908 4.04548 17.2021L3.57384 15.5939C3.22891 14.4215 3.11981 13.2167 3.11981 11.8819C3.11981 9.34679 3.94309 7.17279 5.58878 5.38472C7.25717 3.57438 9.2336 2.66881 11.5573 2.66881C13.1846 2.66881 14.6852 3.14239 16.0665 4.11633C17.4445 5.09028 18.5077 6.37256 19.1935 7.98624C19.3932 8.45522 19.7298 8.68878 20.2014 8.68878C20.6747 8.68878 21.0415 8.47184 21.2521 7.98624C21.947 6.38733 22.939 5.09025 24.3179 4.11633C25.6968 3.14239 27.2209 2.66881 28.8456 2.66881C31.171 2.66881 33.1482 3.57443 34.7948 5.36179C36.4414 7.14904 37.2646 9.32316 37.2646 11.8821C37.2621 12.6742 37.1958 13.4432 37.0775 14.191L37.0775 14.1907Z" fill="black"/>
</svg>
