<svg width="25" height="29" viewBox="0 0 25 29" fill="none" xmlns="http://www.w3.org/2000/svg">
<path d="M12.3547 0.157471C11.1917 0.157471 10.225 1.23325 10.225 2.56538L10.225 11.7184L2.12968 11.7184C0.951469 11.7184 -1.73871e-09 12.8114 -1.9217e-09 14.1431C-2.10238e-09 15.458 0.951469 16.551 2.12968 16.551L10.225 16.551L10.225 25.704C10.225 27.0362 11.1917 28.1119 12.3547 28.1119C13.5329 28.1119 14.4993 27.0362 14.4993 25.704L14.4993 16.551L22.5947 16.551C23.7729 16.551 24.7243 15.458 24.7243 14.1431C24.7243 12.811 23.7729 11.7184 22.5947 11.7184L14.4993 11.7184L14.4993 2.56538C14.4993 1.23325 13.5326 0.157471 12.3547 0.157471Z" fill="black"/>
</svg>
