<svg width="42" height="38" viewBox="0 0 42 38" fill="none" xmlns="http://www.w3.org/2000/svg">
<path d="M0.922943 29.5587V36.6697V36.6692C0.922943 36.9552 1.04349 37.2289 1.25844 37.431C1.4734 37.6331 1.76511 37.7464 2.06876 37.7464H9.63231C9.93596 37.7502 10.2271 37.6326 10.4341 37.4235L40.6871 8.98061H40.6877C40.9089 8.78494 41.0345 8.51174 41.0345 8.22626C41.0345 7.94078 40.9089 7.66758 40.6877 7.47191L33.1241 0.360907V0.361442C32.916 0.152945 32.626 0.03479 32.3218 0.03479C32.0181 0.03479 31.7275 0.152942 31.52 0.361442L1.26698 28.8044H1.26641C1.04408 28.999 0.918969 29.2727 0.922943 29.5587ZM32.3216 2.64592L38.2576 8.2268L36.103 10.2525L30.1676 4.67163L32.3216 2.64592ZM3.21426 30.0117L28.5396 6.30975L34.4757 11.8906L9.1503 35.5926H3.21426V30.0117Z" fill="black"/>
</svg>
