<svg width="43" height="38" viewBox="0 0 43 38" fill="none" xmlns="http://www.w3.org/2000/svg">
<path d="M32.923 14.8288C32.923 15.254 32.5369 15.5988 32.0604 15.5988H10.947C10.4704 15.5988 10.0844 15.254 10.0844 14.8288C10.0844 14.4032 10.4704 14.0584 10.947 14.0584H32.0604C32.5369 14.0584 32.923 14.4032 32.923 14.8288ZM32.0604 22.3773H10.947C10.4704 22.3773 10.0844 22.7221 10.0844 23.1477C10.0844 23.5729 10.4704 23.9177 10.947 23.9177H32.0604C32.5369 23.9177 32.923 23.5729 32.923 23.1477C32.923 22.7221 32.5369 22.3773 32.0604 22.3773ZM42.5483 18.9883C42.5541 21.6726 41.9171 24.3266 40.6795 26.7728L42.9794 35.8876C43.04 36.1312 42.9651 36.3857 42.7779 36.5708C42.5929 36.7563 42.3187 36.8503 42.0423 36.8224L31.2213 35.7952C27.1123 37.7366 22.4032 38.4221 17.8167 37.7473C13.2299 37.0728 9.01657 35.0745 5.82092 32.0586C2.62584 29.0431 0.625089 25.1755 0.123961 21.0476C-0.377122 16.9197 0.64957 12.7591 3.04708 9.20188C5.44419 5.64448 9.08014 2.88649 13.3991 1.34966C17.7177 -0.187175 22.4811 -0.418545 26.9608 0.691524C31.4407 1.80119 35.39 4.19083 38.2048 7.49504C41.0201 10.7993 42.5453 14.8361 42.5483 18.9883ZM38.989 26.3619C40.2016 24.0551 40.8279 21.5368 40.823 18.9883C40.8239 15.1629 39.4179 11.4437 36.8215 8.40127C34.2247 5.359 30.5815 3.16282 26.4516 2.14958C22.3216 1.13669 17.9331 1.36283 13.9616 2.79377C9.98947 4.2247 6.65356 6.78079 4.46599 10.0695C2.27887 13.3582 1.36141 17.1976 1.85489 20.9969C2.3484 24.7964 4.2253 28.3463 7.19737 31.1007C10.1691 33.855 14.0717 35.6614 18.3051 36.2423C22.5385 36.8232 26.8681 36.1464 30.6284 34.3161C30.7831 34.2417 30.9596 34.2114 31.1344 34.2285L41.0241 35.1785L38.9311 26.8597C38.8878 26.6924 38.9087 26.518 38.989 26.3619Z" fill="black"/>
</svg>
