<svg width="39" height="41" viewBox="0 0 39 41" fill="none" xmlns="http://www.w3.org/2000/svg">
<path fill-rule="evenodd" clip-rule="evenodd" d="M35.5846 4.17343C33.6703 2.088 30.9109 0.753967 28.0105 0.753967C26.3018 0.753967 24.6963 1.18231 23.1522 2.0427C21.6089 2.904 20.355 4.08013 19.3665 5.5756C18.3779 4.08008 17.124 2.90389 15.579 2.0427C14.0348 1.18231 12.4311 0.753967 10.7225 0.753967C7.81953 0.753967 5.06352 2.08793 3.14841 4.17343C1.23411 6.25517 0.0205078 9.28785 0.0205078 12.4809C0.0205078 14.6762 0.445164 16.8079 0.968006 18.4123C1.22732 19.2063 1.61756 20.0703 2.14041 20.9474C2.66827 21.8355 3.14832 22.5768 3.55955 23.1667C3.97162 23.7529 4.55907 24.4915 5.35046 25.338C6.14354 26.1892 6.79058 26.8566 7.26476 27.3311C7.73808 27.8075 8.45899 28.51 9.40396 29.4129C10.4958 30.456 11.2738 31.2315 11.7707 31.7245C12.2599 32.2054 12.9649 32.9458 13.8914 33.9198C15.7654 35.8889 17.1392 37.7029 18.4401 39.7829C18.6826 40.1715 18.9956 40.3488 19.3666 40.3488C19.7568 40.3488 20.0959 40.1734 20.3334 39.7829C21.165 38.4083 22.1276 37.0022 23.2557 35.6185C24.392 34.219 25.3395 33.1323 26.0965 32.356C26.8619 31.5713 27.9638 30.4746 29.3897 29.074C30.27 28.2081 30.9733 27.5573 31.4474 27.0837C31.9208 26.6073 32.5384 25.951 33.2996 25.1118C34.0608 24.2745 34.6634 23.5553 35.0897 22.9608C35.5269 22.3552 35.9902 21.6213 36.5105 20.7443C37.5747 18.9496 38.0396 17.5297 38.424 15.5377C38.6161 14.5416 38.7127 13.5206 38.7127 12.481C38.7127 9.28771 37.4973 6.25502 35.5846 4.17343ZM36.2425 14.7899C35.8464 17.3018 34.6522 19.7658 32.6607 22.1917C31.792 23.2506 30.1966 24.9372 27.8671 27.2175C26.6577 28.401 25.6851 29.3685 24.9231 30.1393C24.1812 30.887 23.2706 31.8988 22.1864 33.1719C21.1097 34.4338 20.1689 35.6866 19.3666 36.908C18.5223 35.707 17.5505 34.4903 16.4443 33.2402C15.3281 31.9791 14.4679 31.0209 13.8309 30.3876C13.1923 29.7525 12.2213 28.809 10.8878 27.5129L9.46615 26.1309L8.17206 24.8404C7.60978 24.2818 7.17674 23.8286 6.89559 23.4824C6.62117 23.1491 6.25693 22.7134 5.8046 22.1687C5.35225 21.6268 5.00313 21.1505 4.7757 20.7655C4.30405 19.9734 3.50257 18.7899 3.21052 17.8012L2.73888 16.1931C2.39394 15.0207 2.28484 13.8158 2.28484 12.481C2.28484 9.94591 3.10812 7.77192 4.75382 5.98384C6.42221 4.1735 8.39864 3.26793 10.7224 3.26793C12.3496 3.26793 13.8503 3.74152 15.2315 4.71546C16.6095 5.6894 17.6728 6.97168 18.3585 8.58536C18.5583 9.05434 18.8948 9.2879 19.3665 9.2879C19.8398 9.2879 20.2065 9.07096 20.4172 8.58536C21.1121 6.98645 22.104 5.68937 23.483 4.71546C24.8618 3.74152 26.3859 3.26793 28.0106 3.26793C30.3361 3.26793 32.3133 4.17355 33.9598 5.96091C35.6064 7.74816 36.4296 9.92228 36.4296 12.4813C36.4271 13.2733 36.3608 14.0423 36.2425 14.7901L36.2425 14.7899Z" fill="black"/>
</svg>
