<svg width="25" height="29" viewBox="0 0 25 29" fill="none" xmlns="http://www.w3.org/2000/svg">
<path d="M12.3547 0.644775C11.1917 0.644775 10.225 1.72055 10.225 3.05269L10.225 12.2057L2.12968 12.2057C0.951469 12.2057 -1.73871e-09 13.2987 -1.9217e-09 14.6304C-2.10238e-09 15.9453 0.951469 17.0383 2.12968 17.0383L10.225 17.0383L10.225 26.1913C10.225 27.5235 11.1917 28.5992 12.3547 28.5992C13.5329 28.5992 14.4993 27.5235 14.4993 26.1913L14.4993 17.0383L22.5947 17.0383C23.7729 17.0383 24.7243 15.9453 24.7243 14.6304C24.7243 13.2983 23.7729 12.2057 22.5947 12.2057L14.4993 12.2057L14.4993 3.05269C14.4993 1.72055 13.5326 0.644775 12.3547 0.644775Z" fill="black"/>
</svg>
