<svg width="32" height="33" viewBox="0 0 32 33" fill="none" xmlns="http://www.w3.org/2000/svg">
<path d="M16.1033 0.421143C14.6473 0.421143 13.437 1.64013 13.437 3.1496V13.5211H3.302C1.82694 13.5211 0.635742 14.7596 0.635742 16.2686C0.635742 17.7586 1.82694 18.9971 3.302 18.9971H13.437V29.3685C13.437 30.878 14.6473 32.097 16.1033 32.097C17.5783 32.097 18.7882 30.878 18.7882 29.3685V18.9971H28.9232C30.3983 18.9971 31.5895 17.7586 31.5895 16.2686C31.5895 14.7591 30.3983 13.5211 28.9232 13.5211H18.7882V3.1496C18.7882 1.64013 17.5779 0.421143 16.1033 0.421143Z" fill="black"/>
</svg>
