<svg width="56" height="50" viewBox="0 0 56 50" fill="none" xmlns="http://www.w3.org/2000/svg">
<path d="M42.8869 19.7626C42.8869 20.3091 42.3889 20.7522 41.7743 20.7522H14.5436C13.9289 20.7522 13.431 20.3091 13.431 19.7626C13.431 19.2157 13.9289 18.7726 14.5436 18.7726H41.7743C42.3889 18.7726 42.8869 19.2157 42.8869 19.7626ZM41.7743 29.4631H14.5436C13.9289 29.4631 13.431 29.9062 13.431 30.4532C13.431 30.9996 13.9289 31.4427 14.5436 31.4427H41.7743C42.3889 31.4427 42.8869 30.9996 42.8869 30.4532C42.8869 29.9062 42.3889 29.4631 41.7743 29.4631ZM55.301 25.1079C55.3085 28.5575 54.4869 31.9682 52.8907 35.1118L55.857 46.8252C55.9352 47.1383 55.8386 47.4652 55.5971 47.7032C55.3585 47.9416 55.0049 48.0623 54.6484 48.0265L40.6921 46.7065H40.6916C35.392 49.2013 29.3191 50.0823 23.4037 49.2151C17.4879 48.3483 12.0538 45.7803 7.93227 41.9046C3.81145 38.0293 1.23101 33.0592 0.584682 27.7544C-0.0615842 22.4496 1.26258 17.1029 4.35474 12.5315C7.44638 7.95993 12.1358 4.41564 17.7062 2.44067C23.276 0.465701 29.4195 0.168368 35.1971 1.59491C40.975 3.02093 46.0687 6.09185 49.699 10.3381C53.33 14.5843 55.2975 19.7719 55.3015 25.1078L55.301 25.1079ZM50.7104 34.5838C52.2743 31.6193 53.0821 28.3831 53.0758 25.1079C53.0769 20.192 51.2635 15.4125 47.9149 11.5027C44.5657 7.59306 39.867 4.77075 34.5405 3.46865C29.2139 2.167 23.5538 2.45761 18.4317 4.2965C13.3086 6.13538 9.00616 9.42019 6.18476 13.6465C3.36395 17.8728 2.18067 22.8067 2.81713 27.6893C3.45362 32.5719 5.87433 37.1339 9.70753 40.6736C13.5403 44.2131 18.5736 46.5345 24.0335 47.281C29.4935 48.0275 35.0776 47.1577 39.9274 44.8057C40.127 44.71 40.3546 44.6711 40.58 44.6931L53.3352 45.9139L50.6357 35.2234V35.224C50.5799 35.0091 50.6064 34.7839 50.7099 34.5834L50.7104 34.5838Z" fill="black"/>
</svg>
