<svg width="45" height="45" viewBox="0 0 45 45" fill="none" xmlns="http://www.w3.org/2000/svg">
<path d="M33.9166 17.7551C33.9166 18.2373 33.5189 18.6284 33.028 18.6284L11.2774 18.6284C10.7864 18.6284 10.3887 18.2373 10.3887 17.7551C10.3887 17.2724 10.7864 16.8813 11.2774 16.8813L33.028 16.8813C33.5189 16.8813 33.9166 17.2724 33.9166 17.7551ZM33.028 26.316L11.2774 26.316C10.7864 26.316 10.3887 26.707 10.3887 27.1897C10.3887 27.6719 10.7864 28.063 11.2774 28.063L33.028 28.063C33.5189 28.063 33.9166 27.6719 33.9166 27.1897C33.9166 26.707 33.5189 26.316 33.028 26.316ZM43.8325 22.4724C43.8385 25.5167 43.1822 28.5267 41.9073 31.301L44.2766 41.6382C44.339 41.9146 44.2619 42.2031 44.069 42.4131C43.8784 42.6235 43.5959 42.7301 43.3112 42.6985L32.1636 41.5335L32.1631 41.5335C27.9301 43.7352 23.0794 44.5127 18.3545 43.7474C13.6292 42.9825 9.2887 40.7161 5.9966 37.2958C2.70509 33.8758 0.643955 29.4895 0.127702 24.808C-0.388504 20.1264 0.669175 15.4078 3.13904 11.3735C5.6085 7.33901 9.35419 4.21111 13.8035 2.46817C18.2524 0.725222 23.1596 0.462821 27.7745 1.72177C32.3896 2.98026 36.4581 5.69039 39.3579 9.43776C42.2581 13.1851 43.8297 17.7633 43.8329 22.4723L43.8325 22.4724ZM40.1657 30.835C41.4149 28.2188 42.0601 25.3628 42.0551 22.4724C42.056 18.134 40.6075 13.916 37.9328 10.4655C35.2576 7.01524 31.5045 4.52451 27.25 3.37537C22.9953 2.22664 18.4744 2.48311 14.383 4.10597C10.291 5.72881 6.85437 8.62771 4.60078 12.3575C2.34765 16.0873 1.4025 20.4416 1.91088 24.7505C2.41927 29.0595 4.35282 33.0855 7.4146 36.2093C10.476 39.3331 14.4964 41.3818 18.8575 42.0405C23.2187 42.6993 27.679 41.9317 31.5528 39.856C31.7122 39.7716 31.894 39.7373 32.0741 39.7567L42.2623 40.8341L40.106 31.3995L40.106 31.4C40.0615 31.2103 40.0826 31.0116 40.1653 30.8346L40.1657 30.835Z" fill="black"/>
</svg>
