<svg width="19" height="20" viewBox="0 0 19 20" fill="none" xmlns="http://www.w3.org/2000/svg">
<path fill-rule="evenodd" clip-rule="evenodd" d="M17.3085 2.55957C16.389 1.55822 15.0637 0.917664 13.6706 0.917664C12.8499 0.917664 12.0787 1.12334 11.3371 1.53647C10.5958 1.95004 9.99351 2.51477 9.51872 3.23285C9.04387 2.51475 8.4416 1.94998 7.69954 1.53647C6.95785 1.12334 6.18757 0.917664 5.36688 0.917664C3.97254 0.917664 2.64879 1.55819 1.72894 2.55957C0.809474 3.55915 0.226562 5.01535 0.226562 6.54854C0.226562 7.60265 0.430531 8.62621 0.68166 9.39661C0.806213 9.77782 0.993652 10.1927 1.24478 10.6139C1.49832 11.0403 1.7289 11.3963 1.92642 11.6795C2.12434 11.961 2.4065 12.3156 2.78662 12.7221C3.16754 13.1308 3.47833 13.4513 3.70608 13.6791C3.93343 13.9078 4.27969 14.2452 4.73357 14.6787C5.25799 15.1796 5.63166 15.5519 5.87034 15.7886C6.10534 16.0196 6.44394 16.3751 6.88896 16.8427C7.78907 17.7882 8.44891 18.6593 9.07374 19.658C9.19024 19.8446 9.34059 19.9297 9.51876 19.9297C9.7062 19.9297 9.86905 19.8455 9.98313 19.658C10.3826 18.998 10.8449 18.3228 11.3867 17.6584C11.9325 16.9864 12.3876 16.4646 12.7513 16.0919C13.1189 15.7151 13.6481 15.1885 14.333 14.516C14.7558 14.1002 15.0936 13.7877 15.3214 13.5603C15.5487 13.3316 15.8454 13.0164 16.211 12.6135C16.5766 12.2114 16.866 11.8661 17.0708 11.5806C17.2808 11.2898 17.5033 10.9374 17.7532 10.5163C18.2644 9.65461 18.4877 8.97281 18.6723 8.01631C18.7646 7.53802 18.811 7.04775 18.811 6.54859C18.811 5.01528 18.2272 3.55908 17.3085 2.55957ZM17.6245 7.65722C17.4343 8.86337 16.8607 10.0465 15.9041 11.2113C15.4869 11.7198 14.7206 12.5296 13.6017 13.6246C13.0208 14.1928 12.5537 14.6574 12.1876 15.0275C11.8313 15.3865 11.3939 15.8724 10.8732 16.4836C10.356 17.0896 9.90413 17.6911 9.51877 18.2776C9.11325 17.7009 8.64648 17.1167 8.11515 16.5164C7.57903 15.9109 7.16586 15.4508 6.85992 15.1467C6.55316 14.8418 6.08678 14.3888 5.44629 13.7664L4.76344 13.1028L4.14187 12.4831C3.8718 12.215 3.6638 11.9973 3.52877 11.8311C3.39696 11.6711 3.22201 11.4618 3.00475 11.2003C2.78747 10.9401 2.61979 10.7114 2.51055 10.5265C2.28401 10.1462 1.89905 9.57792 1.75877 9.10318L1.53223 8.33099C1.36656 7.76804 1.31416 7.18952 1.31416 6.5486C1.31416 5.33132 1.70959 4.28744 2.50004 3.42887C3.30139 2.55961 4.2507 2.12478 5.36683 2.12478C6.14843 2.12478 6.86921 2.35218 7.53263 2.81984C8.19452 3.28749 8.7052 3.9032 9.03459 4.67803C9.13053 4.90322 9.29217 5.01537 9.51871 5.01537C9.74605 5.01537 9.92221 4.9112 10.0234 4.67803C10.3571 3.91029 10.8336 3.28748 11.4959 2.81984C12.1582 2.35218 12.8903 2.12478 13.6706 2.12478C14.7876 2.12478 15.7372 2.55963 16.5281 3.41786C17.319 4.27604 17.7144 5.31998 17.7144 6.54871C17.7132 6.92904 17.6814 7.29818 17.6245 7.65722Z" fill="black"/>
</svg>
