<svg width="44" height="38" viewBox="0 0 44 38" fill="none" xmlns="http://www.w3.org/2000/svg">
<path d="M33.1133 14.8288C33.1133 15.254 32.7255 15.5988 32.2467 15.5988H11.0351C10.5563 15.5988 10.1685 15.254 10.1685 14.8288C10.1685 14.4032 10.5563 14.0584 11.0351 14.0584H32.2467C32.7255 14.0584 33.1133 14.4032 33.1133 14.8288ZM32.2467 22.3773H11.0351C10.5563 22.3773 10.1685 22.7221 10.1685 23.1477C10.1685 23.5729 10.5563 23.9177 11.0351 23.9177H32.2467C32.7255 23.9177 33.1133 23.5729 33.1133 23.1477C33.1133 22.7221 32.7255 22.3773 32.2467 22.3773ZM42.7834 18.9883C42.7893 21.6726 42.1492 24.3266 40.9059 26.7728L43.2165 35.8876C43.2774 36.1312 43.2022 36.3857 43.0141 36.5708C42.8282 36.7563 42.5527 36.8503 42.2751 36.8224L31.4037 35.7952C27.2756 37.7366 22.5446 38.4221 17.9368 37.7473C13.3286 37.0728 9.09571 35.0745 5.88519 32.0586C2.67525 29.0431 0.665198 25.1755 0.161738 21.0476C-0.341675 16.9197 0.689792 12.7591 3.09845 9.20188C5.50671 5.64448 9.15957 2.88649 13.4987 1.34966C17.8373 -0.187175 22.6228 -0.418545 27.1234 0.691524C31.6241 1.80119 35.5918 4.19083 38.4197 7.49504C41.2481 10.7993 42.7803 14.8361 42.7834 18.9883ZM39.2075 26.3619C40.4257 24.0551 41.055 21.5368 41.0501 18.9883C41.051 15.1629 39.6384 11.4437 37.0299 8.40127C34.421 5.359 30.761 3.16282 26.6119 2.14958C22.4626 1.13669 18.0537 1.36283 14.0638 2.79377C10.0731 4.2247 6.72171 6.78079 4.52396 10.0695C2.32667 13.3582 1.40494 17.1976 1.90072 20.9969C2.39652 24.7964 4.28215 28.3463 7.26805 31.1007C10.2536 33.855 14.1743 35.6614 18.4274 36.2423C22.6805 36.8232 27.0302 36.1464 30.8081 34.3161C30.9635 34.2417 31.1408 34.2114 31.3164 34.2285L41.2521 35.1785L39.1493 26.8597C39.1059 26.6924 39.1269 26.518 39.2075 26.3619Z" fill="black"/>
</svg>
