<svg width="43" height="38" viewBox="0 0 43 38" fill="none" xmlns="http://www.w3.org/2000/svg">
<path fill-rule="evenodd" clip-rule="evenodd" d="M39.5236 3.28173C37.3962 1.2803 34.3296 0 31.1063 0C29.2074 0 27.4231 0.411094 25.7071 1.23682C23.992 2.06344 22.5984 3.19219 21.4999 4.62743C20.4012 3.19214 19.0077 2.06332 17.2907 1.23682C15.5746 0.411094 13.7924 0 11.8935 0C8.66733 0 5.60448 1.28024 3.47615 3.28173C1.34872 5.27962 0 8.19016 0 11.2546C0 13.3615 0.471936 15.4073 1.05299 16.9471C1.34118 17.7091 1.77487 18.5383 2.35592 19.3801C2.94256 20.2324 3.47605 20.9439 3.93307 21.51C4.39102 22.0726 5.04387 22.7814 5.92337 23.5939C6.80474 24.4107 7.52383 25.0513 8.0508 25.5067C8.57682 25.9638 9.37799 26.6381 10.4282 27.5046C11.6416 28.5057 12.5061 29.25 13.0584 29.7231C13.6021 30.1847 14.3856 30.8952 15.4152 31.8299C17.4979 33.7197 19.0246 35.4607 20.4703 37.4569C20.7399 37.8299 21.0877 38 21.5 38C21.9337 38 22.3105 37.8317 22.5744 37.4569C23.4987 36.1377 24.5685 34.7882 25.8221 33.4603C27.0849 32.1171 28.1379 31.0742 28.9792 30.3291C29.8298 29.576 31.0544 28.5235 32.639 27.1794C33.6174 26.3483 34.3989 25.7237 34.9259 25.2692C35.4519 24.8121 36.1384 24.1821 36.9843 23.3767C37.8302 22.5732 38.4999 21.883 38.9737 21.3124C39.4596 20.7312 39.9744 20.0268 40.5527 19.1852C41.7353 17.4628 42.252 16.1001 42.6791 14.1883C42.8927 13.2323 43 12.2524 43 11.2547C43 8.19002 41.6493 5.27949 39.5236 3.28173ZM40.2548 13.4706C39.8146 15.8813 38.4874 18.2461 36.2742 20.5743C35.3089 21.5905 33.5358 23.2092 30.9469 25.3977C29.6029 26.5335 28.522 27.462 27.6751 28.2017C26.8507 28.9194 25.8387 29.8904 24.6338 31.1122C23.4372 32.3233 22.3916 33.5257 21.5 34.6978C20.5617 33.5452 19.4817 32.3776 18.2524 31.1777C17.0119 29.9675 16.0559 29.0478 15.348 28.4401C14.6383 27.8305 13.5592 26.9251 12.0772 25.6812L10.4973 24.3548L9.05912 23.1163C8.43423 22.5802 7.95298 22.1452 7.64053 21.813C7.33556 21.4931 6.93076 21.075 6.42807 20.5522C5.92536 20.0321 5.53737 19.575 5.28461 19.2055C4.76046 18.4453 3.86975 17.3095 3.54517 16.3606L3.02102 14.8172C2.63769 13.6921 2.51644 12.5357 2.51644 11.2547C2.51644 8.82171 3.43138 6.73528 5.26031 5.01923C7.11444 3.28181 9.31092 2.41271 11.8934 2.41271C13.7018 2.41271 15.3695 2.86722 16.9045 3.80193C18.436 4.73664 19.6176 5.96727 20.3797 7.51596C20.6017 7.96605 20.9757 8.1902 21.4999 8.1902C22.0259 8.1902 22.4335 7.982 22.6676 7.51596C23.4398 5.98145 24.5422 4.73662 26.0747 3.80193C27.6071 2.86722 29.3009 2.41271 31.1064 2.41271C33.6908 2.41271 35.8881 3.28185 37.718 4.99722C39.5479 6.71248 40.4628 8.79903 40.4628 11.2549C40.46 12.0151 40.3863 12.7531 40.2548 13.4708L40.2548 13.4706Z" fill="black"/>
</svg>
