<svg width="43" height="38" viewBox="0 0 43 38" fill="none" xmlns="http://www.w3.org/2000/svg">
<path d="M18.0075 22.087L25.3963 37.3227C25.596 37.7345 26.0541 38 26.5589 38H26.5883C27.1048 37.9893 27.5622 37.7023 27.7434 37.2749L42.9194 1.51043C43.0936 1.10003 42.9802 0.6373 42.6296 0.327421C42.2789 0.0171964 41.7553 -0.0826302 41.2909 0.0712709L0.820483 13.4826C0.336866 13.6427 0.0120988 14.0469 0.000330664 14.5034C-0.0114364 14.9599 0.291752 15.3765 0.766743 15.5561L18.0075 22.087ZM39.5747 3.02771L26.4821 33.8834L20.4717 21.4907L31.2487 11.9668C31.7429 11.5304 31.7429 10.8229 31.2487 10.3865C30.7545 9.94981 29.9543 9.94981 29.4605 10.3865L18.6825 19.9104L4.65915 14.5989L39.5747 3.02771Z" fill="black"/>
</svg>
