<svg width="20" height="20" viewBox="0 0 20 20" fill="none" xmlns="http://www.w3.org/2000/svg">
<path fill-rule="evenodd" clip-rule="evenodd" d="M17.7577 2.18183C16.8383 1.18048 15.5129 0.539917 14.1198 0.539917C13.2991 0.539917 12.5279 0.745595 11.7863 1.15872C11.045 1.57229 10.4427 2.13703 9.96794 2.8551C9.49309 2.137 8.89082 1.57223 8.14876 1.15872C7.40707 0.745595 6.63679 0.539917 5.8161 0.539917C4.42176 0.539917 3.09801 1.18044 2.17816 2.18183C1.25869 3.18141 0.675781 4.6376 0.675781 6.1708C0.675781 7.2249 0.87975 8.24846 1.13088 9.01886C1.25543 9.40008 1.44287 9.81498 1.694 10.2361C1.94754 10.6626 2.17812 11.0185 2.37564 11.3018C2.57356 11.5832 2.85572 11.9379 3.23584 12.3443C3.61676 12.753 3.92755 13.0735 4.1553 13.3014C4.38265 13.5301 4.72891 13.8674 5.18279 14.3009C5.70721 14.8018 6.08088 15.1742 6.31955 15.4109C6.55455 15.6418 6.89316 15.9973 7.33817 16.465C8.23829 17.4105 8.89813 18.2815 9.52296 19.2803C9.63946 19.4669 9.78981 19.552 9.96798 19.552C10.1554 19.552 10.3183 19.4678 10.4323 19.2803C10.8318 18.6202 11.2942 17.9451 11.836 17.2807C12.3818 16.6087 12.8369 16.0869 13.2005 15.7141C13.5681 15.3373 14.0974 14.8107 14.7822 14.1383C15.2051 13.7225 15.5429 13.41 15.7706 13.1826C15.9979 12.9538 16.2946 12.6387 16.6602 12.2357C17.0258 11.8337 17.3153 11.4884 17.52 11.2029C17.73 10.9121 17.9525 10.5597 18.2025 10.1386C18.7136 9.27686 18.9369 8.59507 19.1215 7.63856C19.2138 7.16027 19.2602 6.67001 19.2602 6.17084C19.2602 4.63753 18.6764 3.18134 17.7577 2.18183ZM18.0737 7.27947C17.8835 8.48563 17.3099 9.66875 16.3533 10.8336C15.9361 11.342 15.1698 12.1519 14.0509 13.2468C13.47 13.8151 13.0029 14.2796 12.6369 14.6497C12.2805 15.0088 11.8432 15.4946 11.3224 16.1059C10.8052 16.7118 10.3533 17.3134 9.96799 17.8999C9.56247 17.3232 9.09569 16.739 8.56437 16.1387C8.02825 15.5332 7.61508 15.0731 7.30914 14.769C7.00238 14.464 6.536 14.011 5.8955 13.3887L5.21266 12.7251L4.59109 12.1054C4.32102 11.8372 4.11302 11.6196 3.97799 11.4533C3.84618 11.2933 3.67123 11.0841 3.45396 10.8226C3.23669 10.5624 3.06901 10.3336 2.95977 10.1488C2.73323 9.76845 2.34827 9.20018 2.20799 8.72543L1.98145 7.95325C1.81578 7.39029 1.76338 6.81177 1.76338 6.17085C1.76338 4.95358 2.15881 3.9097 2.94926 3.05112C3.75061 2.18186 4.69992 1.74704 5.81605 1.74704C6.59765 1.74704 7.31843 1.97444 7.98185 2.44209C8.64373 2.90974 9.15442 3.52545 9.48381 4.30029C9.57975 4.52547 9.74139 4.63762 9.96793 4.63762C10.1953 4.63762 10.3714 4.53345 10.4726 4.30029C10.8064 3.53254 11.2828 2.90973 11.9452 2.44209C12.6074 1.97444 13.3395 1.74704 14.1198 1.74704C15.2368 1.74704 16.1865 2.18188 16.9773 3.04012C17.7682 3.89829 18.1636 4.94223 18.1636 6.17097C18.1624 6.5513 18.1306 6.92043 18.0737 7.27947Z" fill="black"/>
</svg>
