<svg width="44" height="38" viewBox="0 0 44 38" fill="none" xmlns="http://www.w3.org/2000/svg">
<path d="M18.7796 22.087L26.2028 37.3227C26.4034 37.7345 26.8636 38 27.3707 38H27.4003C27.9193 37.9893 28.3787 37.7023 28.5608 37.2749L43.8074 1.51043C43.9824 1.10003 43.8685 0.6373 43.5162 0.327421C43.1639 0.0171964 42.6379 -0.0826302 42.1713 0.0712709L1.51265 13.4826C1.02679 13.6427 0.70051 14.0469 0.688687 14.5034C0.676865 14.9599 0.981463 15.3765 1.45866 15.5561L18.7796 22.087ZM40.4471 3.02771L27.2937 33.8834L21.2553 21.4907L32.0824 11.9668C32.5789 11.5304 32.5789 10.8229 32.0824 10.3865C31.5859 9.94981 30.782 9.94981 30.2859 10.3865L19.4577 19.9104L5.36917 14.5989L40.4471 3.02771Z" fill="black"/>
</svg>
