<svg width="31" height="34" viewBox="0 0 31 34" fill="none" xmlns="http://www.w3.org/2000/svg">
<path fill-rule="evenodd" clip-rule="evenodd" d="M28.4069 2.91329C26.8778 1.13656 24.6737 3.51184e-09 22.357 3.18211e-09C20.9922 2.98785e-09 19.7099 0.364941 18.4765 1.09796C17.2438 1.83177 16.2422 2.8338 15.4526 4.1079C14.663 2.83376 13.6614 1.83167 12.4274 1.09796C11.194 0.364941 9.91301 1.41093e-09 8.54823 1.21668e-09C6.22948 8.8665e-10 4.02811 1.1365 2.49842 2.91329C0.969368 4.68688 -1.03484e-09 7.27065 -1.42204e-09 9.99105C-1.68825e-09 11.8614 0.339195 13.6775 0.756816 15.0445C0.963945 15.7209 1.27565 16.457 1.69327 17.2043C2.11491 17.9609 2.49835 18.5925 2.82682 19.0951C3.15596 19.5945 3.62518 20.2237 4.25731 20.945C4.89078 21.6701 5.40761 22.2388 5.78636 22.643C6.16443 23.0489 6.74025 23.6474 7.49505 24.4166C8.36715 25.3054 8.98855 25.9661 9.38546 26.386C9.77626 26.7958 10.3394 27.4266 11.0794 28.2564C12.5763 29.934 13.6736 31.4795 14.7127 33.2516C14.9064 33.5827 15.1564 33.7337 15.4527 33.7337C15.7644 33.7337 16.0352 33.5843 16.2249 33.2516C16.8892 32.0805 17.6581 30.8825 18.5591 29.7037C19.4668 28.5113 20.2236 27.5855 20.8283 26.9241C21.4396 26.2555 22.3198 25.3212 23.4587 24.128C24.1619 23.3902 24.7236 22.8357 25.1023 22.4322C25.4804 22.0264 25.9738 21.4672 26.5818 20.7522C27.1898 20.0389 27.6711 19.4262 28.0116 18.9196C28.3608 18.4037 28.7309 17.7784 29.1465 17.0312C29.9965 15.5022 30.3678 14.2925 30.6748 12.5953C30.8283 11.7467 30.9054 10.8768 30.9054 9.99113C30.9054 7.27052 29.9346 4.68676 28.4069 2.91329ZM28.9324 11.9582C28.616 14.0983 27.6621 16.1976 26.0714 18.2644C25.3776 19.1665 24.1032 20.6034 22.2425 22.5462C21.2765 23.5546 20.4997 24.3788 19.891 25.0355C19.2984 25.6726 18.5711 26.5346 17.7051 27.6192C16.845 28.6943 16.0936 29.7617 15.4527 30.8023C14.7784 29.779 14.0021 28.7425 13.1185 27.6774C12.227 26.603 11.5399 25.7866 11.0311 25.2471C10.521 24.706 9.7454 23.9022 8.68028 22.7979L7.54473 21.6205L6.51107 20.521C6.06194 20.0451 5.71605 19.659 5.49149 19.364C5.27229 19.0801 4.98135 18.7089 4.62005 18.2448C4.25874 17.7831 3.97988 17.3773 3.79822 17.0493C3.42149 16.3745 2.78131 15.3662 2.54803 14.5238L2.1713 13.1537C1.89579 12.1548 1.80864 11.1284 1.80864 9.99115C1.80864 7.83129 2.46624 5.97911 3.78074 4.45571C5.11337 2.91336 6.69205 2.14183 8.54814 2.14183C9.84792 2.14183 11.0466 2.54531 12.1498 3.37508C13.2505 4.20486 14.0998 5.29732 14.6475 6.67214C14.8071 7.0717 15.0759 7.27069 15.4526 7.27069C15.8307 7.27069 16.1236 7.08586 16.2919 6.67214C16.8469 5.30991 17.6393 4.20484 18.7407 3.37508C19.8421 2.54531 21.0594 2.14183 22.3571 2.14183C24.2146 2.14183 25.7939 2.91339 27.1091 4.43618C28.4243 5.95887 29.0819 7.81116 29.0819 9.99135C29.0799 10.6662 29.0269 11.3211 28.9324 11.9582Z" fill="black"/>
</svg>
