<svg width="31" height="36" viewBox="0 0 31 36" fill="none" xmlns="http://www.w3.org/2000/svg">
<path fill-rule="evenodd" clip-rule="evenodd" d="M28.4069 3.77603C26.8778 1.93561 24.6737 0.758301 22.3571 0.758301C20.9922 0.758301 19.7099 1.13632 18.4765 1.89563C17.2438 2.65574 16.2422 3.69369 15.4526 5.01347C14.663 3.69365 13.6614 2.65564 12.4274 1.89563C11.194 1.13632 9.91301 0.758301 8.54823 0.758301C6.22948 0.758301 4.02811 1.93555 2.49842 3.77603C0.969368 5.6132 -1.03484e-09 8.2896 -1.42204e-09 11.1075C-1.68825e-09 13.0449 0.339195 14.9262 0.756816 16.3421C0.963945 17.0428 1.27565 17.8053 1.69327 18.5794C2.11491 19.3631 2.49835 20.0173 2.82682 20.5379C3.15596 21.0553 3.62518 21.7071 4.25731 22.4541C4.89078 23.2053 5.40761 23.7943 5.78636 24.2131C6.16443 24.6335 6.74025 25.2535 7.49505 26.0503C8.36715 26.9709 8.98855 27.6552 9.38546 28.0903C9.77626 28.5148 10.3394 29.1681 11.0794 30.0277C12.5763 31.7654 13.6736 33.3664 14.7127 35.202C14.9064 35.545 15.1564 35.7014 15.4527 35.7014C15.7644 35.7014 16.0352 35.5466 16.2249 35.202C16.8892 33.9889 17.6581 32.748 18.5591 31.5268C19.4668 30.2917 20.2236 29.3327 20.8283 28.6476C21.4396 27.9551 22.3198 26.9872 23.4587 25.7512C24.1619 24.987 24.7236 24.4127 25.1023 23.9947C25.4804 23.5743 25.9738 22.9951 26.5818 22.2545C27.1898 21.5155 27.6711 20.8809 28.0116 20.3562C28.3608 19.8218 28.7309 19.1741 29.1465 18.4001C29.9965 16.8163 30.3678 15.5632 30.6748 13.8052C30.8283 12.9261 30.9054 12.025 30.9054 11.1076C30.9054 8.28947 29.9346 5.61308 28.4069 3.77603ZM28.9324 13.1452C28.616 15.3621 27.6621 17.5366 26.0714 19.6775C25.3776 20.612 24.1032 22.1004 22.2425 24.1128C21.2765 25.1573 20.4997 26.0111 19.891 26.6913C19.2984 27.3513 18.5711 28.2442 17.7051 29.3676C16.845 30.4813 16.0936 31.587 15.4527 32.6649C14.7784 31.6049 14.0021 30.5312 13.1185 29.4279C12.227 28.315 11.5399 27.4694 11.0311 26.9105C10.521 26.35 9.7454 25.5174 8.68028 24.3735L7.54473 23.1539L6.51107 22.015C6.06194 21.5221 5.71605 21.122 5.49149 20.8165C5.27229 20.5224 4.98135 20.1379 4.62005 19.6572C4.25874 19.1789 3.97988 18.7586 3.79822 18.4188C3.42149 17.7198 2.78131 16.6754 2.54803 15.8028L2.1713 14.3836C1.89579 13.3489 1.80864 12.2856 1.80864 11.1076C1.80864 8.87035 2.46624 6.95176 3.78074 5.37375C5.11337 3.7761 6.69205 2.97692 8.54814 2.97692C9.84792 2.97692 11.0466 3.39486 12.1498 4.25438C13.2505 5.1139 14.0998 6.24554 14.6475 7.66964C14.8071 8.08352 15.0759 8.28964 15.4526 8.28964C15.8307 8.28964 16.1236 8.09819 16.2919 7.66964C16.8469 6.25857 17.6393 5.11388 18.7407 4.25438C19.8421 3.39486 21.0594 2.97692 22.3571 2.97692C24.2146 2.97692 25.7939 3.77614 27.1091 5.35352C28.4243 6.9308 29.0819 8.84949 29.0819 11.1078C29.0799 11.8069 29.0269 12.4855 28.9324 13.1454L28.9324 13.1452Z" fill="black"/>
</svg>
