<svg width="31" height="36" viewBox="0 0 31 36" fill="none" xmlns="http://www.w3.org/2000/svg">
<path fill-rule="evenodd" clip-rule="evenodd" d="M28.4069 3.89444C26.8778 2.05402 24.6737 0.876709 22.357 0.876709C20.9922 0.876709 19.7099 1.25473 18.4765 2.01404C17.2438 2.77415 16.2422 3.8121 15.4526 5.13188C14.663 3.81206 13.6614 2.77405 12.4274 2.01404C11.194 1.25473 9.91301 0.876709 8.54823 0.876709C6.22948 0.876709 4.02811 2.05396 2.49842 3.89444C0.969368 5.73161 -1.03484e-09 8.40801 -1.42204e-09 11.2259C-1.68825e-09 13.1633 0.339195 15.0446 0.756816 16.4605C0.963945 17.1612 1.27565 17.9237 1.69327 18.6978C2.11491 19.4815 2.49835 20.1357 2.82682 20.6563C3.15596 21.1737 3.62518 21.8255 4.25731 22.5725C4.89078 23.3237 5.40761 23.9127 5.78636 24.3315C6.16443 24.7519 6.74025 25.3719 7.49505 26.1687C8.36715 27.0893 8.98855 27.7736 9.38546 28.2087C9.77626 28.6332 10.3394 29.2866 11.0794 30.1461C12.5763 31.8838 13.6736 33.4848 14.7127 35.3204C14.9064 35.6634 15.1564 35.8198 15.4527 35.8198C15.7644 35.8198 16.0352 35.665 16.2249 35.3204C16.8892 34.1073 17.6581 32.8664 18.5591 31.6452C19.4668 30.4101 20.2236 29.4511 20.8283 28.766C21.4396 28.0735 22.3198 27.1056 23.4587 25.8697C24.1619 25.1054 24.7236 24.5311 25.1023 24.1131C25.4804 23.6927 25.9738 23.1135 26.5818 22.3729C27.1898 21.634 27.6711 20.9993 28.0116 20.4746C28.3608 19.9402 28.7309 19.2925 29.1465 18.5185C29.9965 16.9347 30.3678 15.6816 30.6748 13.9236C30.8283 13.0445 30.9054 12.1435 30.9054 11.226C30.9054 8.40788 29.9346 5.73149 28.4069 3.89444ZM28.9324 13.2636C28.616 15.4805 27.6621 17.655 26.0714 19.7959C25.3776 20.7304 24.1032 22.2188 22.2425 24.2312C21.2765 25.2757 20.4997 26.1295 19.891 26.8097C19.2984 27.4697 18.5711 28.3626 17.7051 29.486C16.845 30.5997 16.0936 31.7054 15.4527 32.7833C14.7784 31.7233 14.0021 30.6496 13.1185 29.5463C12.227 28.4334 11.5399 27.5878 11.0311 27.0289C10.521 26.4684 9.7454 25.6358 8.68028 24.4919L7.54473 23.2723L6.51107 22.1334C6.06194 21.6405 5.71605 21.2405 5.49149 20.9349C5.27229 20.6408 4.98135 20.2563 4.62005 19.7756C4.25874 19.2974 3.97988 18.877 3.79822 18.5372C3.42149 17.8382 2.78131 16.7938 2.54803 15.9212L2.1713 14.502C1.89579 13.4673 1.80864 12.404 1.80864 11.226C1.80864 8.98876 2.46624 7.07017 3.78074 5.49216C5.11337 3.89451 6.69205 3.09533 8.54814 3.09533C9.84792 3.09533 11.0466 3.51327 12.1498 4.37279C13.2505 5.23231 14.0998 6.36394 14.6475 7.78805C14.8071 8.20193 15.0759 8.40805 15.4526 8.40805C15.8307 8.40805 16.1236 8.21659 16.2919 7.78805C16.8469 6.37698 17.6393 5.23229 18.7407 4.37279C19.8421 3.51327 21.0594 3.09533 22.3571 3.09533C24.2146 3.09533 25.7939 3.89455 27.1091 5.47193C28.4243 7.0492 29.0819 8.9679 29.0819 11.2262C29.0799 11.9253 29.0269 12.6037 28.9324 13.2636Z" fill="black"/>
</svg>
