<svg width="25" height="29" viewBox="0 0 25 29" fill="none" xmlns="http://www.w3.org/2000/svg">
<path d="M12.3547 0.501465C11.1917 0.501465 10.225 1.57724 10.225 2.90938L10.225 12.0624L2.12968 12.0624C0.951469 12.0624 -1.73871e-09 13.1554 -1.9217e-09 14.4871C-2.10238e-09 15.802 0.951469 16.895 2.12968 16.895L10.225 16.895L10.225 26.048C10.225 27.3801 11.1917 28.4559 12.3547 28.4559C13.5329 28.4559 14.4993 27.3801 14.4993 26.048L14.4993 16.895L22.5947 16.895C23.7729 16.895 24.7243 15.802 24.7243 14.4871C24.7243 13.155 23.7729 12.0624 22.5947 12.0624L14.4993 12.0624L14.4993 2.90938C14.4993 1.57724 13.5326 0.501465 12.3547 0.501465Z" fill="black"/>
</svg>
