<svg width="35" height="34" viewBox="0 0 35 34" fill="none" xmlns="http://www.w3.org/2000/svg">
<path fill-rule="evenodd" clip-rule="evenodd" d="M31.2653 2.91329C29.5824 1.13656 27.1565 3.51184e-09 24.6067 3.18211e-09C23.1046 2.98785e-09 21.6931 0.364941 20.3357 1.09796C18.9789 1.83177 17.8766 2.8338 17.0075 4.1079C16.1384 2.83376 15.0361 1.83167 13.6779 1.09796C12.3204 0.364941 10.9105 1.41093e-09 9.40838 1.21668e-09C6.85632 8.8665e-10 4.43344 1.1365 2.74982 2.91329C1.06691 4.68688 -1.13897e-09 7.27065 -1.56513e-09 9.99105C-1.85812e-09 11.8614 0.373326 13.6775 0.83297 15.0445C1.06094 15.7209 1.40401 16.457 1.86366 17.2043C2.32772 17.9609 2.74974 18.5925 3.11126 19.0951C3.47352 19.5945 3.98996 20.2237 4.6857 20.945C5.38291 21.6701 5.95175 22.2388 6.36861 22.643C6.78472 23.0489 7.41849 23.6474 8.24923 24.4166C9.20909 25.3054 9.89302 25.9661 10.3299 26.386C10.76 26.7958 11.3797 27.4266 12.1943 28.2564C13.8418 29.934 15.0495 31.4795 16.1931 33.2516C16.4063 33.5827 16.6815 33.7337 17.0076 33.7337C17.3507 33.7337 17.6488 33.5843 17.8576 33.2516C18.5887 32.0805 19.435 30.8825 20.4266 29.7037C21.4256 28.5113 22.2585 27.5855 22.9241 26.9241C23.597 26.2555 24.5657 25.3212 25.8192 24.128C26.5931 23.3902 27.2114 22.8357 27.6282 22.4322C28.0443 22.0264 28.5873 21.4672 29.2565 20.7522C29.9257 20.0389 30.4554 19.4262 30.8302 18.9196C31.2146 18.4037 31.6219 17.7784 32.0793 17.0312C33.0148 15.5022 33.4236 14.2925 33.7615 12.5953C33.9304 11.7467 34.0153 10.8768 34.0153 9.99113C34.0153 7.27052 32.9468 4.68676 31.2653 2.91329ZM31.8437 11.9582C31.4955 14.0983 30.4456 16.1976 28.6948 18.2644C27.9312 19.1665 26.5286 20.6034 24.4806 22.5462C23.4175 23.5546 22.5624 24.3788 21.8925 25.0355C21.2403 25.6726 20.4398 26.5346 19.4866 27.6192C18.54 28.6943 17.713 29.7617 17.0076 30.8023C16.2654 29.779 15.4111 28.7425 14.4386 27.6774C13.4573 26.603 12.7011 25.7866 12.1411 25.2471C11.5796 24.706 10.726 23.9022 9.55372 22.7979L8.30391 21.6205L7.16624 20.521C6.67192 20.0451 6.29122 19.659 6.04406 19.364C5.80281 19.0801 5.4826 18.7089 5.08494 18.2448C4.68727 17.7831 4.38035 17.3773 4.18041 17.0493C3.76577 16.3745 3.06117 15.3662 2.80442 14.5238L2.38979 13.1537C2.08655 12.1548 1.99064 11.1284 1.99064 9.99114C1.99064 7.83129 2.7144 5.97911 4.16118 4.45571C5.6279 2.91336 7.36543 2.14183 9.40829 2.14183C10.8389 2.14183 12.1581 2.54531 13.3724 3.37508C14.5838 4.20486 15.5186 5.29732 16.1214 6.67214C16.297 7.0717 16.5929 7.27068 17.0075 7.27068C17.4236 7.27068 17.7461 7.08586 17.9312 6.67214C18.5421 5.30991 19.4142 4.20484 20.6265 3.37508C21.8387 2.54531 23.1785 2.14183 24.6068 2.14183C26.6512 2.14183 28.3894 2.91339 29.8369 4.43618C31.2845 5.95887 32.0082 7.81116 32.0082 9.99135C32.006 10.6662 31.9477 11.3213 31.8437 11.9584L31.8437 11.9582Z" fill="black"/>
</svg>
