<svg width="274" height="259" viewBox="0 0 274 259" fill="none" xmlns="http://www.w3.org/2000/svg">
<path d="M167.589 191.877H141.204V165.492C141.204 163.047 139.219 161.063 136.775 161.063C134.33 161.063 132.346 163.047 132.346 165.492V191.877H105.958C103.514 191.877 101.529 193.861 101.529 196.306C101.529 198.75 103.514 200.735 105.958 200.735L132.348 200.732V227.118C132.348 229.562 134.333 231.547 136.777 231.547C139.222 231.547 141.206 229.562 141.206 227.118L141.204 200.732H167.589C170.034 200.732 172.018 198.748 172.018 196.304C172.018 193.859 170.034 191.877 167.589 191.877ZM269.126 0H4.42887C1.9844 0 0 1.98439 0 4.42886V211.974C0 214.418 1.9844 216.403 4.42887 216.403H78.3918C86.7595 240.632 109.742 258.112 136.782 258.112C163.817 258.112 186.794 240.632 195.16 216.403H269.123C271.568 216.403 273.552 214.418 273.552 211.974V4.42886C273.552 1.98439 271.568 0 269.123 0H269.126ZM136.78 249.258C107.58 249.258 83.824 225.502 83.824 196.304C83.824 167.105 107.582 143.35 136.78 143.35C165.977 143.35 189.727 167.105 189.727 196.304C189.727 225.502 165.977 249.258 136.78 249.258ZM264.696 207.548H197.507C198.182 203.898 198.58 200.149 198.58 196.304C198.58 162.223 170.856 134.493 136.776 134.493C102.693 134.493 74.9652 162.222 74.9652 196.304C74.9652 200.147 75.3657 203.893 76.0386 207.548H8.84918V129.636L93.898 52.0699L182.914 137.277C183.77 138.094 184.871 138.506 185.974 138.506C187.075 138.506 188.176 138.096 189.029 137.282L228.786 99.358L264.696 133.519L264.696 207.548ZM264.696 121.293L231.834 90.034C230.122 88.4044 227.432 88.4112 225.727 90.0409L185.984 127.953L97.0328 42.8102C95.3482 41.1989 92.7023 41.1668 90.9882 42.7392L8.85152 117.651V8.85446H264.695L264.696 121.293Z" fill="#828282"/>
</svg>
