<svg width="50" height="42" viewBox="0 0 50 42" fill="none" xmlns="http://www.w3.org/2000/svg">
<path d="M37.8441 16.2355C37.8441 16.7011 37.4064 17.0786 36.866 17.0786L12.9268 17.0786C12.3865 17.0786 11.9487 16.7011 11.9487 16.2355C11.9487 15.7695 12.3865 15.392 12.9268 15.392L36.866 15.392C37.4064 15.392 37.8441 15.7695 37.8441 16.2355ZM36.866 24.5001L12.9268 24.5001C12.3865 24.5001 11.9487 24.8776 11.9487 25.3436C11.9487 25.8092 12.3865 26.1867 12.9268 26.1867L36.866 26.1867C37.4064 26.1867 37.8441 25.8092 37.8441 25.3436C37.8441 24.8776 37.4064 24.5001 36.866 24.5001ZM48.7577 20.7896C48.7643 23.7286 48.042 26.6344 46.6388 29.3126L49.2465 39.2921C49.3152 39.5589 49.2303 39.8374 49.018 40.0401C48.8082 40.2433 48.4974 40.3462 48.184 40.3156L35.9147 39.191L35.9142 39.191C31.2552 41.3165 25.9164 42.0671 20.716 41.3283C15.5152 40.5898 10.738 38.4019 7.11465 35.0999C3.49193 31.7983 1.2234 27.5638 0.6552 23.0444C0.0870515 18.5248 1.25116 13.9695 3.96955 10.0748C6.6875 6.17996 10.8101 3.16032 15.7071 1.47769C20.6037 -0.204931 26.0046 -0.458251 31.0839 0.757126C36.1634 1.97206 40.6413 4.5884 43.8329 8.20607C47.025 11.8237 48.7547 16.2435 48.7582 20.7895L48.7577 20.7896ZM44.722 28.8628C46.0969 26.3371 46.807 23.5799 46.8015 20.7896C46.8025 16.6013 45.2083 12.5294 42.2644 9.19827C39.32 5.86739 35.1892 3.46286 30.5066 2.3535C25.8238 1.24453 20.848 1.49212 16.3449 3.05881C11.8411 4.62549 8.05873 7.42406 5.57837 11.0248C3.09853 14.6255 2.05827 18.829 2.6178 22.9888C3.17736 27.1487 5.30547 31.0354 8.67533 34.0511C12.0448 37.0667 16.4697 39.0445 21.2697 39.6805C26.0697 40.3165 30.9788 39.5754 35.2424 37.5716C35.4178 37.4901 35.618 37.4569 35.8161 37.4757L47.0295 38.5158L44.6563 29.4078L44.6563 29.4082C44.6073 29.2251 44.6305 29.0333 44.7215 28.8624L44.722 28.8628Z" fill="black"/>
</svg>
