<svg width="47" height="32" viewBox="0 0 47 32" fill="none" xmlns="http://www.w3.org/2000/svg">
<path d="M13.7008 30.8642C14.1175 31.2827 14.6645 31.493 15.2115 31.493C15.7585 31.493 16.3054 31.2827 16.7221 30.8642C17.5575 30.0252 17.5575 28.669 16.7221 27.83L7.29511 18.3625H44.8705C46.05 18.3625 47.0072 17.4011 47.0072 16.2166C47.0072 15.0321 46.05 14.0708 44.8705 14.0708H7.29511L16.7221 4.60322C17.5575 3.76419 17.5575 2.408 16.7221 1.56897C15.8867 0.729939 14.5363 0.729939 13.7008 1.56897L0.626577 14.6995C-0.208859 15.5385 -0.208859 16.8947 0.626577 17.7337L13.7008 30.8642Z" fill="black"/>
</svg>
