<svg width="45" height="44" viewBox="0 0 45 44" fill="none" xmlns="http://www.w3.org/2000/svg">
<path d="M33.9166 17.289C33.9166 17.7713 33.5189 18.1623 33.028 18.1623L11.2774 18.1623C10.7864 18.1623 10.3887 17.7713 10.3887 17.289C10.3887 16.8063 10.7864 16.4153 11.2774 16.4153L33.028 16.4153C33.5189 16.4153 33.9166 16.8063 33.9166 17.289ZM33.028 25.8499L11.2774 25.8499C10.7864 25.8499 10.3887 26.2409 10.3887 26.7236C10.3887 27.2059 10.7864 27.5969 11.2774 27.5969L33.028 27.5969C33.5189 27.5969 33.9166 27.2059 33.9166 26.7236C33.9166 26.2409 33.5189 25.8499 33.028 25.8499ZM43.8325 22.0063C43.8385 25.0507 43.1822 28.0607 41.9073 30.8349L44.2766 41.1722C44.339 41.4485 44.2619 41.7371 44.069 41.947C43.8784 42.1574 43.5959 42.264 43.3112 42.2324L32.1636 41.0674L32.1631 41.0674C27.9301 43.2692 23.0794 44.0467 18.3545 43.2813C13.6292 42.5164 9.2887 40.2501 5.9966 36.8297C2.70509 33.4097 0.643955 29.0234 0.127702 24.3419C-0.388504 19.6603 0.669175 14.9417 3.13904 10.9075C5.6085 6.87294 9.35419 3.74505 13.8035 2.0021C18.2524 0.259158 23.1596 -0.00324383 27.7745 1.2557C32.3896 2.51419 36.4581 5.22433 39.3579 8.97169C42.2581 12.7191 43.8297 17.2972 43.8329 22.0062L43.8325 22.0063ZM40.1657 30.369C41.4149 27.7527 42.0601 24.8967 42.0551 22.0063C42.056 17.6679 40.6075 13.45 37.9328 9.99946C35.2576 6.54917 31.5045 4.05844 27.25 2.90931C22.9953 1.76058 18.4744 2.01705 14.383 3.6399C10.291 5.26275 6.85437 8.16165 4.60078 11.8914C2.34765 15.6212 1.4025 19.9755 1.91088 24.2844C2.41927 28.5935 4.35282 32.6194 7.4146 35.7433C10.476 38.867 14.4964 40.9157 18.8575 41.5745C23.2187 42.2333 27.679 41.4657 31.5528 39.39C31.7122 39.3055 31.894 39.2712 32.0741 39.2906L42.2623 40.368L40.106 30.9335L40.106 30.9339C40.0615 30.7443 40.0826 30.5456 40.1653 30.3686L40.1657 30.369Z" fill="black"/>
</svg>
