<svg width="42" height="41" viewBox="0 0 42 41" fill="none" xmlns="http://www.w3.org/2000/svg">
<path d="M0.922943 31.5374V38.9034V38.9028C0.922943 39.1991 1.04349 39.4826 1.25844 39.692C1.4734 39.9013 1.76511 40.0187 2.06876 40.0187H9.63231C9.93596 40.0226 10.2271 39.9007 10.4341 39.6842L40.6871 10.2216H40.6877C40.9089 10.0189 41.0345 9.73593 41.0345 9.44022C41.0345 9.1445 40.9089 8.86151 40.6877 8.65882L33.1241 1.29289V1.29344C32.916 1.07747 32.626 0.955078 32.3218 0.955078C32.0181 0.955078 31.7275 1.07747 31.52 1.29344L1.26698 30.756H1.26641C1.04408 30.9576 0.918969 31.2412 0.922943 31.5374ZM32.3216 3.65982L38.2576 9.44077L36.103 11.5391L30.1676 5.75815L32.3216 3.65982ZM3.21426 32.0067L28.5396 7.455L34.4757 13.2359L9.1503 37.7876H3.21426V32.0067Z" fill="black"/>
</svg>
