<svg width="40" height="41" viewBox="0 0 40 41" fill="none" xmlns="http://www.w3.org/2000/svg">
<path fill-rule="evenodd" clip-rule="evenodd" d="M35.9986 4.08517C34.0843 1.99975 31.3249 0.66571 28.4245 0.66571C26.7159 0.66571 25.1104 1.09406 23.5663 1.95444C22.023 2.81575 20.769 3.99187 19.7805 5.48734C18.7919 3.99182 17.538 2.81563 15.9931 1.95444C14.4489 1.09406 12.8452 0.66571 11.1365 0.66571C8.23359 0.66571 5.47758 1.99968 3.56247 4.08517C1.64817 6.16691 0.43457 9.1996 0.43457 12.3927C0.43457 14.5879 0.859226 16.7196 1.38207 18.3241C1.64138 19.118 2.03163 19.9821 2.55447 20.8592C3.08234 21.7473 3.56238 22.4886 3.97361 23.0785C4.38568 23.6647 4.97313 24.4032 5.76453 25.2498C6.5576 26.1009 7.20464 26.7684 7.67882 27.2429C8.15215 27.7192 8.87305 28.4218 9.81802 29.3246C10.9099 30.3678 11.6878 31.1432 12.1847 31.6362C12.674 32.1172 13.379 32.8576 14.3055 33.8315C16.1795 35.8006 17.5532 37.6147 18.8541 39.6946C19.0967 40.0833 19.4097 40.2605 19.7806 40.2605C20.1709 40.2605 20.5099 40.0851 20.7474 39.6946C21.5791 38.32 22.5417 36.9139 23.6697 35.5302C24.806 34.1307 25.7535 33.044 26.5106 32.2677C27.276 31.483 28.3779 30.3863 29.8037 28.9858C30.6841 28.1198 31.3873 27.469 31.8615 26.9954C32.3348 26.5191 32.9525 25.8627 33.7137 25.0235C34.4749 24.1862 35.0774 23.4671 35.5038 22.8726C35.941 22.267 36.4043 21.533 36.9246 20.656C37.9887 18.8614 38.4537 17.4415 38.838 15.4494C39.0302 14.4534 39.1267 13.4323 39.1267 12.3927C39.1267 9.19945 37.9113 6.16677 35.9986 4.08517ZM36.6566 14.7016C36.2605 17.2136 35.0663 19.6775 33.0747 22.1035C32.2061 23.1623 30.6107 24.8489 28.2811 27.1293C27.0718 28.3128 26.0992 29.2802 25.3371 30.051C24.5953 30.7988 23.6847 31.8106 22.6005 33.0836C21.5237 34.3456 20.583 35.5984 19.7807 36.8197C18.9364 35.6187 17.9646 34.4021 16.8584 33.1519C15.7422 31.8909 14.882 30.9326 14.245 30.2994C13.6063 29.6643 12.6354 28.7208 11.3019 27.4247L9.88021 26.0427L8.58613 24.7521C8.02384 24.1936 7.5908 23.7403 7.30966 23.3941C7.03524 23.0609 6.67099 22.6251 6.21866 22.0805C5.76631 21.5386 5.41719 21.0622 5.18976 20.6773C4.71811 19.8852 3.91664 18.7017 3.62458 17.713L3.15294 16.1048C2.80801 14.9324 2.69891 13.7276 2.69891 12.3928C2.69891 9.85765 3.52219 7.68366 5.16789 5.89558C6.83627 4.08525 8.8127 3.17968 11.1364 3.17968C12.7637 3.17968 14.2643 3.65326 15.6456 4.6272C17.0236 5.60114 18.0868 6.88342 18.7726 8.49711C18.9723 8.96608 19.3089 9.19964 19.7805 9.19964C20.2538 9.19964 20.6206 8.9827 20.8312 8.49711C21.5261 6.89819 22.5181 5.60112 23.897 4.6272C25.2759 3.65326 26.8 3.17968 28.4247 3.17968C30.7501 3.17968 32.7273 4.08529 34.3739 5.87266C36.0205 7.6599 36.8437 9.83402 36.8437 12.393C36.8412 13.1851 36.7749 13.9541 36.6566 14.7018L36.6566 14.7016Z" fill="black"/>
</svg>
